<?xml version="1.0" encoding="UTF-8"?>
<svg width="375px" height="266px" viewBox="0 0 375 266" version="1.1" xmlns="http://www.w3.org/2000/svg" xmlns:xlink="http://www.w3.org/1999/xlink">
    <!-- Generator: Sketch 53.2 (72643) - https://sketchapp.com -->
    <title>map/Alaska</title>
    <desc>Created with Sketch.</desc>
    <g id="map/Alaska" stroke="none" stroke-width="1" fill="none" fill-rule="evenodd">
        <path d="M303.461054,165.654842 L302.694095,166.310139 L303.353468,167.410452 L303.461054,168.502614 L304.560552,169.272018 L305.767636,168.178226 L305.651084,167.081173 L303.461054,165.654842 Z M329.639535,175.190887 C329.509128,174.850197 329.342858,174.518473 329.137467,174.198975 C328.345241,172.9707 327.235148,171.977158 326.748565,170.563867 C326.358973,169.435028 326.531763,168.047818 325.846308,167.034715 C324.508817,165.050892 320.675653,165.292961 318.554087,164.92456 C316.411329,164.554529 314.416095,165.077789 312.292084,164.976723 C310.637539,164.896033 309.199797,163.676724 307.989453,162.669326 C306.942933,161.799671 305.240301,160.856662 304.52306,159.696036 C303.888138,158.669077 303.5719,157.83773 302.585694,157.038169 C300.385068,155.247512 291.038929,147.548582 290.001375,146.815855 C288.882316,146.027705 287.556235,145.639743 286.257866,145.260746 C284.218619,144.661687 283.053102,143.177487 281.253479,142.245889 C280.230596,141.715293 279.038998,141.798428 277.959876,141.443883 C276.853858,141.082002 276.703889,140.224573 276.116241,139.328022 C274.711101,137.19097 272.258625,135.385641 270.272357,137.851972 C269.583642,138.708586 268.75148,139.314166 267.828032,139.887959 C268.114113,140.972786 268.095367,141.321626 267.814176,142.414603 C267.722891,142.769148 267.477562,143.271217 267.505274,143.638803 C267.538691,144.041436 267.891606,144.396796 267.939693,144.805135 C268.077436,145.969021 267.405023,146.171153 266.722829,146.929146 C266.105024,147.6146 265.488848,148.384819 264.927281,149.128957 C264.316811,149.935038 263.950855,150.539803 263.663959,151.508078 C262.649226,150.167326 261.896938,148.384819 260.374431,147.6146 C258.25531,146.541184 256.104402,145.51015 254.031738,144.347894 C253.039827,143.793662 252.31525,142.926452 251.35431,142.350214 C249.920643,141.48871 248.265284,141.65661 247.733058,139.810529 C247.495065,138.985702 247.506475,138.126643 246.569987,137.780248 C245.74353,137.473791 244.79237,137.944888 244.137888,138.440436 C243.483406,138.935169 243.429612,139.810529 242.908798,140.391658 C242.158955,141.232786 241.258328,140.771469 240.282718,140.862754 C239.517389,140.934479 239.423658,141.424322 238.780587,141.639494 C237.61181,142.030716 235.764099,141.649274 235.372877,140.325639 L201.383804,25.2011231 C201.383804,25.2011231 201.272958,24.657487 201.271328,24.6509667 C201.106688,24.1374873 195.513023,23.6101522 194.635218,23.1251994 C192.687257,22.0444477 191.700236,22.4136638 189.594155,22.4185541 C188.465316,22.4218142 183.012654,25.1236937 182.495914,25.1302141 C180.618047,25.1546655 178.947202,23.9932241 177.061999,23.9972993 C175.497924,23.9997444 173.968082,24.7324713 172.427644,24.6803083 C170.51636,24.6151046 168.465702,22.400623 166.651409,23.9581771 C166.791597,23.8383652 162.455549,22.2971121 161.818182,22.3329742 C160.258183,22.4218142 159.001381,23.5783653 157.459313,23.7870173 C155.323891,24.0763588 153.239817,23.694917 151.1101,24.1709042 C151.19568,24.1513431 151.346464,23.4031303 151.3701,23.3045097 C150.451543,22.9499644 149.228973,23.4577385 148.258252,23.1186791 C148.618503,22.9899017 149.008095,22.9157325 149.36101,22.7747294 C149.056183,22.4275196 148.324271,22.0199963 148.287594,21.5757959 C148.264773,21.2913446 148.702453,20.9229436 148.744835,20.616486 C148.849161,19.8690883 148.346277,19.7908438 147.747218,19.7264552 C145.873426,19.5275838 144.610919,19.1143552 142.79744,19.8315962 C141.22766,20.4526617 139.91462,20.9914075 138.339135,20.1070819 C138.451612,19.6612514 138.738508,18.7948569 138.519261,18.3604371 C138.234809,17.7923496 137.573807,17.6896537 137.02202,17.5250143 L137.02202,18.621252 C136.650359,18.3506565 136.281143,18.0604999 135.88666,17.8314718 C135.132742,18.7174275 135.303087,20.5080848 134.167727,21.0680219 C133.400768,21.4470185 131.69243,20.8618151 132.387665,19.7704677 C132.637069,19.3776152 133.35431,19.4199977 133.708856,19.1477721 C135.547601,17.7328512 133.976191,16.1752972 132.196944,16.8672717 C132.232806,16.8534159 131.267791,15.7946704 131.143904,15.7090905 C130.661396,15.3798117 130.080268,15.297492 129.58635,15 C128.622965,16.2894037 128.067103,17.8282117 127.048295,19.0850135 C125.260083,21.2913446 122.944535,21.7551061 120.31601,22.3500901 C119.790305,22.4690869 119.308613,23.326516 118.804914,22.9760459 C118.591372,22.8268924 118.360713,21.4633194 118.760086,21.38589 C118.425102,21.4502787 118.147986,21.6442598 117.836638,21.7999337 C117.090056,22.1740401 116.243222,23.2360458 115.667799,23.851406 C114.28059,25.3364208 113.278898,27.2167333 111.290999,28.0114037 C110.226548,28.4376731 109.046361,28.3398675 107.943603,28.6063878 C106.567804,28.9397418 106.072256,29.69529 105.403918,30.8656969 C104.652445,32.1844423 103.671944,33.3002411 102.829186,34.5505225 C100.351444,38.2223074 100.498152,43.5796086 95.7928884,45.4778521 C93.1692534,46.5374127 90.5268724,45.9155322 87.826623,45.8185416 C85.815088,45.7468175 85.9348999,48.0680702 85.7026116,49.482176 C85.3651823,51.5417988 84.9201669,53.4049953 86.670887,54.9984113 C87.7679397,55.9960284 94.5817291,61.4006023 95.5500045,63.6639867 C96.2843615,65.3723243 95.8271203,67.7726365 97.0708814,69.2552063 C98.061163,70.4329486 101.230879,70.8046098 102.609938,70.4427292 C103.592069,70.1851744 103.831693,69.9757075 104.148746,71.0059264 C104.698902,70.9366474 105.623165,70.5120081 106.167616,70.6807228 C107.333948,71.0434185 106.554764,72.4787155 106.242601,73.1837308 C105.762538,74.2726331 106.190438,75.3362689 106.888118,76.2605317 C107.201911,76.6745754 108.15307,77.5629762 108.753759,77.3046064 C109.625044,76.9305 109.381345,75.5669271 110.61125,75.670438 C110.991062,75.7005947 111.157332,75.949999 111.510247,76.1871775 C112.189996,76.6444187 112.87056,76.0689958 113.587801,76.4773341 C114.490057,76.9948887 114.523474,78.364982 114.325418,79.2558279 C112.676578,79.4009062 111.99683,79.4432886 110.938899,80.7824102 C110.208617,81.7083031 109.479966,81.0693066 108.5989,80.8329431 C107.611879,80.569683 107.492067,81.0424101 107.131817,81.8207795 C106.84655,82.4328795 105.996457,82.7466725 105.409623,83.018083 C104.646739,83.3726282 103.826803,83.4826595 102.99953,83.3416565 C102.255393,83.2161393 101.557713,82.6912493 100.817651,82.6635377 C100.308246,82.6439766 99.8053627,82.9219075 99.2821028,82.9292429 C97.8712572,82.9447288 94.7691899,82.9911864 94.9517603,80.9413443 C95.0194092,80.1735704 95.1147696,79.3642291 95.4049262,78.6469881 C95.5557098,78.2679915 96.0096908,77.8963302 96.0716343,77.4928822 C96.2012267,76.6517541 94.7292526,76.2540113 94.1481244,76.1170835 C93.1130152,75.8725695 91.9760252,75.9622247 91.063173,76.5474281 C90.555399,76.8726317 90.1666218,77.314387 89.5871236,77.5320044 C88.2431118,78.0389634 86.6146487,77.5662363 85.5534581,78.8140727 C84.9527687,79.519088 85.8289438,80.0032257 85.481734,80.7245419 C84.7864992,82.1777699 83.5248071,80.9951373 82.5271901,80.569683 C81.2948396,81.286109 79.534339,81.8770178 78.9238691,83.2357004 C78.4682581,84.2488033 77.7436817,83.9708724 76.875657,83.8836625 C76.0043722,83.7948224 75.5642471,84.6318752 75.1013006,85.3605269 C74.5935266,86.1592725 73.4508313,85.904978 72.6602361,85.835699 C72.3888256,85.8120627 72.3464432,86.4746956 72.3847503,86.6295544 C72.7009884,87.8806509 74.7394199,89.1822803 75.8128363,89.6867942 C77.0158451,90.2540666 78.2881328,90.5833454 79.4039316,91.345414 C80.215718,91.8988306 81.1016736,92.8402094 80.0820503,93.6699269 C79.4609848,94.1768858 78.7029915,94.2567604 78.8708911,95.2315561 C79.0559067,96.2943769 80.1097619,96.8233421 80.1733355,97.9684826 C80.2312039,99.0166325 79.7201696,100.080268 80.6574732,100.898575 C82.3103877,102.341208 86.1614828,103.296442 88.298535,103.113057 C90.1022331,102.957383 91.7706335,102.186349 93.6110087,102.221396 C95.227246,102.253998 96.8426684,102.791113 98.4214136,103.096756 C98.9911312,103.207602 99.3106295,103.480643 99.6227923,103.949294 C100.451695,105.18572 101.596835,103.085345 102.310001,102.492806 C103.525235,101.483779 104.927115,100.714375 106.099152,99.6482936 C106.469184,99.9066634 106.827804,100.182964 107.220657,100.403842 C107.370625,100.487792 108.316079,99.1877923 108.435891,99.0557547 C108.814073,98.6490465 109.325107,98.1722442 109.913571,98.2072912 C109.889119,98.482777 109.704919,98.6645323 109.501157,98.8927454 C109.973884,98.3580748 110.95846,100.756757 111.030184,101.015942 C111.390435,102.322461 110.142599,103.849044 108.706487,103.674624 C108.166111,103.608605 107.513258,103.558072 107.457835,104.259827 C107.397522,105.00315 108.176706,104.859701 108.633132,105.146598 C109.336518,105.589168 109.996705,106.727788 110.16542,107.510233 C110.383037,108.521706 110.312943,109.575561 110.551752,110.590294 C110.753069,111.437127 110.971501,112.17556 110.921783,113.064775 C110.840278,114.53512 110.144229,115.888097 108.94937,116.757752 C107.37633,117.898002 105.440595,117.135933 103.68906,117.07725 C101.207243,116.995745 100.299281,120.188283 98.6985295,121.587718 C98.287746,121.945523 97.7856773,122.440256 97.2069942,122.474488 C96.4261796,122.520946 94.9827321,121.905586 94.4578421,121.354614 C94.1187827,120.998439 93.9891903,120.469474 93.6436105,120.208659 C92.218094,119.123017 90.2016688,119.105901 89.3279388,120.847655 C88.5471242,122.397059 86.9039903,123.453359 87.458222,125.332042 C87.4639273,125.354048 87.039288,125.787653 87.039288,126.001195 C87.0417331,126.26038 87.3473756,126.403828 87.4329555,126.62063 C88.0140837,128.10483 86.5412945,128.023326 85.5999157,128.488717 C83.6707005,129.443952 82.3429896,132.162132 81.1033037,133.859059 C80.5197303,134.661065 81.2989149,136.071096 80.8147772,136.863321 C80.3281944,137.656361 80.6729591,139.052536 79.6834925,139.453539 C79.0673173,139.705388 77.0981648,138.675169 77.4844968,140.217238 C77.906691,141.906829 77.9490734,140.70545 79.0461261,140.972786 C79.551455,141.096673 79.8888843,141.736484 79.7780379,142.162754 C79.6191039,142.785449 78.991518,143.0536 79.1268157,143.76269 C79.2824896,144.580997 80.1578497,145.048834 80.4520815,145.810902 C80.60205,146.193974 80.6289466,146.696858 81.0315796,146.90714 C81.8458111,147.329334 82.1245571,146.250212 82.7382872,146.347203 C83.2696975,146.428708 83.6079419,147.044068 84.1320168,147.219303 C84.5656216,147.364381 84.8386622,147.951215 84.4996028,148.22018 L83.4033652,148.441873 L84.0619228,149.646512 L85.2681918,149.428079 L86.3652445,149.646512 C86.7548367,149.996982 87.1501343,150.493345 87.6440526,150.690586 C88.2520773,150.932655 89.0076255,150.816918 89.6474371,150.815288 C90.6393488,150.815288 91.2416682,150.196668 92.0510095,149.731276 C92.7992223,150.40369 92.7144574,150.906574 91.7184705,151.082624 C92.2449906,151.368705 92.8921376,151.589583 93.3069963,152.037858 C93.9541433,152.736353 93.5319491,153.577481 92.8187834,154.033092 C90.5790353,155.461054 91.8692541,151.845507 90.4836749,152.06394 C89.9644902,152.145444 89.6914496,153.097419 89.1005408,152.902623 C88.578096,152.732278 88.5389737,151.801495 88.142046,151.457545 C87.4696326,150.878862 86.1150252,150.977483 85.3211698,151.155978 C84.7164052,151.293721 84.2550889,151.636855 83.8565311,152.094911 C83.3838041,152.636102 82.9012965,153.011839 82.3454347,153.465005 C79.9002949,155.461054 83.7831769,154.968766 83.6234278,155.346132 C83.4490078,155.765066 83.1490706,156.200301 83.3389765,156.634721 C83.6527694,157.347887 84.5110135,157.677166 85.167941,157.978733 C85.3366557,157.854031 85.4915145,157.716288 85.6969063,157.669015 C85.6235521,157.684501 86.9251815,160.059547 87.0417331,160.220926 C87.1729556,160.401051 88.9147102,162.191709 88.9921396,162.036035 C88.7769673,162.362053 88.4069362,162.729639 88.3971556,163.130642 C88.3873751,163.502304 88.7174689,164.101363 89.050823,164.275783 C90.8928283,165.244873 93.651761,164.844685 95.5076221,164.143745 C96.3756467,163.816912 96.7261167,163.173025 97.4123859,162.640799 C97.9429813,162.230016 99.4271811,163.167319 99.5217265,162.144436 C99.5217265,162.144436 99.7426041,159.85497 99.7426041,159.843559 C99.7352687,159.40914 98.6830436,159.565629 98.6251753,159.033403 C98.5762725,158.579422 99.2201593,158.079799 99.5258018,157.824689 C99.7548298,157.634783 100.485112,156.931398 100.63834,157.429391 C100.696209,157.622557 100.401162,158.044752 100.349814,158.230582 C100.109375,159.091271 100.527494,159.505315 100.965174,160.183434 C101.24229,160.609703 101.222729,160.962618 101.219469,161.456537 C101.209688,162.538103 102.055706,163.382492 102.152697,164.446127 C102.445299,165.09735 102.740345,165.746127 103.030502,166.395719 C103.331254,167.066502 104.29953,168.456157 103.942539,169.142426 C103.545612,169.902049 103.053323,170.61114 102.600973,171.338976 C102.325487,171.779102 101.966866,172.292581 102.12743,172.839477 C102.46323,173.975652 103.733887,174.297596 104.456834,175.097156 C104.160157,175.235714 103.501599,175.389758 103.363856,175.725557 C103.121787,176.330322 103.69558,176.942422 103.780345,177.52355 C103.87489,178.166622 102.675957,180.289818 103.053323,180.661479 C103.323104,180.928815 103.670314,181.347749 104.082727,181.361604 C104.544044,181.374645 104.882288,180.898658 105.188745,180.617467 C105.602789,180.237655 107.147302,178.552139 107.71376,178.279098 C108.784731,177.759914 110.017081,177.43634 110.899777,176.603362 C111.337457,176.192579 112.012315,175.133018 112.711625,175.369382 C113.472879,175.624491 113.980653,176.671826 114.472941,177.248064 C115.023098,177.899286 115.653944,178.425807 116.530119,178.519537 C117.516325,178.623863 118.624788,178.460039 119.496073,179.026496 C120.126104,179.438094 120.373878,180.157781 120.691747,180.810633 C121.187295,181.827811 122.735883,185.004048 124.016322,182.881666 C124.467857,182.135084 123.601463,181.146432 123.449864,180.40637 C123.20209,179.200916 123.789739,178.119349 124.440961,177.158409 C124.853375,176.551199 125.029425,175.291137 125.658641,174.914586 C125.897449,174.770323 126.622026,175.024617 126.738577,175.272391 C126.935819,175.689695 125.921086,176.081733 125.730365,176.463989 C125.55839,176.810384 125.240522,178.05007 125.430427,178.414396 C125.682277,178.897719 126.358766,179.041982 126.657073,179.619035 C127.602527,181.45615 128.995441,180.302044 130.260394,179.514709 C131.463402,178.763236 132.784593,178.22286 134.057696,177.60424 C134.365783,177.457531 135.346284,177.690635 135.70246,177.712641 C136.279513,179.147123 135.622585,179.100665 134.619263,179.949129 C132.809859,181.483861 131.480518,183.591572 132.850612,185.830505 C132.486286,186.466241 132.016004,187.105238 131.852995,187.828184 C131.548982,189.170566 131.843214,190.600973 131.599515,191.972696 C131.368857,193.26699 130.928732,194.57677 130.059077,195.591503 C128.946538,196.884982 127.509611,197.854887 126.378327,199.132065 C125.141901,200.532315 124.849299,201.883662 124.849299,203.701216 C124.721337,203.916389 124.548547,204.402156 124.352936,204.536639 C123.700899,204.9841 123.1051,203.829179 122.334881,204.367924 C121.592373,204.888739 121.53043,205.797516 120.66322,206.235196 C119.527045,206.812249 118.30855,207.227108 117.170745,207.808236 C116.427423,208.188863 113.587801,210.660899 112.97081,211.54767 C112.316328,212.494754 111.947927,213.624409 111.763726,214.752433 C111.57056,215.939141 112.510309,216.390677 113.447613,216.857698 C113.705167,216.985661 113.502221,217.631178 113.327801,217.755065 C112.549431,218.313372 109.149057,217.728168 108.724418,217.293748 C108.222349,216.782714 108.470938,216.193435 108.365797,215.57726 C107.856393,215.56911 107.372255,215.485975 106.864481,215.410991 C103.892821,214.972496 100.641601,217.340206 98.7800341,219.428355 C98.2934513,219.976882 97.6715708,220.486286 97.3903797,221.17663 C97.1295648,221.827037 97.0676212,222.534498 96.5133896,223.024341 C96.0561484,223.427789 95.4318227,223.584278 94.8800362,223.805156 C94.1016667,224.117318 94.0910711,224.519951 93.9207264,225.279575 C94.0160868,224.85412 92.1488151,225.161393 91.9540189,225.268164 C90.7208535,225.947913 91.3036118,227.313931 90.9083142,228.387347 C90.7265588,228.879636 90.6719507,229.375184 90.6409789,229.904149 C91.5399753,229.334432 92.1235486,228.834808 92.8367144,228.042583 C92.4332663,227.752426 92.900288,226.226659 93.3982815,226.852615 C93.8237358,227.387285 93.9582185,227.821705 94.1530146,228.484338 C94.8678105,228.266721 95.6160233,228.038507 96.3430448,227.81763 C96.0406625,227.058006 95.9069949,226.825718 96.0887503,226.054684 C96.259095,225.326032 95.9705685,225.082334 95.5736408,224.422961 C95.9395968,224.239575 96.3039226,224.055375 96.6698785,223.870359 C96.7962107,224.616942 96.8817906,225.448289 97.1018532,226.167976 C97.4180913,227.199825 97.640599,227.329417 98.6463665,227.600827 C99.4092501,226.838759 100.005864,226.364402 100.952133,225.849292 C100.877964,225.483336 100.80298,225.116565 100.728811,224.748979 C101.830754,224.161331 102.56348,223.656002 102.865863,222.39268 C103.125047,221.303778 103.574953,219.653308 104.958087,219.897007 C105.527805,219.998888 106.087742,220.500142 106.227115,221.064154 C106.208369,220.982649 105.392507,220.953308 105.287366,220.991615 C105.049372,221.08127 104.950752,221.26384 104.863542,221.493683 C104.566865,222.281018 104.983354,223.183275 105.834262,223.322648 C106.601221,223.45061 107.228807,222.947727 107.749622,222.455438 C107.957459,222.259012 108.196267,221.895501 108.488054,221.813182 C108.831189,221.718636 109.218336,221.981896 109.545985,222.04873 C110.60799,222.261457 110.616956,221.26547 111.21031,220.705533 C111.316266,220.812304 111.871312,221.761019 111.802849,221.904467 C112.016391,221.457006 112.248679,221.016066 112.441845,220.560455 C112.558397,220.289045 112.624415,219.820393 112.877895,219.640267 C113.4036,219.266161 114.172189,219.649233 114.741907,219.176506 C115.150245,218.837447 115.363787,218.336193 115.722408,217.952306 C116.102219,217.549673 116.597768,217.255441 117.067234,216.964469 C117.198457,216.884595 117.593755,217.083466 117.711936,217.130739 C118.060776,217.270112 118.097453,217.23914 118.117014,217.634438 C118.159397,218.510613 118.128425,219.889672 117.725792,220.695753 C118.059146,220.02986 118.769867,219.785346 118.99645,218.990675 C119.199396,218.278325 119.352625,217.592055 119.953314,217.106288 C120.614317,216.568357 121.427734,216.328733 122.268862,216.309172 C122.85325,216.298576 123.159708,215.886978 123.545225,215.511241 C124.07093,215.000207 124.548547,214.689674 124.960146,214.062089 C125.319581,213.508672 125.670051,212.995193 126.35469,212.833813 C126.126477,213.436133 125.868108,214.068609 126.17049,214.694565 C126.381587,215.133875 126.658703,215.027104 127.04585,214.887731 C127.406915,214.754878 127.235756,212.617011 127.239831,212.310553 C127.243906,211.882654 127.776947,211.509363 127.699517,211.093689 C127.619643,210.671495 127.110239,210.493815 126.734502,210.475884 C126.776884,210.478329 127.30748,208.908549 127.367793,208.756135 C127.39143,208.695822 128.185285,208.889803 128.27657,208.893063 C128.584658,208.906919 128.816946,208.818079 129.094062,208.691747 C129.75262,208.39344 130.350049,207.978581 130.99312,207.645227 C130.649986,207.463471 130.257948,207.26623 129.967792,207.013566 C130.368795,206.796763 130.649986,206.433253 130.977635,206.126795 C131.038763,206.068112 131.936129,206.658205 132.046161,206.688362 C132.540894,206.83181 132.854687,206.610933 133.127727,206.2083 C133.421959,205.774695 133.52873,205.278332 133.567038,204.762407 C133.60453,204.282345 133.541771,203.931875 134.085407,203.838959 C134.584216,203.750934 135.294121,203.778646 135.787224,203.895197 C135.708165,203.810433 135.682899,203.680025 135.61851,203.584665 C135.611174,203.573254 137.787349,202.395512 138.229104,202.604979 C138.699386,202.067863 139.199825,201.554384 139.685592,201.031124 C140.102081,200.583663 141.14045,200.054698 140.936689,199.311375 C140.829103,198.917708 140.477818,198.741658 140.522645,198.303978 C140.562582,197.90053 140.884526,197.625044 141.0402,197.274574 C141.04835,197.255828 140.121642,197.119715 140.045843,197.098524 C140.923648,195.701534 142.327973,194.734889 143.709477,193.889686 C144.953238,193.130877 145.852235,191.813762 147.289977,191.382602 C148.113174,191.134828 147.908597,190.73464 148.321011,190.116835 C148.484835,189.868246 148.770102,189.720722 148.964083,189.50066 C149.44822,188.944798 149.380571,188.130566 149.933988,187.605676 C150.67405,186.907996 152.034363,186.117401 153.026275,185.897339 C154.318939,185.607997 155.704518,184.938029 155.111979,183.324237 C154.983202,182.971321 154.921258,182.917528 155.049221,182.550757 C155.270098,181.921541 155.343452,181.083674 155.741195,180.545743 C156.44784,179.586433 157.086837,178.971888 158.09831,178.358158 C159.316804,177.620541 159.85555,176.600917 160.591537,175.411764 C160.63881,175.33841 159.796052,174.349759 159.699061,174.29189 C159.458623,174.145182 159.153795,174.113395 158.901946,173.987878 C158.165959,173.621107 157.763326,173.088882 156.879,173.07095 C156.058248,173.055465 155.157622,173.445057 154.358061,173.342361 C153.543829,173.238035 153.919566,172.583553 154.150224,172.094525 C154.563453,171.214274 154.138813,170.211767 154.746838,169.3902 C155.201634,168.7781 156.442135,168.51484 156.743702,167.906 C156.989846,167.413712 156.453546,166.656534 156.729032,166.139794 C157.151226,165.349199 158.311852,165.684998 159.042134,165.526879 C160.171788,165.279105 160.526334,164.512146 160.605393,163.44036 C160.695048,162.21942 161.025957,162.001803 162.089593,161.454907 C163.356175,160.806129 163.422194,159.974782 162.99185,158.700049 C162.558245,157.421241 162.870408,157.281868 163.848463,156.509204 C164.900689,155.677041 164.474419,154.883186 164.497241,153.73071 C164.520877,152.464943 165.599999,151.699614 166.185202,150.675915 C166.899998,149.419929 167.043446,147.970776 168.118493,146.918551 C168.872411,146.180118 169.879808,145.754664 170.623946,145.004821 C171.333036,144.28758 171.686767,143.41385 172.537675,142.805826 C172.990841,142.479807 173.522251,141.945951 174.060182,141.909274 C175.447392,141.809839 177.356231,141.245826 178.185133,140.055043 C178.57391,139.500812 178.75322,138.878116 179.423189,138.570843 C179.983126,138.314919 180.638423,138.543947 181.182059,138.261941 C180.136355,139.066392 179.175415,140.0852 178.508706,141.22871 C178.30576,141.57755 177.560807,142.683569 177.675729,143.046264 C177.867265,143.654289 180.368643,143.029963 180.924505,143.029963 C181.442059,143.034039 181.81372,143.038114 182.150335,143.472534 C182.438046,143.844195 182.777105,144.764382 182.415225,145.099367 C182.125883,145.365887 181.059802,145.420495 180.658799,145.436796 C180.208079,145.453912 179.802185,145.290088 179.343314,145.394413 C178.864882,145.50037 178.442688,145.814162 177.986262,145.982877 C177.094601,146.316231 176.408331,145.695981 175.624257,145.417235 C174.0178,144.843442 173.000622,147.534726 172.091845,148.340807 C171.566955,148.803753 170.154479,149.055603 169.951532,149.757358 C169.720874,150.560994 170.663883,151.407827 170.887206,152.124253 C171.247456,153.28488 170.606015,154.456916 170.623946,155.619988 C170.632911,156.299737 170.44219,156.549141 170.096611,157.161241 C169.641,157.973843 169.151972,158.72287 168.902567,159.631647 C168.565953,160.865628 168.110342,162.287884 169.085138,163.306692 C169.955608,164.217099 171.247456,163.96362 172.091845,163.134718 C172.534415,162.701113 173.149775,162.247132 173.778991,162.213715 C173.769211,162.21616 173.090277,163.748448 172.935418,163.967695 C172.550716,164.503996 171.905199,164.794967 171.549839,165.337788 C171.447143,165.495907 171.486265,165.781174 171.359933,165.951519 C171.099933,166.299543 170.555482,166.345186 170.16589,166.540797 C168.412724,167.420232 167.843822,168.956595 169.723319,170.056908 C171.297174,170.978726 171.91824,168.803367 173.265512,168.522175 C174.298991,168.309448 175.068395,168.731642 175.790526,167.739731 C176.406701,166.895342 176.361874,165.826001 177.106011,164.980798 C177.801246,164.190203 178.740995,163.777789 179.030336,162.677476 C178.996919,163.213777 179.064568,163.741112 179.299302,164.217099 C179.874725,163.109451 180.838925,162.189263 180.66532,160.844437 C181.19184,161.000926 181.668642,161.331019 182.135664,161.621176 C182.187012,160.722995 183.524503,157.669015 184.037983,156.468451 C184.388453,156.950144 184.628891,157.514971 184.975286,158.000739 C185.521367,156.913467 186.295662,157.301429 187.254156,157.31284 C188.416413,157.331586 189.005692,157.033279 189.714782,156.109016 C190.229076,155.437418 192.045,152.504065 189.929954,152.845569 C190.586067,152.217168 192.423182,150.353972 191.696975,149.331089 C191.008261,148.366073 188.673968,149.534035 187.85077,149.833972 C188.418043,149.241433 191.066944,147.457296 189.360237,146.676482 C189.207008,146.920996 188.828011,147.07993 188.673968,147.326889 C188.360175,146.690338 188.523184,145.265636 188.908701,144.471781 C189.312149,143.646139 188.937228,142.119556 187.908639,143.278553 C187.898858,142.111406 190.445064,141.963067 190.716474,143.0536 C190.938982,143.956671 191.849389,144.760307 192.413401,143.564634 C192.552774,143.731718 192.853526,143.875167 192.970893,144.074853 C192.977414,143.169336 193.852774,142.607769 193.913087,142.4415 C194.148635,142.650967 194.584685,142.731656 194.819419,142.946829 C195.416033,141.995669 196.496785,142.054353 197.368885,141.514792 C198.391768,140.885576 199.359228,138.558618 200.815717,139.755921 C199.461924,140.0852 197.502552,140.998052 198.636282,142.659932 C199.879228,144.487267 201.180042,142.214917 202.594148,142.742252 C201.633208,143.506766 200.219102,143.902063 199.812394,145.198802 C200.908632,145.002376 202.17929,144.241123 202.971515,143.481499 C202.951139,144.086264 202.784054,144.702439 202.677283,145.283567 C203.696906,144.973034 204.674962,144.834476 205.744303,145.033348 C205.59678,145.006451 205.59189,146.409146 205.658723,146.56319 C205.872266,147.052218 206.226811,147.251905 206.704428,147.434475 C207.60424,147.77761 209.09007,147.555917 209.779599,146.843566 C210.544113,146.057046 210.785366,146.636544 211.420288,147.215228 C212.532011,148.230776 213.924111,148.150901 215.272198,148.586951 C216.872949,149.103691 218.112635,150.388204 219.919594,149.970085 C221.359781,149.639176 222.57583,148.726324 223.864419,148.048205 C227.534574,146.12225 231.763036,146.849272 235.639397,147.60645 C238.340462,148.133785 241.147482,147.6146 243.830615,148.256857 C247.642588,149.17623 256.228289,151.395602 256.85832,151.578172 C258.472112,152.042749 259.548789,152.784441 260.825967,153.830961 C261.92465,154.734032 263.170856,155.574345 264.602078,154.832653 C264.315181,155.189643 263.970417,155.512402 263.710417,155.882433 C263.887282,155.630584 268.871292,157.277793 269.326903,157.413906 C269.940633,157.599736 271.227591,157.801053 271.560945,158.409077 C271.99292,157.680426 272.281447,156.167699 271.735365,155.454534 C272.446086,155.677041 273.331227,156.390207 274.112041,155.898734 C274.834988,155.444753 274.610035,154.549832 274.25712,153.953218 C273.466524,152.606761 272.42734,151.8993 271.03361,152.783626 C271.067027,152.438046 271.164018,152.101432 271.194174,151.759112 C270.860005,151.733031 270.446777,151.752592 270.14847,151.565946 C269.838752,151.37278 269.786589,150.869081 269.507028,150.704442 C268.476809,150.098047 267.285211,150.973407 266.262328,151.125006 C266.455494,150.465633 266.523958,149.850273 266.12214,149.249584 C266.942076,149.524255 267.719631,149.484317 268.561574,149.587013 C269.390476,149.688894 269.940633,150.158361 270.710037,150.384944 C272.578124,150.93836 272.295302,149.149333 271.738626,148.038425 C272.411039,147.960995 273.201634,147.959365 273.858562,148.149271 C273.085898,147.924318 273.277434,149.923627 273.412731,150.202373 C273.798248,151.002749 274.591289,151.512153 274.88552,152.376103 C275.024893,152.781996 275.012668,153.742121 275.435677,153.984189 C276.289846,154.472402 277.355927,152.872466 278.426898,153.304441 C279.058559,153.55792 280.669906,155.468389 281.435235,154.425945 C281.858244,153.848077 280.810094,152.765695 280.538684,152.283187 C280.087148,151.481181 276.646836,146.955228 275.595426,145.128708 C275.158561,144.367455 274.784455,143.57686 274.369596,142.828647 C273.846336,141.891343 274.213107,141.106453 274.099001,140.084385 C274.44621,142.213287 275.790222,143.077236 276.936993,144.788834 C277.807463,146.089648 278.256553,147.617861 279.973041,147.699365 C279.922508,148.66438 280.246082,149.065383 280.987774,149.62695 C281.648777,150.128204 282.243761,151.018235 282.898244,151.435539 C283.53398,151.838172 284.732913,151.779488 285.46727,151.891965 C286.389088,152.032968 286.913978,151.988955 287.607583,151.318987 C288.468272,152.124253 288.977676,154.07303 290.380371,154.090961 C290.412158,153.945067 290.560496,153.773092 290.580058,153.629644 C290.946829,154.203437 290.950089,154.832653 291.618427,155.158672 C292.226452,155.454534 293.013787,155.355913 293.668269,155.642809 C294.958488,156.210082 296.735289,156.576853 297.675038,157.686131 C296.510337,157.045504 294.746576,156.580113 293.476733,157.167761 C293.669899,157.940426 294.37573,158.54193 295.017986,158.961679 C295.345635,159.176851 295.778425,159.290143 296.083252,159.517541 C296.639929,159.931584 296.508706,159.843559 296.5625,160.604813 C297.221057,160.741741 297.938298,160.357854 298.585445,160.238042 C298.091527,160.606443 295.908017,162.192524 296.634224,162.896724 C296.952092,163.203181 298.823439,162.934216 299.271714,162.960298 C300.32557,163.016536 301.11372,162.987194 301.936917,162.256912 C302.792716,164.248886 303.372214,165.810515 305.892338,164.779482 C305.783122,165.248133 305.608702,166.000421 305.908639,166.438916 C306.400927,167.158603 306.7245,166.491894 307.365127,166.199293 C308.03754,167.316722 308.828136,168.390953 310.191709,168.679479 C310.534843,168.751204 310.929326,168.620796 311.25779,168.7781 C311.526755,168.908508 311.610705,169.237786 311.857664,169.371454 C312.556159,169.743115 313.319042,169.38857 314.05666,169.488821 C311.472962,170.428569 313.353274,172.312142 313.214716,174.28374 C313.134842,175.403614 312.199168,176.271638 313.035406,177.291262 C313.764873,178.176402 314.75597,178.517092 315.698163,177.817782 C315.399856,177.43797 315.015969,177.118472 314.692396,176.756591 C315.035531,176.831575 315.370515,176.963613 315.713649,177.023926 C315.698163,176.264303 315.605248,175.432956 315.2939,174.735276 C314.814653,173.664304 314.667129,173.524931 315.494402,172.547691 C316.07227,171.866312 316.708821,171.552519 317.348633,171.006437 C317.950952,170.490513 318.342175,169.582551 318.687754,168.882426 C318.34625,171.14581 320.297471,171.426186 321.556718,172.827252 C322.916216,174.334273 322.901545,176.489256 324.902485,177.384177 C323.982297,177.814522 323.191702,178.742045 323.695401,179.843988 C323.920353,180.341166 324.464804,180.555523 324.798159,180.990758 C325.041857,181.311072 326.760791,184.738342 327.315837,183.099284 C327.478847,182.618406 327.024051,181.654206 326.858596,181.19289 C327.3517,181.845742 328.038784,182.483109 328.333831,183.250067 C329.569441,180.898658 330.638782,177.789255 329.639535,175.190887 Z M169.145451,182.540977 L169.036235,181.332263 L167.939997,181.007059 L166.84213,181.111385 L165.748337,180.127624 L164.652914,180.564489 L164.870532,182.871071 L163.666708,182.757779 L162.57047,182.978657 L163.666708,183.857277 L162.57047,183.857277 L162.242822,185.059471 L161.583449,184.841038 L161.583449,185.497151 L162.787273,186.375771 L163.883511,186.264925 L163.335799,185.830505 L164.652914,186.375771 L164.979748,185.278718 L166.076801,184.514205 L166.296863,183.414707 L166.403635,184.514205 L167.500687,184.404988 L168.050844,183.197904 L169.145451,183.742355 L170.133288,182.540977 L170.023256,181.332263 L169.145451,182.540977 Z M55.2435055,244.056618 C55.1774868,243.530098 54.4162332,243.371164 54.0193056,243.173108 C53.2808733,242.807152 52.3003723,243.115239 51.6393695,243.513797 C50.8357336,244.00038 50.5504673,244.61085 50.2953577,245.477244 C50.2953577,245.477244 50.4021288,246.565332 50.4021288,246.567777 C50.4021288,246.567777 49.2626937,246.616679 49.0996843,246.61831 C48.1762366,246.635426 47.4785567,246.887275 47.0710334,247.783826 C46.8501558,248.272039 46.9919739,248.824641 46.7376793,249.308778 C46.4964255,249.766019 45.5542317,250.934796 45,251 C45.7213162,250.913605 46.6341684,250.502007 47.2731649,250.13279 C47.6195597,249.931474 47.9080862,249.629092 48.2667067,249.450596 C48.917929,249.127838 49.4713456,249.183261 49.9913453,248.602133 C50.4542918,248.081318 50.7485236,247.245895 51.3883352,246.911726 C51.9596828,246.614234 52.5660775,246.633795 53.1431305,246.275175 C53.8856379,245.816304 55.3845086,245.173232 55.2435055,244.056618 Z M65.2873246,242.530036 C65.1552871,242.301008 65.3060707,241.878814 65.3875754,241.627779 C65.5766662,241.045836 66.1969166,241.010789 66.6427471,240.714927 C66.8888912,240.550288 67.4194865,240.294363 67.5303329,240.008282 C67.65585,239.678188 67.2687029,239.031041 66.9043771,238.984583 C66.5400513,238.93405 66.3908977,239.438564 66.16839,239.641511 C65.7999889,239.976495 65.3313372,239.827341 64.8895819,239.775178 C64.9205537,239.468721 65.2261961,238.981323 65.048516,238.676496 C64.7387983,238.14753 63.5895826,238.330101 63.1087051,238.430352 C62.2781726,238.599066 60.9178599,239.163078 60.8021233,240.15336 C60.6855716,241.140381 61.952969,241.069472 62.4754139,241.515303 C62.4362917,241.483516 61.8380475,241.851917 61.7997403,241.878814 C61.2993017,242.235804 61.7043798,242.716682 61.4737217,243.214675 C60.7165434,244.839878 58.627579,245.446273 57.019492,245.632103 C56.5141632,245.689971 54.3192427,245.839125 55.0984272,246.822886 C55.3437563,247.137494 56.0976744,247.218184 56.4538497,247.126899 C57.5044448,246.862008 58.5697107,246.616679 59.5714029,246.1953 C60.4630639,245.819564 61.2935964,245.259627 62.2740974,245.13737 C62.8609309,245.065646 63.4982974,245.156931 64.0386733,244.868405 C64.6067607,244.564392 64.6996761,244.018311 64.9824972,243.495051 C65.2962902,242.915553 66.7006154,243.045145 67.2605524,242.940819 C66.9891419,242.710161 66.7568536,242.185271 66.4104588,242.071165 C65.9067601,241.906525 65.695663,242.353171 65.2873246,242.530036 Z M67.7585459,242.450976 C67.8400506,242.464832 67.9215552,242.454237 67.9989846,242.410224 C68.4578559,242.146149 67.9753483,241.402011 68.2948466,241.03198 C67.987574,241.102074 67.5262576,241.222701 67.3070101,241.457435 C67.0380447,241.746776 67.3811793,242.380882 67.7585459,242.450976 Z M70.0292657,236.264773 C69.5426829,236.802703 68.4578559,237.907092 69.6576045,238.478439 C70.5313344,238.895743 71.7107068,238.268157 72.2592332,237.577813 C72.0538414,237.444145 70.0276356,236.266403 70.0292657,236.264773 Z M72.8403614,236.802703 C72.8599225,237.287656 72.9642485,237.892421 73.3791072,237.660132 C73.4532764,237.62101 73.9928373,236.725274 73.9740912,236.705713 C73.6325867,236.365023 73.3016778,236.008848 72.9446873,235.683645 C72.9120855,235.878441 72.8582924,236.122955 72.8460667,236.334867 C72.8403614,236.431042 72.833026,236.607907 72.8403614,236.802703 Z M75.0874448,238.83706 C75.1901407,238.725398 75.1713946,238.511856 75.1844354,238.345587 C75.159984,238.476809 74.5332131,238.464583 74.4402978,238.473549 C74.5397335,238.463768 74.6929623,238.916934 74.897539,238.910414 C74.9871941,238.907154 75.0475075,238.879442 75.0874448,238.83706 Z M91.1837999,230.442895 C90.9278753,230.314933 90.6801011,230.173115 90.4942705,229.939196 C89.6417318,228.86741 90.0190983,227.503837 88.5675004,226.880326 C87.3726421,226.368477 86.0286302,227.166408 84.9372829,227.600827 L83.7342741,228.370231 L82.6355913,227.930106 C82.1245571,228.239824 81.6493849,228.487598 81.3380371,229.015748 C80.8049967,229.91393 80.6729591,230.735497 79.6639314,231.239195 C79.0828032,231.529352 78.6255621,231.855371 78.5302016,232.518004 C78.4046844,233.401514 78.7421137,234.199445 79.5881321,234.532799 C80.3436803,234.831106 81.7577861,234.765087 82.3625507,234.137501 C82.6567825,233.831859 82.7757793,233.401514 83.0349641,233.072235 C83.627503,232.319947 84.5558411,232.02001 85.4841791,231.994744 C86.4915767,231.967847 87.4557768,232.36233 88.4419832,232.336248 C88.7680018,232.325653 89.0190362,232.166718 89.3197884,232.049352 C89.9514495,231.800763 89.8756501,231.419321 90.0924525,230.781954 C90.4592235,231.037879 90.8251794,231.293804 91.1911353,231.548913 C91.4429847,231.725778 91.9279374,231.893678 92.2254295,231.92954 C92.3827334,231.948286 92.1659311,231.140575 92.095837,231.053365 C91.8619187,230.755873 91.5163389,230.610795 91.1837999,230.442895 Z M94.2597857,234.179884 L94.6974658,235.388598 C94.6974658,235.388598 95.7619166,235.920008 95.7945185,235.937939 C95.7268696,235.904522 95.8931391,234.858002 95.9053648,234.724335 C95.9208507,234.559695 94.4692527,234.222266 94.2597857,234.179884 Z M97.7514453,229.425717 C97.9568371,229.642519 98.6773383,229.414306 98.8093758,229.177943 C98.8517582,229.102143 98.9389682,228.259385 98.9740152,228.259385 C98.5493759,228.259385 98.1524482,228.106156 97.9046741,228.487598 C97.7995331,228.650607 97.6137025,229.232551 97.7514453,229.425717 Z M109.609558,180.894583 L110.159715,179.798345 L110.374887,178.701292 L109.167803,179.247374 L108.077271,180.346056 L108.509245,181.54988 L109.609558,180.894583 Z M111.583601,222.995814 C111.216015,223.298197 110.832128,223.717946 110.409934,223.924967 C110.42542,223.920077 110.471877,222.993369 110.475953,222.904529 C110.224103,222.947727 109.970624,223.035752 109.720404,223.105846 C109.470185,223.17757 109.334887,224.528102 109.330812,224.826409 C109.321032,225.399387 109.458775,225.957694 109.609558,226.50785 L111.802849,225.298321 L111.254322,224.203713 L111.583601,222.995814 Z M113.115889,224.640578 L113.115889,223.328353 L112.022096,224.311299 L113.115889,224.640578 Z M114.776954,226.077505 C114.472941,226.374182 114.464791,227.168038 114.414258,227.551925 C114.331123,228.186031 114.287111,228.825027 114.120026,229.445278 C114.614759,228.795686 115.32711,228.015686 115.642533,227.271549 L116.29783,225.738446 L116.29783,224.640578 C116.131561,224.919324 115.978332,225.213556 115.794132,225.483336 C115.507235,225.907161 115.127424,225.736816 114.776954,226.077505 Z M153.680757,206.55877 C153.733735,206.919835 153.759002,207.287421 153.795679,207.649302 C153.781823,207.505854 154.745208,206.889679 154.894362,206.769867 C155.03781,206.409616 155.230976,206.037955 155.319001,205.665479 C155.345897,205.549742 154.613171,205.803222 154.561008,205.828488 C154.206462,206.002908 153.966839,206.281654 153.680757,206.55877 Z M156.442135,205.636137 C156.328029,205.746983 156.236743,205.86272 156.186211,205.95971 C155.769722,206.783723 156.96458,206.521278 157.414486,206.440588 C157.507401,206.123535 157.902699,205.454382 157.514736,205.259585 C157.195238,205.095761 156.740442,205.350056 156.442135,205.636137 Z M162.347148,188.89997 L161.583449,187.801287 L160.483136,187.14436 L160.045456,187.801287 L161.141694,188.570691 L162.347148,188.89997 Z M167.500687,189.666929 L168.159245,188.570691 L167.391471,187.365238 L166.296863,187.034329 L165.748337,188.243043 L164.870532,189.33602 L164.100313,187.14436 L163.00815,187.256836 L161.907023,186.70668 L162.677242,187.801287 L162.459624,188.89997 L162.57047,190.102979 L161.469343,189.116773 L161.801066,190.325487 L160.591537,189.77533 L160.37718,190.979969 L160.045456,189.77533 L159.278497,188.570691 L158.18389,188.679093 L157.414486,189.77533 L157.856241,190.869938 L159.05925,191.092446 L158.400692,192.188683 L159.501005,192.843981 L158.400692,192.406301 L158.729971,194.816393 L159.384453,195.916706 L158.291476,194.816393 L157.856241,193.724231 L156.757558,193.175705 L157.197683,192.077022 L156.09574,191.749373 L154.894362,191.968621 L152.809472,194.05351 L152.040069,196.2468 L153.140381,197.011314 L153.906525,198.109997 L154.126588,199.204604 L154.126588,200.410873 L155.332042,200.9594 L155.878938,202.056452 L156.757558,200.9594 L157.085207,198.656078 L155.878938,198.764479 L154.78596,199.643914 L155.112794,198.543602 L156.209032,198.330874 L157.306085,198.438461 L157.085207,199.643914 L158.18389,199.094573 L159.167651,197.99752 L158.18389,200.189181 L159.278497,200.081594 L157.522887,202.384101 L157.085207,203.482784 L158.291476,203.482784 L159.938685,201.287048 L161.031662,200.189181 L159.938685,199.204604 L161.031662,198.876956 L161.141694,197.672317 L162.021944,197.672317 L163.114922,196.682035 L164.214419,196.576079 L163.224953,195.479026 L164.432037,195.037271 L165.528275,195.479026 L166.621252,195.585797 L167.175484,194.49119 L166.076801,193.394952 L164.979748,193.284106 L166.076801,192.627178 L167.175484,193.284106 L168.380123,193.284106 L169.804009,191.092446 L168.603445,190.65232 L167.500687,189.666929 Z M163.446646,197.232192 L162.347148,197.780718 L162.242822,198.876956 L163.335799,199.314636 L164.322006,198.109997 L165.419873,197.55984 L164.542068,197.232192 L163.446646,197.232192 Z M167.175484,178.263612 L166.84213,177.712641 L165.748337,178.590446 L165.528275,179.689129 L166.621252,179.362295 L167.175484,178.263612 Z M281.727837,164.287193 C281.497178,163.838103 281.039937,163.558542 280.655235,163.245564 C280.39116,162.913025 280.074922,162.582116 279.901317,162.213715 C280.937241,162.082492 282.22094,162.684812 283.212036,162.987194 C284.736989,163.450141 287.141376,164.250516 286.157615,161.710831 C285.412662,159.788951 284.341691,159.828074 282.75724,160.941427 C282.514357,160.835471 282.052225,160.687133 281.893291,160.447509 C281.848463,160.38149 281.648777,159.814218 281.753103,159.844374 C282.775987,160.149202 282.950406,160.087258 283.944763,159.746569 C283.872224,159.76939 282.937366,158.72287 282.850156,158.63566 C283.210406,158.598983 283.573102,158.560676 283.932538,158.53704 C284.376738,158.508513 283.144388,156.433404 282.767021,156.267135 C281.755548,155.821304 280.728589,156.607824 279.6837,156.539361 C279.387838,157.744814 279.616866,158.819861 278.134296,158.525629 C278.36903,158.572087 279.303073,157.016163 279.321819,156.805066 C279.406584,155.906069 278.395926,155.768326 277.653419,155.747135 C276.770723,155.720239 276.882385,156.228013 276.291476,156.642871 C275.93204,156.897981 275.399815,156.911837 274.954799,156.990896 L275.171602,158.19961 C275.171602,158.19961 273.976744,157.435912 273.969408,157.430206 C274.443765,157.735034 274.35248,160.568136 274.652417,161.214468 C275.164266,162.307445 275.873357,162.508762 276.768278,163.147758 C277.194547,163.454216 277.442322,163.911457 277.715362,164.345877 C278.726835,163.96199 278.80508,163.931018 279.406584,164.785187 C279.69022,165.18619 279.915173,165.762428 280.251787,166.104747 C281.629216,167.507442 282.243761,165.651581 281.792225,164.429012 C281.772664,164.380109 281.751473,164.334466 281.727837,164.287193 Z M281.859874,167.081173 L280.876928,167.299606 L282.522507,169.491266 L282.297554,170.697535 L283.397867,170.916782 L283.835547,169.712144 L282.960187,167.518853 L281.859874,167.081173 Z M291.148145,157.66494 C291.483129,157.940426 291.84338,158.1882 292.241938,158.382181 C291.176672,156.423624 289.193663,154.78212 287.770592,153.078673 C287.604323,152.879801 284.723133,154.046133 284.384073,154.251525 C284.508776,154.178171 282.657805,152.539112 282.315485,152.526071 C282.189153,152.875726 282.185893,153.324002 282.373354,153.658171 C282.582005,154.030647 283.18677,154.375412 283.492412,154.722622 C283.940688,155.230396 288.183821,161.95453 288.335419,161.819232 C288.6973,161.492399 289.557174,162.811144 289.612597,162.934216 C289.801688,163.337664 289.855481,163.759858 289.900309,164.194278 C290.006265,165.259544 289.822064,166.403054 290.353475,167.386816 C290.506703,167.672082 292.234602,165.301926 292.321812,165.077789 C292.713035,164.041049 292.528834,163.00431 291.546703,162.383245 C292.077298,162.718229 292.919241,162.785878 293.228144,162.140361 C293.660934,161.238104 292.678803,161.449201 292.387016,160.784123 C292.046326,159.997603 291.954226,159.230644 291.341311,158.575347 C290.589023,157.775786 289.505011,157.421241 288.721751,156.663248 C287.997175,155.962308 287.460874,155.117919 287.139746,154.158609 C287.801564,154.684314 288.51799,154.991587 289.113789,155.610207 C289.780497,156.298107 290.405638,157.056915 291.148145,157.66494 Z M292.403317,173.187502 C291.360872,170.70813 290.236923,168.262991 288.25147,166.356597 C287.580686,165.71108 287.009338,165.423368 286.573289,164.558604 L284.384073,163.79083 C284.05887,164.082617 283.736111,164.405375 283.379936,164.644184 C283.452475,164.318165 283.601629,163.998667 283.729591,163.683244 C283.326143,163.609075 282.92514,163.53572 282.522507,163.461551 C282.692852,163.493338 281.35373,169.332332 284.467208,167.002929 C284.575609,168.412144 284.935045,169.000608 286.409464,169.080482 C285.957113,169.056846 286.169841,172.589258 288.08031,172.374086 C288.130843,172.706625 288.098241,173.048129 288.125137,173.388819 C288.347645,173.06769 288.534291,172.714775 288.756798,172.393647 C288.773914,173.079101 288.87009,173.714837 289.31103,174.264994 C289.402315,173.906373 289.454478,173.536342 289.526202,173.172016 C289.328146,174.190825 290.287456,175.344115 290.934603,175.994523 C291.148145,176.209695 293.784821,177.790885 293.806012,177.623801 C293.914413,176.769632 293.347956,175.450071 293.008896,174.64073 C292.80595,174.155778 292.606263,173.672455 292.403317,173.187502 Z M298.219489,177.851199 C298.015728,177.283111 297.308267,176.419162 297.868204,175.873081 C298.112718,176.112704 298.334411,176.405306 298.608267,176.622924 C299.310837,175.138724 298.041809,173.401044 297.816041,171.939666 C297.626135,170.687754 298.186887,168.758539 296.434537,168.496909 C296.544569,169.188884 296.697797,169.82625 296.564945,170.53371 C296.673346,169.673021 296.198174,168.95252 295.511089,168.483053 C294.875353,168.049448 293.406639,170.758663 293.299868,170.684494 C293.966576,171.157221 294.64062,171.157221 295.417359,171.0586 C295.283691,171.418036 295.073409,171.74976 294.948707,172.112456 C295.595854,172.617785 296.38971,172.955214 297.056418,173.439352 C294.896544,174.715715 297.060493,177.593644 298.40532,178.584741 C298.373533,178.356528 298.305884,178.100603 298.219489,177.851199 Z M301.958108,170.541046 C304.078044,169.510827 300.883062,167.496032 300.011777,166.919794 C301.227826,166.885562 301.837481,168.289887 303.108954,168.285812 C303.337167,168.285812 302.188766,165.697224 302.090146,165.488572 C301.654096,164.57083 300.958046,164.22851 299.840617,164.22851 C299.806385,164.593651 299.769708,164.959607 299.733846,165.325563 C299.777043,164.872397 297.146073,164.734654 296.843691,164.75829 C295.925133,164.829199 294.889209,165.135657 294.181748,165.755907 C294.845196,166.457662 295.632531,166.50412 296.324506,167.03064 C296.684757,167.307756 296.841246,167.8139 297.115101,168.192897 C297.97253,169.382865 298.834849,171.463679 300.189457,172.121421 C300.352466,171.816594 300.569269,171.228945 300.839864,171.025184 C300.865946,171.006437 301.419362,170.801861 301.958108,170.541046 Z M318.274526,184.205302 C318.003115,184.556587 317.788758,184.986117 317.500231,185.338217 C316.747943,184.206932 317.527128,183.20524 317.250012,182.033203 C316.891392,182.16198 316.560483,182.372262 316.201862,182.506745 C315.64437,181.478971 315.266189,181.119536 314.116973,180.983423 C313.282365,180.884802 313.400547,180.706307 312.887068,179.953204 C312.507256,180.212389 312.186943,180.572639 311.817727,180.848125 C311.767194,180.042044 311.69873,179.894521 312.456723,179.640226 C312.944936,179.476402 313.545625,179.53427 314.049324,179.561982 C312.874842,178.821104 311.952209,178.232641 311.046692,177.167375 C310.254467,176.233331 309.472838,175.279727 308.207885,175.020542 C307.42218,174.857533 306.647071,175.260166 305.863811,175.116717 C304.515724,174.875464 305.112338,174.214461 304.624125,173.335026 C304.362495,172.862299 303.924815,172.714775 303.415411,172.656092 C302.42676,172.547691 301.329707,172.97885 300.389143,173.234775 C300.594535,173.863176 300.604316,174.126436 301.082748,174.494022 C301.804879,175.047438 302.616666,174.388881 303.227136,174.960228 C302.132528,175.010761 301.020804,177.160854 301.329707,178.108753 C301.789393,179.511449 305.335661,176.864992 305.623372,178.104678 C305.871962,179.158533 305.491335,180.240915 305.672275,181.306996 C306.671522,181.568626 307.1524,180.983423 307.836224,180.386809 C307.171146,180.967937 309.835533,182.761854 310.070267,182.981102 C309.494844,183.461164 308.673277,183.503547 307.956851,183.633954 C308.101929,183.99991 308.249453,184.365866 308.394531,184.733452 C309.285377,184.642982 309.785,184.478343 310.589451,184.076525 C310.405251,184.440035 310.223495,184.804361 310.039295,185.168687 C310.197414,184.854894 310.73616,184.327559 311.028761,184.112387 C311.375971,184.327559 311.70851,184.621791 312.115219,184.69596 C312.169827,184.707371 312.442867,183.73828 312.472209,183.672261 C312.898478,184.180036 313.332898,184.660913 313.861048,185.061101 C314.75597,185.741665 314.485374,185.734329 314.244935,186.784109 C315.029825,186.633326 315.649261,186.652887 316.399103,186.916147 C317.528758,187.31878 317.488006,187.592636 317.620043,188.694579 C317.669761,189.116773 319.450638,187.85182 319.515027,187.248686 C319.633208,186.136962 318.774964,185.119784 318.274526,184.205302 Z M304.560552,171.904619 L305.767636,172.342299 L306.859798,171.572895 L306.642996,170.477472 L305.767636,169.382865 L304.00795,170.804306 L304.560552,171.904619 Z M310.809514,171.025184 L311.906567,171.572895 L311.906567,170.369071 L311.355595,169.272018 L308.066882,168.067379 L309.6008,170.916782 L310.809514,171.025184 Z M307.956851,173.660229 L309.053089,173.547753 L311.248009,174.644805 L312.344247,173.877032 L311.463181,172.669948 L311.248009,171.572895 L308.946317,171.025184 L308.505377,169.928946 L307.518356,170.369071 L307.630832,171.465309 L307.303999,172.561546 L307.956851,173.660229 Z M311.906567,187.911319 L311.248009,186.70668 L310.155032,186.048122 L309.385628,184.949439 L309.16312,185.059471 L309.494844,187.256836 L310.47942,188.353074 L313.765688,190.543104 L314.979292,190.325487 L314.205813,189.225174 L311.906567,187.911319 Z M317.169322,179.141417 L317.389385,180.127624 L318.046313,181.219786 L319.14092,181.771573 L319.14092,180.675335 L318.266375,179.579098 L317.169322,179.141417 Z M322.846937,179.681793 C323.093081,179.050947 323.181921,178.252202 323.048254,177.583863 C322.829006,176.485181 322.265809,174.388881 321.477659,173.5828 C320.667502,172.753897 319.772581,171.541108 318.536156,171.379729 C317.185623,171.203679 316.387693,172.459666 316.108947,173.633333 C316.478978,173.67816 316.856345,173.641483 317.227191,173.67979 C316.963116,174.065307 316.610201,174.400291 316.374652,174.80537 C316.426815,174.714084 317.015279,174.661921 317.129385,174.638285 C316.25973,175.33026 317.300545,176.806309 317.39346,177.640917 C317.47578,178.394835 317.976219,179.825242 319.024369,179.551386 C320.399352,179.189505 319.243616,177.926183 318.855654,177.422484 C319.204494,177.688189 320.396092,177.953895 320.308882,179.200916 C320.661797,179.266935 321.022048,179.27101 321.372518,179.197656 C321.341546,178.950697 322.106875,179.44543 322.825746,179.738032 C322.833081,179.720101 322.841232,179.701354 322.846937,179.681793 Z M320.45722,180.236025 L319.799478,180.127624 L320.127127,181.219786 L321.224994,182.320099 L322.319602,181.99082 L321.662674,180.785366 L320.45722,180.236025 L320.45722,180.236025 Z" id="Fill-395" fill="#CCCCCC"></path>
    </g>
</svg>