<?xml version="1.0" encoding="UTF-8"?>
<svg width="375px" height="266px" viewBox="0 0 375 266" version="1.1" xmlns="http://www.w3.org/2000/svg" xmlns:xlink="http://www.w3.org/1999/xlink">
    <!-- Generator: Sketch 53.2 (72643) - https://sketchapp.com -->
    <title>map/California</title>
    <desc>Created with Sketch.</desc>
    <g id="map/California" stroke="none" stroke-width="1" fill="none" fill-rule="evenodd">
        <path d="M147.051234,195.637621 C146.826183,195.518299 146.626055,195.432206 146.524102,195.404264 C146.14046,195.303822 145.904081,195.656501 145.546871,195.737308 C145.074114,195.842281 144.59456,195.766006 144.116517,195.793193 C144.732762,196.128503 145.508355,196.448709 146.15934,196.744748 C146.550535,196.923731 147.832868,197.159354 148.070002,196.626936 C148.197631,196.34298 147.561751,195.904963 147.051234,195.637621 Z M151.833175,196.339204 C151.346825,196.438891 150.669409,196.507614 150.522899,197.070995 C150.059205,198.850252 153.780842,198.771711 153.836727,198.380516 C154.052715,196.889747 153.351887,196.032592 151.833175,196.339204 Z M158.020549,214.708748 L158.965307,216.06056 L160.317875,216.197252 L159.234159,214.847705 L158.020549,214.708748 Z M256.825947,217.533205 C256.594099,217.265863 256.219519,216.946413 255.841163,216.587691 C255.279292,215.982774 253.944849,215.114292 253.845918,213.297275 C253.841387,211.626767 253.417718,209.879228 252.762202,208.269137 C252.368742,207.279066 251.747966,206.198372 251.457213,204.805779 C251.299375,204.033207 251.216303,203.181338 251.216303,202.306059 C251.216303,202.153508 251.247266,202.003222 251.253308,201.852937 C249.353219,199.071527 232.739521,174.729842 215.883403,150.061155 C198.007006,123.898678 179.840612,97.3427403 178.989499,96.2152231 C178.76747,95.9199389 178.688929,95.5362961 178.776532,95.181351 C179.813425,91.0420865 191.97596,41.0869571 194.144901,32.2458024 C186.232646,30.2241255 153.859384,21.8111706 148.02469,20.2426152 C142.871188,18.8583291 135.059375,16.4484782 129.089499,15 C128.500442,21.797577 126.897147,29.1502277 123.766833,33.9472734 C120.237017,39.3439499 115.788874,40.0712098 119.252988,47.7229207 C123.243478,56.5331121 121.226332,63.6501397 120.50889,72.7865785 C120.167538,77.1176644 120.865345,77.9801055 123.176265,82.1729894 C125.601219,86.5712882 127.02251,91.3819276 128.407552,96.1819942 C127.826046,94.1701349 130.505504,114.319691 131.179145,117.678076 C132.014398,121.835465 135.349372,123.073242 137.268342,126.343268 C139.725015,130.530866 136.820507,130.565605 135.042005,134.142244 C133.612407,137.017299 135.157551,140.843155 136.479155,143.514306 C138.335443,147.262375 139.283222,151.763382 141.186332,155.200308 C142.563066,157.686434 145.39734,159.407541 146.297542,162.127024 C146.791444,163.619304 146.064939,165.210516 146.311891,166.15754 C147.040661,168.952544 149.03364,170.715186 149.029864,173.766204 C149.026088,176.833081 146.161605,179.705116 147.311779,182.824102 C148.790465,186.838758 159.64801,188.432235 163.387017,189.862588 C168.980046,192.002077 169.964075,199.734594 175.57825,201.531221 C178.945697,202.606629 180.039986,201.352238 181.252841,205.034605 C181.958955,207.178625 179.973528,209.290171 182.723975,210.379928 C182.952801,210.040842 183.121212,209.628501 183.400636,209.325665 C187.793649,209.532591 191.969163,216.304491 193.870763,219.650792 C196.903656,224.984032 194.163026,232.415979 197.803857,237.371617 C202.296556,243.484981 213.310428,241.956451 219.848215,242.64293 C226.077125,243.296935 239.933579,247.677865 239.419286,249.26379 C239.348297,249.488085 240.102744,250.108106 241.42888,251 C242.053432,250.704716 243.018581,250.008419 244.286566,249.78639 C244.562215,249.735791 245.157314,248.612805 245.330255,248.379448 C246.256134,247.124301 246.151916,245.541397 244.424768,245.221191 C243.227017,244.999917 242.384966,243.730422 242.49447,242.798502 C242.557907,241.326612 243.286678,240.005008 243.208137,239.681026 C243.208137,239.661391 243.208137,239.632693 243.213423,239.666677 C242.986862,238.139658 242.660615,236.61868 244.054719,235.525902 C245.059893,234.6763 245.975953,234.057034 246.44871,233.316935 C246.961493,232.577592 247.280188,231.481038 247.941745,230.302923 C248.453017,229.417825 248.669761,229.085536 248.709786,228.456453 C248.77851,227.258702 248.768692,225.894806 249.251266,224.454635 C249.699857,223.327873 250.516986,222.98048 250.674823,222.749388 C251.486666,221.99041 251.925438,220.857606 253.70545,220.038967 C254.472736,219.714229 257.830366,218.693951 256.825947,217.533205 Z M158.15422,196.889747 C158.15422,196.889747 156.806183,195.951785 156.803918,195.94952 C156.702721,195.880796 156.645325,198.127524 156.671002,198.380516 C156.744257,199.128922 159.958398,199.128922 160.522534,199.071527 C161.280758,198.992986 161.742942,198.52627 162.340307,198.104112 C161.239222,198.881216 159.027989,197.497685 158.15422,196.889747 L158.15422,196.889747 Z" id="Fill-398" fill="#CCCCCC"></path>
    </g>
</svg>