<?xml version="1.0" encoding="UTF-8"?>
<svg width="375px" height="266px" viewBox="0 0 375 266" version="1.1" xmlns="http://www.w3.org/2000/svg" xmlns:xlink="http://www.w3.org/1999/xlink">
    <!-- Generator: Sketch 53.2 (72643) - https://sketchapp.com -->
    <title>map/Colorado</title>
    <desc>Created with Sketch.</desc>
    <g id="map/Colorado" stroke="none" stroke-width="1" fill="none" fill-rule="evenodd">
        <path d="M193.724149,241.548678 C224.109504,244.39577 255.822585,248.547983 285.977971,248.547983 C293.277021,248.547983 300.597692,249.168112 307.882001,249.602498 C309.517334,249.699792 328.797362,250.888947 328.790482,251 C333.153008,184.883008 334.381474,118.595015 338.765621,52.4839196 C338.858985,51.0687274 339.658961,44.4517213 339.658961,40.8822922 C339.658961,40.6316852 339.658961,40.4095787 339.647168,40.2110587 L337.789728,39.1968376 C334.672375,39.1732511 331.613004,39.0110937 328.577221,38.8184703 C306.46386,37.4701066 284.078272,36.7939593 261.844031,34.5335829 C216.574589,32.0619105 92.8071892,19.4234583 62.2341247,15 C60.0405768,32.5621416 48.6777631,123.786018 36,224.97324 C88.5910959,230.454162 141.069173,236.615161 193.724149,241.548678" id="Fill-399" fill="#CCCCCC"></path>
    </g>
</svg>