<?xml version="1.0" encoding="UTF-8"?>
<svg width="375px" height="266px" viewBox="0 0 375 266" version="1.1" xmlns="http://www.w3.org/2000/svg" xmlns:xlink="http://www.w3.org/1999/xlink">
    <!-- Generator: Sketch 53.2 (72643) - https://sketchapp.com -->
    <title>map/Connecticut</title>
    <desc>Created with Sketch.</desc>
    <g id="map/Connecticut" stroke="none" stroke-width="1" fill="none" fill-rule="evenodd">
        <path d="M66.8600704,238.753981 L74.6266804,251 C92.7435416,231.35523 114.237019,215.1059 135.644219,199.186781 C175.326717,169.697664 218.766241,160.748258 263.494448,142.231379 C282.09133,134.512614 298.620672,122.775637 316.657529,113.946236 C323.172321,110.743744 329.679268,108.680126 336.215237,106.900441 C328.397644,76.2426459 319.634913,45.6028908 310.57256,15 C303.526766,15.4839425 296.371947,17.1287194 286.348769,19.5413727 C225.68105,33.6517862 84.249057,66.6641929 38,77.032484 C39.7906656,85.8760033 41.7193764,94.5853992 43.1170838,103.93796 C49.8138437,149.077165 57.8785059,193.895572 66.8600704,238.753981" id="Fill-400" fill="#CCCCCC"></path>
    </g>
</svg>