<?xml version="1.0" encoding="UTF-8"?>
<svg width="375px" height="266px" viewBox="0 0 375 266" version="1.1" xmlns="http://www.w3.org/2000/svg" xmlns:xlink="http://www.w3.org/1999/xlink">
    <!-- Generator: Sketch 53.2 (72643) - https://sketchapp.com -->
    <title>map/Delaware</title>
    <desc>Created with Sketch.</desc>
    <g id="map/Delaware" stroke="none" stroke-width="1" fill="none" fill-rule="evenodd">
        <path d="M225.998247,134.387584 C212.48638,123.579505 201.412792,112.812273 190.123184,99.1637238 C180.949002,88.0602857 183.267881,77.2152863 178.888562,64.9414114 C177.403129,60.7922526 175.718957,57.6422854 174.195818,54.4915326 C173.065443,54.3328559 171.97356,54.2252386 170.569036,53.730356 C161.695711,50.2622499 159.613277,42.6159204 158.423987,39.6937563 C157.116869,36.2664977 154.921318,32.9672802 151.789418,29.2548749 C148.577394,25.4395654 146.322929,21.3611041 144.461227,17.190736 C142.873675,15.8836174 140.796739,15.030534 137.627134,15.000684 C133.445768,14.960622 128.156808,16.684856 124.906293,19.0123754 C120.133425,22.0225187 117.518403,28.1653476 115,36.6427656 C122.867063,63.4080608 137.051342,114.953622 150.067541,161.816651 C160.722442,200.677506 171.521095,238.214746 175.481728,251 C190.698976,248.998475 233.127699,237.838479 244.820283,233.237641 C245.788839,232.871585 246.800599,232.81267 247.790365,232.753756 C250.168943,226.603072 252.821671,220.543509 256.30863,214.000846 C256.46495,213.704702 246.87601,204.863585 247.177653,201.581649 C247.74716,195.619491 254.543549,193.806493 259.618059,193.806493 C255.711629,182.140616 253.693607,163.942289 238.498354,162.139503 C238.223419,158.533929 238.320825,154.869441 238.320825,151.226948 C238.320825,138.000228 243.847014,132.78118 225.998247,134.387584" id="Fill-423" fill="#CCCCCC"></path>
    </g>
</svg>