<?xml version="1.0" encoding="UTF-8"?>
<svg width="375px" height="266px" viewBox="0 0 375 266" version="1.1" xmlns="http://www.w3.org/2000/svg" xmlns:xlink="http://www.w3.org/1999/xlink">
    <!-- Generator: Sketch 53.2 (72643) - https://sketchapp.com -->
    <title>map/Georgia</title>
    <desc>Created with Sketch.</desc>
    <g id="map/Georgia" stroke="none" stroke-width="1" fill="none" fill-rule="evenodd">
        <path d="M176.834543,15 C164.311589,17.0619753 135.264161,21.3866217 133.295172,21.6826287 C120.770667,23.5849772 108.118307,24.6535468 95.5341357,26.0878634 C90.5601336,26.654306 77.5373765,28.1273669 76,28.2962924 C81.3482726,45.0958505 100.233828,109.678063 103.602263,120.821719 C106.993945,132.192416 110.414298,144.647955 117.375886,153.274776 C120.556024,157.388653 120.183303,161.294086 121.134865,164.101503 C121.884956,166.843054 122.635821,168.048004 122.724159,170.399787 C122.677665,172.693454 121.760974,174.271125 120.355328,176.801132 C119.414615,178.477988 119.10156,180.04481 118.876843,182.449286 C118.539767,185.562783 118.126752,188.896349 118.126752,191.926933 C118.126752,193.245017 118.204241,194.498784 118.404936,195.63322 C118.848947,198.144629 120.006629,200.355383 121.030255,202.668422 C122.348338,205.649414 123.349493,209.016299 123.304549,212.299497 C123.258831,215.704352 122.40723,219.056515 122.435126,222.460595 C122.459922,225.549296 123.646274,227.82514 125.571095,230.096335 C127.432374,232.292366 129.392064,235.298929 129.176646,238.296968 C129.467228,238.959497 130.712472,240.330273 132.008084,242.245019 C133.85619,245.475525 134.134375,247.976086 135.37497,249.358485 C136.248268,250.330969 138.615549,249.723457 139.749209,249.678514 C143.305942,249.53671 245.729779,242.13731 253.572414,241.370172 C254.231844,241.293458 254.899022,241.451535 255.477862,241.817282 C258.07606,243.461593 260.264342,245.636701 261.518109,248.472789 C261.794744,249.099673 261.928025,250.262779 262.468896,250.706015 C263.813326,251.807904 264.558768,249.523536 264.703671,248.603745 C265.005103,246.692873 264.668027,244.574331 263.92491,242.800614 C262.372035,239.093552 259.883097,235.052515 261.774597,230.999854 C263.911737,225.768589 269.956633,225.261813 274.732264,226.548901 C277.4095,227.293568 283.454396,228.423353 288.566328,228.410955 C290.68642,228.434977 292.590318,228.168415 293.994414,227.79182 C292.650759,228.140519 291.234265,223.635324 291.202495,222.795346 C291.083937,219.697347 290.433032,216.51101 289.723235,213.502122 C288.677137,209.066667 289.677516,204.075617 290.129276,199.606067 C290.248608,198.420489 290.122302,197.086133 290.420633,195.878084 C290.749186,194.546053 291.672077,193.588292 292.395821,192.463155 C293.721654,190.40273 294.976971,186.672422 292.797988,184.698009 C291.049067,183.113364 288.356333,182.991707 286.226168,182.212945 C291.402416,182.632159 300.591805,173.431922 292.909572,171.913142 C294.037808,170.377316 294.563181,168.338587 295.342718,166.877924 C296.076536,165.500949 297.937041,166.203772 297.956413,163.563731 C297.116435,163.652068 295.953329,163.108097 295.077707,163.180162 C294.545359,160.485103 297.081565,158.841567 298.828936,157.009734 C297.524026,156.774168 296.12303,156.51923 294.557757,156.082193 C288.767024,153.794726 289.641872,148.003993 289.23893,146.089246 C288.949897,143.052462 287.294738,140.824661 285.232762,137.025388 C284.316071,134.123435 278.98717,134.862678 274.384339,129.319133 C272.711358,126.571383 273.130572,123.966211 272.912053,122.725617 C272.995741,119.510609 268.557186,116.319623 267.173237,110.114325 C265.71025,109.18291 264.294531,108.18408 262.654869,107.580443 C257.257004,105.595182 252.12415,102.016752 248.867298,97.1969525 C248.017247,95.6495024 245.097471,93.8757852 244.069971,89.7169647 C243.821232,88.2981459 243.815033,87.4938128 243.768539,87.3109394 C243.14708,86.5368269 239.484187,85.036645 237.05569,83.8774135 C231.423809,80.9467895 228.671409,76.7112551 225.143347,73.3660663 C222.211948,70.3997975 217.106215,68.8794685 212.454566,65.0453258 C203.75723,57.3692915 200.684802,46.1535718 193.480674,40.7874767 C193.012642,40.4434267 191.469066,41.0106443 190.938268,41.0734102 C187.164567,41.5158709 182.560961,38.5465025 180.562527,35.4802731 C180.306039,35.0905048 179.373074,35.0246394 178.964709,34.8998825 C175.166986,33.7445254 171.136022,30.789105 171.208861,26.4171905 C171.32122,22.4218712 173.685401,19.9344828 174.7253,18.0143119 C175.511036,16.8140113 176.196036,15.8748478 176.834543,15" id="Fill-427" fill="#CCCCCC"></path>
    </g>
</svg>