<?xml version="1.0" encoding="UTF-8"?>
<svg width="375px" height="266px" viewBox="0 0 375 266" version="1.1" xmlns="http://www.w3.org/2000/svg" xmlns:xlink="http://www.w3.org/1999/xlink">
    <!-- Generator: Sketch 53.2 (72643) - https://sketchapp.com -->
    <title>map/Hawaii</title>
    <desc>Created with Sketch.</desc>
    <g id="map/Hawaii" stroke="none" stroke-width="1" fill="none" fill-rule="evenodd">
        <path d="M25,53.193239 L27.5199089,58.7491518 C27.5199089,58.7491518 28.0180899,56.710363 28.0180899,56.6924489 C28.6322857,54.1460955 31.3748405,53.2648952 32.8702367,51.3950102 C34.7580357,49.0448582 34.7844803,47.050428 35.0966965,44.1125247 L30.0398177,48.1363603 L25,53.193239 Z M71.0032652,29.2123053 C65.7766296,28.0641004 59.8035755,31.7944868 55.9477907,35.0846996 C54.7825248,36.0810616 53.9721276,37.6216694 53.2948061,39.0155527 C50.9975432,43.6987956 55.4675237,46.02165 59.383875,48.3683898 C63.2225987,50.6613874 67.5671809,52.0544176 71.8767881,53.1847085 C71.9928029,53.2162713 78.2243311,45.7145521 78.6610925,44.7267205 C82.2490196,36.602275 80.3347761,31.2647429 71.0032652,29.2123053 Z M168.619451,79.3861306 C167.675978,74.5348369 167.97028,65.4310903 160.046301,64.277767 C152.121469,63.1252969 145.097458,70.5280623 144.411606,71.1652905 C140.769936,74.5518978 144.936231,79.0133479 147.323064,81.6671855 C149.156268,83.7187701 152.166681,86.514214 154.881938,87.319493 C157.357488,88.0454383 159.850099,86.5363933 162.281291,87.7118958 C164.461686,88.7713836 165.771118,91.1616289 168.272259,91.6691935 C171.354328,92.2919198 175.030119,90.8059072 177.451927,89.0298577 C178.743445,87.9737821 175.841369,83.8518459 175.261296,82.9655272 C174.620655,81.9828139 168.566562,79.1199791 168.619451,79.3861306 Z M228.085546,97.5595018 C219.50216,96.9589548 210.918774,95.5198599 202.362685,95.057507 C204.019308,95.1453711 199.077591,101.76589 198.891626,101.997066 C202.158806,102.246157 205.58636,102.072988 208.907283,102.072988 C212.104513,101.779539 214.605655,101.387989 217.632275,102.549843 C220.650365,103.70999 222.583376,105.830672 226.027137,105.269365 C227.996829,104.948618 230.265942,103.386684 232.091468,102.562638 C232.091468,102.562638 231.65556,98.1506653 231.60267,97.5765628 C231.618878,97.7420544 230.249734,97.7104916 228.085546,97.5595018 Z M219.021893,113.709439 C217.018932,113.806687 215.041563,114.225534 213.45745,114.653765 C215.602017,114.070279 220.089911,124.731694 222.556078,125.012348 C225.396734,125.327976 228.744101,120.128638 227.755416,117.934594 C226.161919,114.37823 222.556078,113.539682 219.021893,113.709439 Z M269.796265,116.366689 C265.922567,113.634371 261.071273,111.665532 258.135076,111.781547 C256.123585,111.861733 254.456725,113.348599 252.462295,113.567833 C248.786504,113.971325 248.171455,111.804579 245.946701,109.707783 C241.306111,105.348699 233.533122,107.08039 235.625653,114.474625 C237.112519,119.763533 244.360029,122.946261 249.167817,124.23266 C249.71974,124.380238 250.725486,132.19332 251.615217,133.185417 C254.895193,136.857796 259.833498,132.553307 263.760086,131.800917 C267.562128,131.070707 276.447494,129.130019 275.763348,123.82405 C275.431512,121.299022 272.931223,118.583765 269.796265,116.366689 Z M348.840705,200.232566 C348.15656,199.132132 347.078305,198.281641 345.255337,196.693263 C338.610933,190.901055 336.099555,182.75443 330.376444,176.433332 C321.061141,166.171997 306.007373,163.408116 294.263438,156.966737 C289.617729,154.415266 285.680904,156.360219 287.105497,162.473173 C288.012289,166.391231 291.139569,169.07066 289.900941,173.313729 C289.08116,176.135617 286.607316,178.2145 284.531846,180.115094 C282.279795,182.175209 278.894894,184.673792 278.371974,187.923058 C277.728775,191.862442 280.998514,193.91488 282.502441,197.098461 C284.14968,200.553313 284.710134,204.523406 285.733793,208.187255 C287.532875,214.619249 284.025988,221.110105 285.617779,227.267418 C286.86579,232.110181 295.484152,237.252365 300.316678,237.288193 C305.028072,237.314637 305.509192,231.505369 308.304636,228.477895 C310.7981,225.774581 314.616351,222.979137 317.554254,220.741587 C322.265648,217.152807 328.272824,217.888136 333.634241,216.13256 C339.687482,214.15775 344.824547,208.498618 350,204.833916 C349.777354,202.529829 349.482199,201.269874 348.840705,200.232566 L348.840705,200.232566 Z" id="Fill-428" fill="#CCCCCC"></path>
    </g>
</svg>