<?xml version="1.0" encoding="UTF-8"?>
<svg width="375px" height="266px" viewBox="0 0 375 266" version="1.1" xmlns="http://www.w3.org/2000/svg" xmlns:xlink="http://www.w3.org/1999/xlink">
    <!-- Generator: Sketch 53.2 (72643) - https://sketchapp.com -->
    <title>map/Illinois</title>
    <desc>Created with Sketch.</desc>
    <g id="map/Illinois" stroke="none" stroke-width="1" fill="none" fill-rule="evenodd">
        <path d="M210.878653,17.0033828 C194.316604,18.6743692 177.708786,19.8126208 161.118975,20.6724997 C158.147665,20.8270679 151.132824,21.1932292 146.254174,21.4010708 C146.684864,21.7012031 147.10655,21.9878294 147.467459,22.2594491 C150.696132,24.8458388 151.141828,27.7023476 152.613227,29.2322718 C152.959129,29.7852655 154.290966,30.1296673 156.217065,31.3947248 C159.675339,33.9143351 161.17525,38.0028869 161.17525,41.9226142 C161.165495,44.7978813 160.397157,47.6708973 158.785447,50.0817097 C156.7513,52.610324 156.830835,59.0984332 151.961189,62.8523375 C149.336533,64.67339 146.331458,65.9189389 143.238595,66.6902788 C140.50289,67.3723293 137.528579,67.3528207 134.963949,68.5908663 C132.574146,69.7441245 132.353549,73.0343244 133.146648,75.1772688 C133.609602,76.430321 136.46386,77.5573176 137.739422,81.3209762 C138.798889,84.4483544 137.001847,87.5809848 135.901862,90.4352426 C134.837893,92.963857 134.448472,96.1947808 132.949311,99.5427561 C131.51618,102.624364 128.79323,103.690584 127.29707,104.470928 C125.620081,105.468868 125.611077,105.309798 125.512784,106.347505 C125.414491,107.393466 125.93372,108.527215 125.947976,109.595686 C125.976488,111.650842 124.851743,113.201775 123.679726,114.389549 C122.991673,115.086606 122.636016,116.696065 122.400412,117.619722 C121.016803,123.057369 123.52891,128.658587 125.226158,133.760835 C125.863939,135.70119 126.650285,137.795363 127.550682,139.358302 C129.303454,142.661258 133.929243,144.876234 137.500067,149.018059 C141.782954,154.39943 148.28757,157.019585 150.69238,166.276414 C151.178594,168.275295 151.562764,170.092596 152.017464,171.104042 C152.604223,172.168761 152.472164,171.941411 152.828571,172.012692 C153.067927,172.012692 153.62017,171.923403 154.430527,171.557992 C156.231321,170.734129 158.405029,170.311692 160.692037,170.301938 C164.337893,170.290683 168.790355,171.527228 170.716454,175.81987 C171.105126,176.747278 171.27395,177.736965 171.27395,178.706392 C171.16065,183.355441 168.115808,187.894941 167.305451,190.344771 C166.128182,193.499161 164.923902,196.882402 164.94266,199.75992 C164.975674,204.688842 168.854884,207.389282 172.676318,209.667286 C174.569402,210.795783 176.715348,212.217659 178.269283,213.858633 C178.595676,214.203785 179.096897,215.193471 179.62438,215.178464 C183.883257,215.060662 186.561187,217.715332 189.409442,220.469046 C191.733966,222.873105 195.73698,224.841222 197.14235,230.033511 C197.616559,232.012132 198.712041,234.846131 198.745056,237.821943 C198.772818,240.258266 196.542085,242.750114 197.856664,245.089645 C199.085706,247.27836 200.972037,249.148184 202.640773,251 C203.259045,250.807165 203.876567,250.709622 204.491088,250.709622 C204.533107,250.709622 204.566121,250.723878 204.60814,250.729131 C205.020821,247.424674 207.33109,245.029619 209.706636,243.468931 C214.369941,240.453352 219.484945,242.893428 223.929904,244.974095 C225.37354,245.694412 227.752089,246.492013 229.375804,246.051569 C229.585146,245.98479 228.081484,242.851409 228.021457,242.712598 C227.36942,241.205934 226.856944,239.610731 226.848691,237.954001 C226.830683,234.266126 229.641421,231.758521 233.508625,230.028258 C235.640315,229.105352 237.477124,228.862244 238.204195,228.3085 C238.33025,228.225214 238.442049,228.144928 238.541843,228.074397 C238.643888,227.813282 238.265722,227.03744 238.204195,226.761319 C238.05788,226.102528 237.961838,225.420478 237.984348,224.743679 C238.110403,220.905738 239.609564,218.729779 239.628322,216.499797 C238.823217,215.224234 238.324998,213.87514 238.358763,212.648349 C238.386525,210.603698 238.971783,209.198329 239.150362,207.693916 C240.097279,199.80644 241.961851,194.773972 246.583137,188.27911 C248.513738,185.546406 249.859081,182.410024 251.297465,179.023782 C253.703775,173.358785 251.33348,167.338132 249.714267,161.814948 C248.804116,158.70933 247.773161,155.043214 248.443957,151.795783 C249.207794,147.95409 251.021343,145.568038 250.908043,143.440851 C250.932054,136.646607 248.683313,129.132796 247.909722,121.60848 C246.38655,110.856242 245.744267,99.9764472 244.812357,89.3225023 C243.770898,77.353978 242.516345,65.3449359 241.268545,53.3546521 C240.389158,44.9501984 240.73506,36.5022256 240.73506,28.0700097 C240.73506,27.8636687 240.804841,27.6783371 240.852112,27.4862524 C238.110403,24.3138544 235.87967,20.4639078 234.356499,16.7482704 C234.122396,16.1757681 233.943817,15.5785049 233.72397,15 C233.522882,15.079535 233.330047,15.1680741 233.104948,15.1920846 C226.268685,15.8831392 217.546091,16.3288356 210.878653,17.0033828" id="Fill-430" fill="#CCCCCC"></path>
    </g>
</svg>