<?xml version="1.0" encoding="UTF-8"?>
<svg width="375px" height="266px" viewBox="0 0 375 266" version="1.1" xmlns="http://www.w3.org/2000/svg" xmlns:xlink="http://www.w3.org/1999/xlink">
    <!-- Generator: Sketch 53.2 (72643) - https://sketchapp.com -->
    <title>map/Indiana</title>
    <desc>Created with Sketch.</desc>
    <g id="map/Indiana" stroke="none" stroke-width="1" fill="none" fill-rule="evenodd">
        <path d="M234.136042,16.4601671 C232.206581,15.2876367 231.07531,15.0348262 229.478178,15.000318 C227.841287,14.9868148 225.526984,15.4054148 222.146675,15.8667752 C201.855073,18.5021553 181.563471,20.5313906 161.393398,23.0497428 C148.413794,24.6506256 135.477701,25.2260131 122.631629,25.9124273 C122.741155,29.6348174 122.9272,33.3362024 123.310542,36.9888259 C125.009698,53.3397357 126.709604,69.7416577 128.141697,86.1608338 C129.414001,100.796083 130.28946,115.514603 132.340451,129.960807 C133.260921,139.481334 136.449933,149.903576 136.47619,160.517864 C136.328404,166.280742 133.38245,169.913861 133.00436,173.071366 C132.908337,173.627249 132.858075,174.2589 132.858075,174.964068 C132.844571,177.609951 133.682522,180.635424 134.59549,183.75467 C136.206875,189.410273 138.430407,195.29543 138.44466,201.847497 C138.456663,205.004252 137.906032,208.297539 136.488193,211.60658 C134.531725,216.197678 132.54525,220.949314 129.388495,225.436887 C123.527343,233.847148 121.730664,238.70456 120.384092,248.99327 C120.267064,249.784709 120.133532,250.347344 120,251 C120.651156,250.118539 121.685653,249.543902 122.855933,249.644426 C122.874687,249.644426 122.893442,249.644426 122.919698,249.644426 L122.9272,249.644426 C123.079486,249.651177 123.234023,249.670682 123.393812,249.70294 C124.581345,249.837222 127.278991,250.144796 129.592544,250.144796 C130.136424,250.149297 130.658549,250.118539 131.068147,250.08028 C131.432734,249.517646 131.969112,249.063037 132.641273,248.800474 C133.337439,248.53341 134.071865,248.519907 134.743275,248.719455 C134.801039,248.648188 134.864804,248.571669 134.92932,248.507154 C135.572974,247.842495 136.456685,247.477908 137.389158,247.516167 L137.932288,247.516167 C140.232338,247.587434 143.199297,246.353389 147.232262,246.270119 C147.973439,246.270119 148.733371,246.340636 149.512807,246.462915 C153.495509,247.139577 156.88707,248.941508 159.85403,250.948238 C162.127824,246.999293 165.529137,241.681272 171.887657,241.107384 C172.219237,241.107384 172.507305,241.132891 172.724107,241.157647 C177.607775,242.282165 179.626508,245.287384 180.791536,244.865783 C180.791536,244.865783 180.829796,244.865783 180.853801,244.865783 C181.51846,244.839527 181.883047,244.756257 182.004576,244.699243 L182.024081,244.699243 C182.06234,244.699243 182.452434,243.957316 182.803518,242.270163 C183.737491,237.45101 185.627943,234.038444 189.066765,231.099241 C188.951988,230.739905 188.842462,230.351313 188.747189,229.934213 C188.477874,228.785688 188.868718,227.570398 189.750929,226.771456 C190.639141,225.973266 191.871686,225.730208 193.011208,226.113549 C196.378764,227.340843 197.936886,229.910207 199.209941,231.571854 C200.518253,233.361782 201.375708,234.243243 202.442464,234.498304 C203.702765,234.836635 205.280392,235.136707 206.635966,235.125454 C208.061307,235.136707 209.102556,234.791624 209.530158,234.448042 C210.304343,233.783383 210.437875,233.182489 210.464132,230.9252 C210.464132,230.46609 210.482886,230.050491 210.482886,229.667149 C210.482886,228.599644 210.509142,227.391105 210.776206,226.080541 C211.33359,223.595197 212.323076,221.466188 212.739426,219.857053 C213.159526,218.275675 214.701895,217.258432 216.336536,217.477484 C216.867663,217.5435 217.328273,217.58476 217.678607,217.58476 C219.749852,217.407717 219.23898,217.557003 221.060415,213.036422 C222.196937,209.623856 223.83983,207.935202 225.540487,205.905217 C228.046086,202.830982 227.547217,200.951032 227.828534,195.538488 C227.93656,193.656288 228.250885,191.708822 229.680727,189.991662 C231.144327,188.243744 233.445877,187.582836 235.541128,187.620345 C236.244046,187.620345 236.947714,187.674358 237.733902,187.783884 C240.310018,188.327014 241.459293,189.687839 241.888396,189.927896 C242.731597,189.851378 245.045151,187.666106 248.087128,185.728392 C251.135107,184.393823 254.004543,183.732165 254.605437,183.239297 C254.490659,183.053253 254.281359,182.782438 254.012045,182.453109 C253.378143,181.588152 252.267128,180.558906 251.717246,178.880005 C251.454683,178.244603 251.359411,177.609951 251.378165,177.120084 C251.488441,175.036836 252.050326,173.790038 251.960304,173.602493 L251.98581,173.602493 C251.85753,173.030106 250.899551,172.221413 250.618233,169.447249 C250.592727,168.217705 251.141859,167.127695 251.877034,166.246234 C247.858323,129.820524 236.111264,35.5822395 234.136042,16.4601671" id="Fill-431" fill="#CCCCCC"></path>
    </g>
</svg>