<?xml version="1.0" encoding="UTF-8"?>
<svg width="375px" height="266px" viewBox="0 0 375 266" version="1.1" xmlns="http://www.w3.org/2000/svg" xmlns:xlink="http://www.w3.org/1999/xlink">
    <!-- Generator: Sketch 53.2 (72643) - https://sketchapp.com -->
    <title>map/Iowa</title>
    <desc>Created with Sketch.</desc>
    <g id="map/Iowa" stroke="none" stroke-width="1" fill="none" fill-rule="evenodd">
        <path d="M30.5449238,68.4105324 C30.5281563,72.9657099 29.073374,77.0018925 26.6812071,80.6372515 C25.3789294,82.6214086 24.9844934,83.9236863 25.0004624,84.6055656 C25.0292068,85.3058094 25.2048665,86.146581 26.983821,87.9407061 C30.4004038,91.3796455 31.1038413,95.3743086 31.6491851,98.6008594 C32.7255005,99.0168537 33.7307535,99.6077093 34.6569596,100.645699 C36.2610528,102.64822 36.1788121,104.65154 36.1931842,105.968989 C36.1931842,106.605356 36.1788121,107.181041 36.1788121,107.767905 L36.1931842,107.972309 C36.1333002,112.515509 38.6923438,117.392464 40.4577246,123.492649 C41.84384,129.263871 47.6198529,134.201508 49.5289553,142.766519 C49.9920584,145.739161 52.3243412,149.138977 53.066903,154.399189 C53.308036,156.289128 53.3383772,158.114393 53.3383772,159.862208 C53.3383772,161.483068 53.2936638,163.040851 53.2936638,164.517192 C53.2936638,164.969915 53.2936638,165.414654 53.308036,165.850609 C60.071736,169.314301 61.4722235,177.452139 61.7293255,182.64608 C61.8051786,186.95214 63.4268377,191.530472 64.6979758,196.755552 C66.0305948,202.412596 65.8948577,207.54266 66.2429834,212.454746 C66.3044643,213.374564 66.3348056,214.279212 66.3348056,215.170286 C66.3188365,218.967731 65.8493458,222.60868 65.3495139,226.078759 C66.326821,226.858848 66.8266529,226.994585 68.037907,228.327204 C68.742143,229.236642 69.1820909,230.145283 69.5461857,231.029969 C69.7641635,231.027574 69.9757537,231.027574 70.1961269,231.02438 C84.1610794,231.038752 98.0342098,231.248745 111.88658,231.227986 C118.740506,231.248745 125.600818,231.199241 132.477899,231.054721 C166.217352,230.339307 199.985549,229.269379 233.503032,226.352628 C237.321237,226.014882 270.829937,222.012235 276.557244,221.981095 C276.845486,221.981095 277.093805,221.981095 277.464287,222.030599 C277.579265,222.139189 277.70063,222.125615 277.850739,222.110445 C278.229206,222.076111 278.864775,222.030599 280.592628,224.101788 C282.600739,227.866496 285.007278,229.285348 289.248663,233.014925 C291.081913,234.848174 292.186174,236.31653 293.042116,237.353721 C293.050899,237.25631 293.065271,237.16848 293.073256,237.053503 C293.073256,236.748493 293.019759,236.257444 292.876038,235.617085 C292.542284,234.275683 292.38419,233.014925 292.369818,231.803671 C292.225298,226.105906 296.822794,223.007906 299.487233,221.860529 C302.455085,220.391374 304.242822,219.481935 305.084392,217.567244 C306.9392,213.656418 307.591537,208.546316 309.732989,203.155157 C311.187771,199.768916 312.672895,196.734792 312.588259,194.725085 C312.573887,194.26278 312.528375,193.832414 312.415793,193.435582 C312.255304,191.633473 308.88583,190.049341 305.742318,185.293752 C304.448823,183.060477 303.909867,180.552534 303.909867,178.110863 C303.956976,172.540053 306.538376,166.875025 311.70996,163.970251 C317.230468,161.082245 322.707061,161.384859 326.508498,160.298163 C330.787411,159.181925 335.074308,157.493196 338.442983,155.145743 C342.16218,153.150407 342.978998,143.926672 347.463911,136.53379 C349.075989,134.155197 350.015769,130.899902 349.9998,127.692514 C349.9998,123.239539 348.273543,119.13948 345.213071,116.969283 C344.108809,115.976007 340.97967,115.435454 338.027787,112.228865 C334.203993,107.457306 333.673022,103.992018 330.894403,102.075729 C330.258036,101.57989 328.265096,100.339093 326.425459,98.8052635 C324.667264,97.1915889 322.305438,95.4389833 322.071492,91.4962197 C322.071492,91.4131806 322.085864,91.2550868 322.093848,91.1369156 C321.382426,88.3311499 320.654237,85.5828728 320.131249,85.3098017 C319.148353,83.3631719 313.209456,84.7492873 306.524004,81.55707 C301.274172,78.3991862 299.125534,73.2795021 297.269129,69.3527076 C295.058211,64.4877301 292.293167,58.3148858 292.262027,51.6126667 C292.248453,49.3977566 292.581408,47.1485129 293.375071,44.9942853 C294.694116,41.861952 296.177643,39.5528243 296.072247,39.0114728 C295.352042,38.7495801 293.807035,38.2241976 292.277198,36.8077411 C289.52892,34.0586655 288.771987,30.8209364 288.506101,28 C267.810186,28.602034 189.124186,33.1236764 159.461636,34.1041774 C125.995254,34.1041774 39.3135407,36.4931504 29.4606239,36.5115148 C29.4526394,36.5115148 29.4526394,36.5091194 29.4382672,36.5091194 L27.2265509,36.5091194 C27.7575225,37.9623049 29.3081193,40.3297196 29.4606239,43.9419235 C29.4917636,45.608296 28.9072956,47.5118093 27.7263828,49.0831659 C27.6361576,49.2045308 27.568289,49.2995468 27.5291648,49.3753999 C27.5451339,49.4137256 27.5762736,49.4616328 27.6217854,49.5151292 C27.8788875,49.8784256 28.4609601,50.481258 29.1947389,51.211843 C30.4826445,52.5979584 32.9139355,54.5972861 33.1798205,58.4258708 C33.1941927,58.6063213 33.1941927,58.7731981 33.1941927,58.7883687 L33.1798205,58.7883687 L33.1941927,59.0087419 C32.9818041,62.3143396 31.3465712,64.0102549 31.1126243,64.7895456 C30.6806609,65.7405037 30.5736682,66.6156088 30.5449238,68.4105324" id="Fill-435" fill="#CCCCCC"></path>
    </g>
</svg>