<?xml version="1.0" encoding="UTF-8"?>
<svg width="375px" height="266px" viewBox="0 0 375 266" version="1.1" xmlns="http://www.w3.org/2000/svg" xmlns:xlink="http://www.w3.org/1999/xlink">
    <!-- Generator: Sketch 53.2 (72643) - https://sketchapp.com -->
    <title>map/Kansas</title>
    <desc>Created with Sketch.</desc>
    <g id="map/Kansas" stroke="none" stroke-width="1" fill="none" fill-rule="evenodd">
        <path d="M25,212.198563 C48.2629094,212.812092 173.856427,217.374931 190.407197,217.560504 C190.882339,217.560504 191.660536,217.571109 192.741027,217.560504 C212.374127,217.571109 327.377466,216.760644 350,216.662177 C349.765475,195.044744 347.503983,114.201304 347.258036,100.830914 C343.781278,98.5244993 339.331393,96.4407727 336.342721,91.3734769 C334.162703,87.5817156 333.996708,86.4978142 331.45272,84.0838424 C329.156963,81.8425676 326.421852,78.6552461 326.329717,74.1810284 C326.329717,72.8388388 326.632011,71.3921221 327.317312,70.0665963 C328.873706,66.9709254 331.26845,64.1062748 333.059369,62.2611428 C333.762183,61.5605078 334.39266,61.0454463 334.726173,60.7439839 C334.664496,60.5690145 334.551802,60.2925477 334.318799,59.8751964 C334.046964,59.3805859 333.812438,59.045796 333.644159,58.8435586 C333.478926,58.8950647 333.232217,58.9814133 332.855302,59.1412338 C331.996392,59.4752663 330.688229,59.9789661 329.003151,59.9789661 C328.563797,59.9789661 328.095509,59.9395791 327.515287,59.8509582 C322.74255,58.7700866 319.871902,55.0601292 317.685031,52.9688282 C302.003831,52.9536793 262.060705,52.8923264 228.056089,52.9044455 C206.218605,52.8923264 186.864193,52.9195944 178.046659,52.9960961 C177.146631,53.0089727 176.170458,53.0089727 175.146315,53.0089727 C142.752155,52.9960961 53.0592521,49.2815941 33.1116747,48 C32.76141,65.74008 30.0993979,114.455805 29.4445551,127.563361 C29.0805843,134.933285 26.0873436,195.671907 25,212.198563" id="Fill-432" fill="#CCCCCC"></path>
    </g>
</svg>