<?xml version="1.0" encoding="UTF-8"?>
<svg width="375px" height="266px" viewBox="0 0 375 266" version="1.1" xmlns="http://www.w3.org/2000/svg" xmlns:xlink="http://www.w3.org/1999/xlink">
    <!-- Generator: Sketch 53.2 (72643) - https://sketchapp.com -->
    <title>map/Maine</title>
    <desc>Created with Sketch.</desc>
    <g id="map/Maine" stroke="none" stroke-width="1" fill="none" fill-rule="evenodd">
        <path d="M262.425952,119.022241 L262.125901,118.721469 L260.604728,121.759486 L260.298907,125.105488 L261.825129,128.446442 L264.559488,125.105488 L264.559488,122.063143 L262.425952,119.022241 Z M249.195574,121.494056 C248.044417,120.019045 246.758381,118.357224 247.862655,116.9428 C249.340551,115.050171 250.833594,113.358055 248.845755,111.148785 C247.401759,109.54683 245.939732,107.631119 243.995891,106.593202 C241.261531,105.132617 240.224335,106.68264 237.946544,107.895106 C236.195284,108.819783 235.437944,107.157961 233.847529,105.949823 C231.565409,104.214431 232.54346,99.8954268 230.726564,97.5743586 C229.770152,96.3525159 229.05176,94.9424201 229.029401,93.3606604 C229.013532,92.2188794 229.991584,90.4568006 229.276077,89.4390792 C228.320386,88.0794727 225.682677,89.2941026 224.426213,89.5415005 C220.960479,90.218058 218.264347,87.3545897 214.708453,87.7094578 C214.970997,87.6128067 212.721335,78.7598571 212.575638,77.9866486 C211.335042,71.5456481 208.788935,65.2604433 206.622941,59.0747748 C203.49765,50.1410422 200.913315,40.9584691 197.454073,32.1567302 C196.835217,30.5850684 196.739287,28.9145916 196.1702,27.3624043 C195.052221,24.3222232 191.57711,23.1162486 189.235125,21.211357 C185.603497,18.2570078 180.570429,14.6607225 175.606603,15.0256885 C173.533654,15.1793204 167.182813,20.5023421 165.60466,22.0494805 C161.478236,26.0922361 153.57088,32.315411 150.305661,23.6903849 C149.752441,22.2160954 149.816635,19.3959037 148.252186,18.5657143 C147.35636,18.0846227 143.843022,18.369527 142.97749,19.0064143 C141.366879,20.1965208 129.902908,54.1888467 128.36154,61.3172239 C127.592659,64.8442667 129.285495,68.3114436 129.86468,71.7310162 C130.493633,75.4326079 128.936397,76.7640846 127.404406,79.8778359 C126.345571,82.0286829 126.050569,84.5416108 126.157318,86.9766407 C126.26551,89.4455707 127.529186,91.6166134 127.742684,94.0581349 C127.912184,95.9897138 128.017491,97.8902777 128.719293,99.7194353 C129.335984,101.327882 129.76875,103.007736 128.960921,104.629165 C128.629133,105.295625 126.347735,107.629676 126.82522,108.356002 C127.69508,109.66584 128.409865,110.728281 127.620067,112.25306 C126.889414,113.667483 125.471384,114.700351 124.493333,115.930128 C122.640373,118.25913 120.37845,120.856448 120.465003,124.024295 C120.512607,125.753195 121.394729,129.440361 123.161856,130.248912 C122.259539,129.835621 120.749186,129.190799 119.777626,129.889716 C117.204111,131.739791 121.634914,136.07827 117.284894,136.426647 C115.893552,136.537723 114.414213,135.978734 113.051,136.408615 C111.485109,136.901968 110.925398,138.436123 110,139.636328 C113.878305,152.045171 134.420264,216.230859 137.642928,224.382728 C138.245915,226.012813 139.578113,227.907607 140.425613,230.506367 C141.957605,236.10131 141.485168,240.28255 144.316179,242.387957 L144.337818,242.400218 C144.386143,242.420414 144.460435,242.458642 144.552037,242.504804 C144.772026,242.608667 145.105256,242.755808 145.460124,242.918095 C146.195105,243.240506 147.03395,243.596816 147.79129,244.02237 C148.264448,244.537361 148.897007,244.077908 149.826733,246.733649 C149.880829,248.43514 151.094737,250.46337 152.088656,251 C152.120393,250.840598 152.168718,250.671819 152.185307,250.521072 C152.341103,249.044619 152.459393,247.545085 152.899371,246.119121 C153.248469,244.979504 154.199833,243.678321 153.851457,242.449265 C153.57088,241.456789 152.190356,241.50295 153.13018,240.384972 C153.905552,239.463901 154.861244,238.765705 155.317812,237.605171 C155.660418,236.735312 156.31101,235.63825 156.267733,234.693377 C156.18118,232.836811 154.848982,231.242069 155.295452,229.279475 C155.688548,227.552017 157.293389,226.498232 158.352223,225.201377 C159.458661,223.839606 160.528314,221.798394 160.640112,220.031266 C160.726666,218.697625 159.641144,217.63807 159.711108,216.365017 C159.8193,214.489697 164.122436,211.822416 163.31677,210.252918 C162.988589,209.613146 161.898019,209.660029 161.499874,209.01088 C161.049076,208.27662 161.129138,207.048286 161.209921,206.228194 C161.375815,204.399037 162.112238,202.352775 162.790238,200.641186 C163.250413,199.469111 164.100076,197.601726 165.61043,197.601726 C167.752621,197.601726 168.172404,200.438507 168.515011,201.995743 C168.595794,202.372971 169.370445,201.1129 169.396411,201.0451 C169.573124,200.605122 169.63299,200.108883 169.783736,199.658807 C170.099656,198.72836 170.562715,197.829649 171.71243,198.030885 C173.168688,198.286217 173.006401,200.117539 173.408873,201.148964 C174.026286,202.733609 176.29975,202.768952 176.095628,200.733509 C176.041533,200.225009 175.833084,199.746802 175.86482,199.233254 C175.907375,198.460045 178.02865,195.696113 177.61608,195.025326 L175.176001,191.677881 L176.084088,187.424512 L177.309537,186.817197 C177.309537,186.817197 180.66708,187.060989 180.823597,188.149395 C181.101288,190.114874 182.213497,191.584836 183.944561,192.509513 C184.24894,191.208329 184.567744,189.337338 184.432865,187.989272 C184.318904,186.792674 184.132814,185.08974 184.829567,184.038118 C185.749195,182.651825 187.515602,183.355069 188.848521,183.473359 C190.002564,183.577944 192.845115,182.517667 193.419972,181.652135 C195.020485,179.245956 196.036043,178.42298 194.768038,175.758584 C192.855213,171.727368 195.72373,167.602387 195.29457,163.490389 C195.144545,162.045672 193.779889,160.532434 194.235015,159.042997 C194.687977,157.561495 196.917443,156.676489 198.269836,156.291327 C199.543611,155.929246 201.159992,156.358406 202.530418,156.444237 C202.734539,158.577774 204.914958,162.787144 207.638499,161.814142 C209.482082,161.158502 209.433756,158.552529 209.670335,156.994572 C209.798722,156.16871 209.804493,154.916574 210.501246,154.312144 C211.727416,153.27062 213.622931,154.079171 214.740189,152.531312 C215.631687,151.295043 215.28331,149.59788 214.998406,148.222405 C216.008193,149.789018 219.187581,149.561816 220.816223,149.900094 C223.560681,150.469182 227.498851,152.386335 225.344398,147.638892 C225.28886,147.517718 227.265158,146.036937 227.490196,145.82993 C228.356449,145.032198 228.960158,144.220041 229.426824,143.14029 C229.611471,142.714015 231.20405,139.576462 231.092252,139.407683 C232.800235,141.986247 234.084107,143.407162 236.524186,140.946887 C238.252365,139.204283 239.364574,136.93154 241.169929,135.266834 C242.399706,134.138757 245.714693,132.782036 243.479457,130.93124 C244.929944,132.130723 247.503459,130.890848 248.894081,130.085182 C252.202577,128.16875 251.112006,123.950003 249.195574,121.494056 L249.195574,121.494056 Z" id="Fill-436" fill="#CCCCCC"></path>
    </g>
</svg>