<?xml version="1.0" encoding="UTF-8"?>
<svg width="375px" height="266px" viewBox="0 0 375 266" version="1.1" xmlns="http://www.w3.org/2000/svg" xmlns:xlink="http://www.w3.org/1999/xlink">
    <!-- Generator: Sketch 53.2 (72643) - https://sketchapp.com -->
    <title>map/Maryland</title>
    <desc>Created with Sketch.</desc>
    <g id="map/Maryland" stroke="none" stroke-width="1" fill="none" fill-rule="evenodd">
        <path d="M348.164037,125.050789 C348.581525,125.409928 348.922584,125.838922 349.210224,126.333662 L350,120.052433 L348.164037,125.050789 Z M346.604208,133.672584 L344.916995,144.909435 L346.037147,144.345661 L347.724359,138.135108 L348.431953,132.538462 C347.943787,133.013478 347.355358,133.397272 346.674885,133.646285 C346.655983,133.652038 346.626397,133.6619 346.604208,133.672584 Z M255.803748,33.795858 C253.728632,34.2388231 251.521203,34.7039776 249.175707,35.193787 C249.264464,36.042735 249.354043,36.8859303 249.454306,37.7299474 C251.711045,37.2845168 253.82643,35.5981262 255.803748,33.795858 Z M306.297666,224.168146 C307.785996,228.297009 311.279586,231.557199 312.727646,235.829882 C312.239481,234.392505 315.013971,228.1762 315.352564,226.373932 C316.023176,222.825279 316.391354,219.224852 316.931295,215.655654 C317.939678,208.986522 320.416667,202.890204 321.734057,196.335306 C323.600427,197.643655 325.488166,198.941321 327.334813,200.280079 C328.693294,201.257232 329.580046,182.682281 329.781394,180.610454 C321.593524,185.797009 312.139218,192.566404 308.274162,195.502794 C306.37574,204.308679 303.362919,215.980276 306.297666,224.168146 Z M29.2932281,112.079882 C29.6811308,111.66075 30.071499,111.236686 30.4700855,110.817554 C34.0853057,106.902367 38.1886917,102.669132 38.4188034,102.350263 C40.4257068,100.079553 42.1835963,94.9710717 47.2255095,91.1676529 C50.3303748,88.9355687 53.7154832,88.7859961 55.6410256,88.8065417 L56.8614398,88.8065417 C58.1171926,88.8065417 58.4368836,88.6857331 58.4582512,88.6758711 C59.7764629,87.932117 60.1347798,86.6147272 60.8127876,83.0241617 C60.8127876,80.2389875 63.9998356,72.6263971 71.2384944,73.0710059 C72.5558843,73.0710059 73.9529915,73.2403024 75.4421433,73.5797173 C80.6730769,74.9423077 84.4978632,77.2845168 85.8859303,77.0239974 C86.374096,76.9845496 86.5039448,77.0034517 87.1441486,76.5596647 C88.5223537,75.5356673 89.1403682,73.838593 90.8793557,70.732906 C91.5762656,69.2766272 92.9758383,67.7085799 94.833169,66.4750164 C62.4317883,72.9551282 35.6418475,78.2920776 25,80.4140368 C26.7061144,91.276956 27.2641354,102.261506 29.2932281,112.079882 Z M268.764793,31 C267.416995,31.2991453 265.890039,31.634451 264.211045,31.9976989 C263.980934,32.3420447 263.752465,32.6880342 263.522354,33.03238 C265.510355,33.1704471 267.486851,33.3118014 269.464168,33.4515122 C269.234057,32.6420118 268.984221,31.753616 268.764793,31 Z M305.04931,143.302761 C303.962032,143.347962 302.532873,143.366864 300.016437,140.36144 C299.007232,138.298652 297.100592,132.064267 294.565253,123.218935 C294.824951,128.175378 292.888725,133.721072 297.979126,136.188199 C294.45595,141.450362 293.257725,141.30572 294.624425,147.7357 C296.500657,146.607331 298.388396,145.47403 300.26545,144.345661 C301.014135,145.663051 301.773504,146.986193 302.522189,148.304405 C304.401709,147.549967 306.297666,146.792242 308.173899,146.043557 C305.968935,146.931953 301.754602,159.526463 301.97403,161.862919 C307.723537,159.846154 312.337278,157.899244 318.34977,157.91075 C316.651874,159.792735 314.953978,161.67883 313.256082,163.560815 C315.14382,164.879027 317.020874,166.20217 318.908613,167.520381 C318.537147,169.587278 318.159928,171.663215 317.788462,173.72929 L312.146614,173.72929 C312.388231,175.816732 312.146614,178.084155 311.767751,180.385273 C318.249507,175.762492 326.125082,170.440335 332.886259,167.031394 C334.085306,162.711867 335.243261,158.3833 335.641847,153.90023 C335.981262,150.167488 334.912886,146.008218 336.051118,142.359303 C336.840894,139.822321 338.818212,138.001151 340.114234,135.778107 C329.510191,139.023504 313.007068,143.25263 306.096318,143.407133 C305.757725,143.302761 305.438034,143.302761 305.04931,143.302761 Z M285.479126,90.8487837 C279.857002,70.5595003 273.806706,48.5969757 269.724688,34.3448389 C263.812459,36.8357988 257.691486,37.7184418 254.965483,44.1097962 C253.439349,47.693787 252.470414,54.797666 252.541091,58.6964168 C252.600263,62.1760355 254.437048,63.7695595 256.194116,66.9344181 C256.942801,65.0524326 257.70217,63.1605851 258.450855,61.2827087 C258.968606,61.2785996 260.267916,61.5933596 260.717456,61.8431953 C260.568705,61.7577252 261.396285,69.9398422 261.265615,70.2044707 C260.197239,72.3321828 254.675378,73.7892834 252.758054,75.2924063 C249.305556,77.9880013 250.344346,82.9403353 250.563774,87.5573636 C251.439842,81.4076266 254.954799,80.9276792 258.461538,76.7495069 C261.466141,80.4493754 262.963511,82.1119329 267.845168,82.8507561 C264.851249,87.7118672 264.620316,87.2426036 265.998521,92.7496713 C263.00378,90.3984221 258.889711,86.8341552 255.426529,91.3270874 C252.719428,94.8420447 255.765943,99.993261 257.333169,103.093195 C257.70217,101.02712 258.081854,98.9511834 258.450855,96.882643 C258.588922,96.0649244 264.121466,96.0147929 264.899737,96.3040763 C267.517258,97.2631492 268.03501,99.8387574 269.74359,101.69691 C273.486193,105.764957 277.43261,105.045858 282.37426,103.428501 C280.475838,107.582018 276.602564,108.470414 272.458909,108.430966 C266.768573,108.370973 263.362097,106.079717 262.725181,113.437541 C264.631821,112.718442 266.399573,111.566239 268.306213,110.836456 C267.12689,119.184583 263.752465,127.022354 271.170283,133.707922 C270.853057,132.099606 270.291749,130.526627 270.063281,128.914201 C275.824293,130.63593 280.128205,135.763314 285.807035,137.880342 C284.090237,135.085306 285.44954,130.062295 286.536818,127.247535 C286.507232,129.977646 287.027449,133.052926 289.492932,134.536325 C291.480934,130.940828 292.758054,126.897436 294.556213,123.192636 C292.058679,114.461538 288.942308,103.19428 285.479126,90.8487837 Z M260.706772,165.822485 C258.870809,165.822485 257.03238,165.837278 255.196417,165.797009 C256.093853,160.715648 249.614563,159.870809 248.154997,155.773176 C238.142669,157.485865 227.925707,159.417982 219.909599,151.489809 C217.463018,149.068705 216.762821,141.788955 214.029421,140.930966 C211.363412,140.09188 207.517258,143.197567 203.723702,145.8833 L204.884122,149.746713 C205.15286,150.77071 205.073964,151.219428 205.073964,151.259698 C204.345003,155.968771 202.725181,155.687705 201.917324,156.880999 C200.997699,157.644477 200.089579,158.294543 199.720579,158.578895 L199.791256,158.588757 C199.660585,159.202663 199.571006,161.50378 198.063774,163.806542 C195.747041,166.83169 193.800131,167.319855 193.971072,167.489152 C192.671762,168.682446 190.925378,173.45069 191.033859,177.114398 C191.033859,179.052268 191.44313,180.610454 191.841716,181.228468 C192.471236,182.387245 193.230605,183.624918 193.740138,184.328402 C193.860125,184.244576 194.000657,184.150066 194.149408,184.039941 C195.039448,183.354536 196.067554,182.311637 197.385766,181.249014 C200.359961,178.907627 203.815746,178.11785 207.029093,178.093195 C208.176364,178.093195 209.356509,178.20332 210.54405,178.458909 C213.180473,179.012821 214.957265,181.522682 214.547173,184.209237 C214.458416,184.737673 214.438692,185.102564 214.438692,185.317061 C214.289941,187.040434 214.957265,186.804569 220.299967,191.322978 C221.91568,192.685569 222.876397,192.920611 224.75263,192.979783 C227.478632,193.066075 231.730769,191.558021 237.182774,191.473373 C237.852564,191.473373 238.55194,191.492275 239.148586,191.558021 C243.802597,192.012492 246.118508,195.077909 247.268245,196.415023 C248.047337,196.839908 249.68524,197.683103 252.101414,198.561637 C255.545694,199.840401 260.337771,201.098619 265.510355,201.098619 C266.109467,201.098619 266.747206,200.944116 267.357002,200.908777 C264.582512,200.549638 262.792571,200.924392 260.129849,198.138396 C257.691486,195.591552 256.961703,193.694773 253.53879,192.012492 C250.192308,190.369658 247.51808,189.247041 244.70332,186.700197 C239.620316,182.102071 234.657298,178.058679 230.182446,172.856509 C225.240796,167.090565 218.762327,163.566568 211.233563,162.452991 C218.222387,163.486029 224.094346,165.248849 229.635108,169.77712 L234.717291,175.986851 L240.377219,178.253452 L245.459402,184.464004 L249.414037,185.033531 L261.276298,194.078567 L266.928008,194.638231 L267.486851,196.335306 L273.705621,198.596976 L277.09073,190.114892 L276.523669,183.905161 C275.50378,182.197403 274.305556,180.495398 273.717127,178.672584 C275.415023,178.637245 277.071828,179.043228 278.788626,179.391683 L278.788626,173.162229 C272.637245,170.929323 267.208251,168.743261 260.717456,168.079224 C260.88593,167.369987 260.547337,166.532544 260.706772,165.822485 Z M201.489152,113.523011 C201.489152,113.523011 201.489152,113.532873 201.489152,113.543557 C202.036489,113.55835 202.845168,114.051446 203.663708,114.722058 C205.082183,112.469428 206.079882,109.978468 206.310815,108.285503 C207.14908,102.051118 201.637903,94.0382972 196.535996,91.2169625 C199.780572,89.0111769 203.566732,85.6860618 206.980605,88.8509204 C209.625247,91.2975016 208.76808,94.8716305 208.146778,97.8671926 C207.189349,102.510519 206.980605,107.541749 205.632807,112.065089 C205.301611,113.183596 204.873439,114.286489 204.404175,115.384451 C205.662393,116.708416 206.731591,118.575608 206.500657,120.677022 C206.42998,124.086785 205.15286,127.771039 201.466963,134.390861 C200.129849,136.353386 200,137.351085 199.981098,137.864727 C199.891519,138.73833 200.710059,140.017094 202.57643,142.743097 L202.937212,143.517258 C204.132972,141.825115 206.19165,139.058021 206.45217,138.699704 L207.029093,134.745069 L212.681624,132.473537 L216.065911,138.699704 L220.590072,144.345661 L226.798159,148.304405 C226.798159,144.915187 226.860618,142.463675 227.947896,139.272518 C229.984385,144.369494 231.921433,146.641026 235.834977,150.556213 C236.075773,150.796187 244.461703,147.955128 246.278764,148.553419 C249.094346,149.487837 250.910585,152.412722 252.809829,154.525641 L254.477318,153.397272 L260.717456,153.956114 C262.333991,155.248849 264.002301,157.056049 265.959895,157.863905 C272.7786,149.197732 258.439349,141.065746 252.449047,137.291913 C242.354536,130.926036 231.6905,123.017587 232.501644,109.76808 C234.627712,115.469921 235.804569,121.859632 240.128205,126.423241 C244.353222,130.875904 250.832512,131.630342 255.065746,136.128205 C260.986193,127.785832 251.431624,124.796022 247.357824,118.834484 C242.60355,111.895792 242.224688,103.253452 241.49737,95.1863905 C241.117686,90.9975345 240.938527,76.4051611 236.244247,75.3310322 C238.860947,73.6093031 242.034024,75.0721565 244.920283,74.7771203 C242.924063,73.6947732 240.577745,72.8400723 239.750986,70.5784024 C238.820677,68.0833333 240.748685,66.0164366 239.069691,63.404668 C236.713511,59.745069 230.613905,59.4911243 227.478632,56.7897765 C231.392176,55.1329717 235.674721,56.7363577 239.669625,55.9211045 C238.422091,54.3086785 236.764464,53.0052597 235.416667,51.4585799 C243.113905,52.3124589 239.598948,43.7859961 241.416009,38.2287968 C243.173899,40.0212032 244.670447,42.0527613 246.360125,43.919954 C245.329553,41.6081525 245.910585,38.3939842 246.989645,35.6523669 C217.362755,41.8382643 169.597304,51.4824129 125.404339,60.3499343 C126.662558,60.8430309 127.772025,61.1988823 128.620151,61.0591716 C128.70973,61.0591716 129.008054,61.0591716 128.769724,61.0780736 C129.387738,61.0591716 129.967949,61.0328731 130.557199,61.0328731 C132.284681,61.0780736 133.751644,60.9934254 135.937705,61.9524984 C138.384287,62.865549 140.022189,66.4807692 139.723866,68.223044 C139.71236,68.7818869 139.663872,69.2905983 139.603879,69.7705457 C142.140039,71.4421433 143.916831,73.8681788 145.614727,76.1750493 C147.260848,78.6660092 148.448389,81.1972387 149.3976,83.6832676 L158.173899,83.6832676 L161.111111,84.59714 C164.056542,86.7692308 170.565417,89.8584813 171.295201,98.4013807 L171.295201,98.5912229 C171.205621,100.029421 170.974688,101.101907 170.774162,101.84073 C170.923734,101.915516 171.086456,101.991124 171.254109,102.060158 C172.352893,102.614892 173.782051,102.933761 173.800953,102.873767 C173.800953,102.87952 173.809172,102.884451 173.830539,102.884451 C174.839744,102.825279 175.957429,102.764464 177.166338,102.764464 C179.7214,102.764464 182.767094,102.998685 185.842373,104.381821 C189.737015,106.299145 191.44313,108.514793 192.463018,108.790105 C194.33925,109.708087 199.619494,112.774326 201.489152,113.523011 L201.489152,113.523011 Z" id="Fill-437" fill="#CCCCCC"></path>
    </g>
</svg>