<?xml version="1.0" encoding="UTF-8"?>
<svg width="375px" height="266px" viewBox="0 0 375 266" version="1.1" xmlns="http://www.w3.org/2000/svg" xmlns:xlink="http://www.w3.org/1999/xlink">
    <!-- Generator: Sketch 53.2 (72643) - https://sketchapp.com -->
    <title>map/Mississippi</title>
    <desc>Created with Sketch.</desc>
    <g id="map/Mississippi" stroke="none" stroke-width="1" fill="none" fill-rule="evenodd">
        <path d="M250.865568,231.571706 C252.053115,232.072286 253.284025,232.518092 254.502002,232.975309 L254.410711,232.083698 C253.637018,224.351331 251.600463,216.149576 250.554417,207.829902 C247.380526,182.225757 246.345131,157.036227 246.334481,131.627597 C246.345131,121.837374 246.492719,112.03574 246.749095,102.164116 C247.092198,88.5670488 248.566551,41.4044816 248.566551,23.3744651 C248.583288,20.6144271 248.511776,18.3648592 248.458523,17.4283634 C247.875781,17.00462 246.661607,16.3610169 245.353861,15.022079 C245.169757,15.0106676 245.049557,15.0000169 244.783291,15.0000169 C234.268063,14.9893663 181.002678,20.0096228 165.24277,21.5242963 C165.30287,21.8833751 165.385032,22.2310425 165.400247,22.6129441 C165.400247,23.1956864 165.330257,23.8758061 165.031278,24.6274371 C163.598006,27.8781654 160.73983,28.6678345 159.312644,29.4194656 C158.790762,29.6263923 158.376909,29.8500558 157.836769,30.0067724 C157.864917,30.122408 157.89763,30.27456 157.935668,30.4434488 C158.02772,30.890015 158.163896,31.2818065 158.185958,32.1041883 C158.175307,32.3316556 158.234647,32.5773811 157.832205,33.6234264 C157.603216,33.9277304 157.406179,34.1612838 157.23729,34.3476701 C157.379552,34.5165588 157.499752,34.7120742 157.603216,34.919001 C158.223996,36.225987 157.749282,37.7885884 156.514568,38.5234828 C155.903678,38.8825616 155.244859,39.2484872 154.542678,39.5809394 C154.837092,40.3645224 154.977832,41.1709282 154.973268,41.9225593 C154.859154,44.3881831 154.069485,45.4555296 154.053509,46.5282015 C153.895271,48.042875 153.895271,50.9672372 151.1824,53.1072556 C149.843462,53.9075753 149.402982,53.826174 148.144684,54.2286161 C147.768869,54.3153428 147.415115,54.4028302 147.061362,54.4842315 C146.674135,56.4279738 145.74829,58.2043489 144.458801,59.6459894 C143.03694,61.0457882 141.877542,61.404867 141.790054,61.5691912 L141.778643,61.5897317 L141.713218,61.5083304 L141.757342,61.6239659 L141.796141,61.6338558 C141.757342,62.0264081 142.127832,63.1150559 142.253357,64.8686081 C142.253357,65.2162755 142.28607,65.6849038 142.28607,66.2737322 C142.344649,67.7549323 141.942207,70.1726282 139.964991,71.8485829 C139.115982,72.492186 138.359026,72.8413749 137.107576,73.5154084 L136.99194,73.5640971 C137.270378,74.8109831 137.286354,76.0639551 137.363191,77.3169271 C137.351019,78.3728623 137.314502,79.303272 136.99194,80.3607286 C136.595584,81.3786258 136.033382,82.2169835 135.332722,82.8811271 C135.925354,83.3010668 136.344533,83.9492345 136.476145,84.6780427 C136.638186,85.6259499 136.305734,86.5951584 135.592902,87.2387615 C134.717267,88.1463484 133.490922,88.7192008 132.370322,89.0014429 C132.477589,89.3506318 132.5491,89.7644853 132.560512,90.2323529 C132.577249,91.0707106 132.276748,91.941781 131.813445,92.6774361 C131.55783,93.0753137 131.236789,93.4237419 130.921834,93.7067447 C130.959112,93.7774953 131.003236,93.848246 131.039752,93.9235613 C131.961794,94.0331108 132.881553,94.5184758 133.46886,95.1339308 C134.155065,95.7760124 134.786496,96.8319475 134.776606,98.0620967 C134.699009,98.5413757 134.591742,98.9674014 134.459369,99.3432169 C134.536967,99.4124461 134.607718,99.4900436 134.672382,99.5653589 C135.157747,100.164077 135.375325,100.933206 135.281751,101.689401 C135.261211,101.875788 135.249799,102.092604 135.249799,102.364956 C135.20111,104.412162 136.305734,106.42209 137.211039,109.846272 C137.395143,110.646592 137.54197,111.360946 137.54197,112.209954 C137.706294,113.538241 136.638186,115.629571 135.20111,116.179601 C135.021571,116.261002 134.841271,116.337839 134.672382,116.397178 C134.776606,117.144245 134.853443,117.949129 134.858008,118.820199 C134.858008,119.605304 134.711181,120.460398 134.526316,121.315493 C134.526316,121.342119 134.536967,121.364181 134.536967,121.390808 C135.196546,121.483621 135.915464,121.707284 136.638186,122.207104 C137.72303,122.948084 138.397064,124.385921 138.429777,125.784959 L138.429777,125.932546 C138.082109,129.80938 135.838628,131.225155 136.088157,131.639008 C136.584172,131.878648 137.53208,132.287176 138.528676,133.103472 C138.598665,133.158247 138.675502,133.217586 138.746253,133.283772 C138.756143,133.294423 138.76299,133.304313 138.77288,133.304313 C138.77288,133.304313 138.778205,133.316485 138.785052,133.321049 C138.811678,133.349197 138.83298,133.371259 138.860367,133.3918 C138.898405,133.435924 138.941768,133.479287 138.979806,133.523411 C139.002629,133.543952 139.024691,133.566014 139.040667,133.588837 C139.045232,133.598727 139.050557,133.598727 139.050557,133.610899 C139.672098,134.36253 139.850877,135.412379 139.503209,136.3542 C139.491798,136.376262 139.485712,136.396803 139.475061,136.419626 C139.442349,136.512438 139.410397,136.577864 139.38377,136.626552 C139.252158,136.882168 139.08403,137.116482 138.887754,137.312758 C138.837544,137.367533 138.794942,137.422307 138.740167,137.481647 C138.594101,137.639885 138.408475,137.834639 138.212199,138.053738 C138.153621,138.119164 138.086674,138.189914 138.021248,138.261426 C138.549977,138.277402 139.138044,138.346631 139.753499,138.527692 C139.964991,138.586271 140.167353,138.679083 140.352218,138.788633 C140.362868,138.793197 140.368954,138.793197 140.37428,138.805369 C140.378844,138.805369 140.378844,138.805369 140.378844,138.805369 C140.809435,139.054899 141.163188,139.424628 141.408153,139.871955 C141.631816,140.275158 141.74593,140.722485 141.752016,141.179702 C141.752016,141.451293 141.719304,141.723646 141.637902,141.985347 C141.534439,142.344426 141.36555,142.665467 141.142648,142.948469 C141.272738,143.694775 141.528353,144.718758 141.697242,145.220099 L141.659964,145.224664 C142.16587,146.156595 142.117181,147.289367 141.512377,148.160438 C141.506291,148.165002 141.501726,148.171088 141.49564,148.180978 C141.659964,148.290528 141.822767,148.420618 141.997742,148.57277 C142.765349,149.358635 143.014878,150.022778 143.118342,150.365881 C143.439383,150.610085 143.96735,150.926562 144.582805,151.263578 C145.154897,151.824259 146.832373,151.917071 147.278939,154.933485 C146.957898,157.601471 145.498,158.048038 144.245788,158.947256 C143.227891,159.507937 142.247271,160.046555 141.36555,160.585934 C142.639063,160.629297 143.760423,161.539166 144.01756,162.830176 C144.245788,163.983489 143.727711,165.106371 142.803387,165.71574 C142.765349,165.780404 142.72655,165.867892 142.683187,165.955379 C142.361385,166.532035 142.247271,167.131514 141.479664,168.176799 C141.146451,168.607389 140.75466,169.037979 140.308094,169.440422 C140.340806,169.696037 140.352218,169.941002 140.352218,170.164665 C140.303529,171.868768 139.82425,173.044903 139.067294,174.23245 C137.434702,176.377033 135.353263,177.461116 134.274505,178.42576 C131.742695,180.598491 131.366879,180.978111 131.330363,182.422033 C131.330363,182.596248 131.334927,182.743074 131.356989,182.923374 C131.519031,183.216267 131.836268,184.034084 131.803555,184.768979 C131.803555,185.21022 131.754867,185.427797 131.689441,185.84165 C130.942375,188.296624 129.494648,189.076403 129.194148,189.653059 C128.623578,190.339265 128.046922,190.971456 127.490806,191.564089 C127.594269,191.711676 127.687082,191.864589 127.757072,192.033478 C128.089524,192.790434 128.067462,193.639442 127.713709,194.391074 C126.402158,196.595757 125.138535,197.168609 125.307424,197.276637 C125.203961,197.494214 125.230587,197.505626 125.219937,197.580941 C125.191789,197.80004 125.410888,198.583623 125.56304,200.009288 C125.585102,200.385864 125.57369,200.696254 125.57369,200.947305 C125.56304,201.991829 125.492289,203.260777 124.560358,204.556351 C124.46298,204.698613 124.348866,204.834029 124.233231,204.95499 C124.403641,205.618372 124.485042,206.282516 124.494932,206.958071 C124.494932,207.535488 124.436354,208.052805 124.135854,208.863775 C123.22142,210.427138 122.083323,211.249519 121,211.738688 C121.353753,213.057086 121.544704,213.917505 121.62002,214.778686 C121.871831,217.162908 121.331691,215.626933 122.933092,218.153418 C123.324883,218.698122 123.487686,219.357701 123.433672,219.995218 C130.436469,219.613317 137.477305,219.008512 144.556179,218.54597 C156.912446,217.739564 169.267191,216.923269 181.628023,216.106212 C185.309341,215.867334 188.984574,215.626933 192.660567,215.381969 C194.881987,215.235903 197.08743,215.071579 199.292874,214.854001 C200.430211,214.750538 201.53027,215.349256 202.048348,216.384651 L202.358738,216.987933 C202.635654,217.534159 202.717817,218.143528 202.614353,218.742246 C201.727307,223.631652 199.913655,227.825723 199.036498,231.919374 C198.949011,232.343878 198.910973,232.693067 198.910973,232.987481 C198.829571,234.756248 200.278059,236.3295 202.635654,238.846095 C202.695755,239.270599 206.41435,241.568856 206.95449,246.051255 C207.297593,245.953117 207.64526,245.804769 207.999775,245.587952 C208.081176,245.832156 213.761011,245.702066 215.862231,242.734341 C217.136504,240.94199 220.642848,239.422751 220.299745,236.874205 C221.847132,235.655467 225.723965,235.420392 227.602282,234.925137 C231.349026,233.946039 238.575487,230.187883 240.186017,230.63445 C243.48163,231.549644 248.196821,236.047258 250.865568,231.571706 Z M246.545972,239.303312 L249.634658,239.930178 L253.021563,239.303312 L246.852558,238.687857 L246.545972,239.303312 Z M220.665671,251 L223.731535,249.785066 L224.661944,247.308031 L221.27504,249.785066 L220.665671,251 L220.665671,251 Z" id="Fill-441" fill="#CCCCCC"></path>
    </g>
</svg>