<?xml version="1.0" encoding="UTF-8"?>
<svg width="375px" height="266px" viewBox="0 0 375 266" version="1.1" xmlns="http://www.w3.org/2000/svg" xmlns:xlink="http://www.w3.org/1999/xlink">
    <!-- Generator: Sketch 53.2 (72643) - https://sketchapp.com -->
    <title>map/Missouri</title>
    <desc>Created with Sketch.</desc>
    <g id="map/Missouri" stroke="none" stroke-width="1" fill="none" fill-rule="evenodd">
        <path d="M323.263555,208.168773 C322.966655,207.064571 322.759825,205.873633 322.759825,204.602632 C322.759825,204.321577 322.782343,204.207321 322.789849,204.235676 C322.828212,202.471787 323.02837,201.189945 323.02837,200.164971 C323.023366,199.986497 322.983334,199.815529 322.972492,199.648731 C321.693986,199.014065 320.96758,198.728006 320.630648,198.773042 C320.327076,198.783883 319.954283,198.830587 319.118624,199.310965 C317.858466,200.073232 316.254703,199.792177 315.33231,198.657951 C313.099718,195.663927 307.167547,191.083653 306.045831,185.053071 C305.994957,184.743661 305.960764,184.378374 305.960764,183.953039 C306.177601,180.295158 307.867265,178.628012 307.73466,177.769836 C307.745502,177.586359 307.745502,177.392039 307.745502,177.162692 C307.786368,175.101068 306.709687,171.895211 305.970771,169.088834 C305.164303,165.585242 302.020161,163.861384 298.091234,160.140121 C295.022984,157.058528 293.18487,155.267117 290.876386,155.346346 C290.528612,155.346346 290.154984,155.375536 289.759673,155.448927 C289.617061,155.506472 289.480286,155.536496 289.360192,155.536496 C288.83311,155.666598 288.294353,155.655756 287.790623,155.506472 C287.784785,155.506472 287.779781,155.506472 287.779781,155.506472 C287.750591,155.49563 287.728073,155.488958 287.705556,155.484789 C287.14428,155.301311 286.645554,154.946031 286.285271,154.476495 C286.278599,154.463985 286.272761,154.463985 286.267757,154.453143 L286.216883,154.372246 C286.204374,154.361404 286.193532,154.350562 286.18686,154.338052 C286.176852,154.321372 286.163508,154.303859 286.152666,154.287179 C286.101793,154.201278 286.050085,154.120381 286.003382,154.029476 C286.003382,154.029476 285.999212,154.0178 285.99254,154.006958 C285.981698,153.983606 285.964184,153.949413 285.952509,153.920223 C285.947505,153.915219 285.941667,153.902709 285.941667,153.891868 C285.930825,153.864346 285.911643,153.834322 285.900801,153.806801 C285.894963,153.789287 285.894963,153.776777 285.890793,153.765935 C285.877449,153.742583 285.866608,153.714228 285.8566,153.686706 L285.839086,153.634165 C285.832414,153.611647 285.821572,153.582457 285.815734,153.560773 C285.80239,153.520742 285.791548,153.479876 285.781541,153.434841 C285.764027,153.370624 285.751517,153.308908 285.740675,153.251363 C285.68313,153.193818 285.625584,153.14211 285.563035,153.078727 C284.944215,152.495768 284.005142,151.705146 283.026871,150.942879 C281.113698,149.437527 278.847747,147.851278 278.738495,147.788728 C274.798726,145.406019 270.252646,142.703057 267.812391,137.326323 C266.821611,135.127926 266.432972,132.854469 266.432972,130.655237 C266.460493,125.627945 268.292769,120.979285 269.696375,117.136258 C271.207565,113.279054 274.289158,107.843107 274.169063,104.930814 C274.169063,104.398729 274.081494,103.977564 273.963068,103.685667 C273.201635,101.704941 270.509515,100.533185 267.114341,100.521509 C265.131947,100.521509 263.099513,100.968527 261.891062,101.535641 C260.368196,102.211173 258.954583,102.612322 257.505108,102.612322 C254.252547,102.694887 251.946565,100.147047 251.150104,98.0086968 C250.192684,95.7952872 249.774854,93.4159137 249.202737,91.1683105 C247.13611,82.5765451 240.975426,80.3064242 234.257636,72.3926927 C231.296971,68.597204 225.158804,65.8675546 221.523442,59.7635815 C220.084809,57.2274178 219.042321,54.36433 218.200826,51.8398421 C216.627086,47.0035339 214.587981,42.2556285 214.067571,36.3835047 C214.010026,35.7054708 213.970828,35.0074211 213.970828,34.3060355 C213.96499,31.3912403 214.526265,28.5256505 215.630468,25.8285267 C213.736477,24.2572895 212.909993,22.4041636 212.023461,21.8228725 C209.715811,19.7587472 207.213007,18.1499804 205.118024,15 C199.070762,15.3953113 176.990876,17.9865183 174.2704,18.2408853 C148.716111,20.4601328 123.045898,21.2674352 97.4849369,21.8111967 C92.2399736,21.9196154 87.010856,21.9554769 81.8009202,21.9554769 C71.5053132,21.9554769 61.2564095,21.8111967 51,21.8020228 C51.7322433,23.7010181 53.2909706,25.9286055 54.6770621,28.820049 C56.4392831,33.2401962 62.0286843,36.9539539 64.9376416,43.7084392 C66.4488315,47.326288 65.3729844,46.2554448 67.7031526,48.3971312 C67.7089905,48.4063051 67.7156624,48.417981 67.7265043,48.4263209 C67.7306742,48.4313248 67.7431841,48.4346608 67.7540259,48.4404987 C70.3252172,50.9057733 73.3892967,54.1758482 74.7411945,54.2125438 C74.8729649,54.2242196 75.0155772,54.2350615 75.1356718,54.2350615 C75.874587,54.4043615 76.6760514,53.3818897 79.6934274,53.0816533 C82.1378522,53.0699774 84.0510253,54.9222693 85.2019316,57.1815483 C85.9008153,58.4817388 86.3937034,59.6468229 86.4153871,61.0887917 C86.1118147,64.7116444 83.6732279,65.4555635 83.0886008,66.334589 C81.7834064,67.6572972 79.7910042,70.1334137 78.806896,72.1441637 C78.6000664,72.5644946 78.5308453,72.9247783 78.5208374,73.3459433 C78.4282645,74.6202801 79.7676525,76.7961601 81.4523124,78.3248639 C84.5897829,81.2938684 85.3687296,83.5673253 87.0283698,86.4646067 C88.8214484,89.7230058 92.4051036,91.2517095 96.7118282,94.2807613 C97.4849369,94.8445386 97.9136078,95.7469158 97.9077699,96.6734788 C97.9077699,96.6734788 97.9077699,96.6734788 97.9136078,96.6734788 C97.9035999,101.601526 100.495641,193.797457 100.495641,209.091166 C100.495641,209.103676 100.508151,209.114518 100.508151,209.12536 C100.508151,209.142874 100.495641,209.159554 100.495641,209.182905 L100.495641,209.745015 C100.495641,217.171696 100.966011,224.7118 101.07443,232.379504 C117.238825,232.075932 180.420243,229.88921 187.82524,229.601484 C219.260827,228.38219 250.673896,226.40063 282.030253,223.681822 L283.663206,224.025426 C287.756429,226.195468 291.363436,230.254498 291.415143,235.614552 C291.415143,236.485237 291.3184,237.389283 291.100729,238.305004 C289.165872,244.719221 283.741601,246.27628 282.849232,248.922531 C282.877587,248.932539 282.83839,248.950052 282.768335,249.191076 C282.683268,249.449613 282.586525,249.793216 282.498956,250.171014 C282.43724,250.433721 282.379695,250.719779 282.327988,251 C289.074133,250.296946 295.8478,249.483806 302.678179,248.813278 C303.492153,247.043551 304.2711,245.177082 305.279394,243.218873 C304.756482,242.926142 304.25859,242.853585 303.176905,241.008799 C303.011775,240.562615 302.862491,240.000505 302.862491,239.336649 C302.936716,236.691233 304.93996,235.535323 305.845673,235.09998 C305.981613,235.031593 306.115052,234.974047 306.234312,234.915668 C306.074186,234.510349 305.925736,233.959915 305.821487,233.210158 C305.764776,232.110126 306.509529,230.809935 307.190065,230.347071 C307.471954,230.141075 307.73466,229.968439 307.975684,229.836669 C307.905628,229.693222 307.843913,229.545606 307.779696,229.37297 C307.163377,227.609081 307.150033,226.143761 306.962386,225.204688 C306.955714,225.181336 306.968224,225.152981 306.962386,225.123791 C306.955714,225.078756 306.928192,225.044562 306.922354,224.993689 C306.898168,224.792697 306.955714,224.609219 306.973228,224.425741 C306.984903,224.265615 306.973228,224.104655 307.013259,223.955371 C307.064132,223.739368 307.167547,223.550052 307.270962,223.34906 C307.340183,223.212286 307.391057,223.06884 307.483629,222.942907 C307.609562,222.770271 307.769688,222.640169 307.929814,222.501726 C308.055747,222.392474 308.157493,222.273213 308.306778,222.18064 C308.479414,222.078059 308.674567,222.020514 308.868887,221.952127 C309.018171,221.905423 309.138266,221.815352 309.292554,221.786163 C309.325913,221.779491 309.360107,221.792835 309.400139,221.786163 C309.435166,221.779491 309.46519,221.757807 309.503553,221.757807 L312.292416,221.448397 C312.298254,221.442559 312.304092,221.442559 312.309096,221.442559 L312.413345,221.431717 C312.573471,221.414203 312.716917,221.459239 312.870371,221.471749 C312.968782,221.471749 313.071363,221.471749 313.173943,221.48259 C313.186453,221.38001 313.190623,221.248239 313.203967,221.070599 C313.299876,220.589387 313.133912,220.199914 313.75857,218.928913 C315.849384,216.111695 318.110331,216.3302 318.665768,215.836478 C319.576485,215.413645 320.618139,215.510388 321.442121,216.031632 C321.523018,215.561261 321.573891,215.14927 321.569721,214.811504 C321.551373,214.084265 321.442121,213.868261 321.276991,213.68395 C320.722387,213.082643 320.440499,212.264499 320.515558,211.450524 C320.589783,210.626542 320.995936,209.870113 321.64895,209.372221 C322.221067,208.941882 322.765663,208.546571 323.263555,208.168773" id="Fill-442" fill="#CCCCCC"></path>
    </g>
</svg>