<?xml version="1.0" encoding="UTF-8"?>
<svg width="375px" height="266px" viewBox="0 0 375 266" version="1.1" xmlns="http://www.w3.org/2000/svg" xmlns:xlink="http://www.w3.org/1999/xlink">
    <!-- Generator: Sketch 53.2 (72643) - https://sketchapp.com -->
    <title>map/Nebraska</title>
    <desc>Created with Sketch.</desc>
    <g id="map/Nebraska" stroke="none" stroke-width="1" fill="none" fill-rule="evenodd">
        <path d="M308.823554,88.0279339 C307.269697,87.533315 305.773532,87.0533116 304.438138,86.0740739 C302.105814,84.3632925 300.644265,81.8263514 298.441172,79.9955692 C295.423459,77.1393951 290.204191,76.474775 284.879538,73.5847544 C281.757208,71.7816647 278.40103,69.6978038 274.701773,69.4624175 C271.385596,69.2516468 268.076341,70.7316573 264.736318,70.7885807 C263.490155,70.8093501 262.322454,70.3585777 261.093215,70.2647309 C260.079362,70.1862688 259.715513,70.5716561 259.057047,71.290892 C257.577805,72.9032111 255.80087,74.0701425 253.543161,74.0509116 C248.862359,73.8539871 245.672336,70.5770408 243.670783,69.7385733 C240.352298,68.0647153 236.378424,66.4085496 233.321479,62.8739092 C192.279649,62.8123703 114.475251,60.0477353 78.6142268,57.2938695 C69.3156993,56.5900184 42.0855059,54.8253905 31.7362017,54 C31.535431,62.6654461 25.1223086,147.622972 25,150.843765 C44.93168,152.758394 65.1472081,153.422244 85.3073513,154.653792 C88.3850655,154.851485 91.398933,155.000717 94.4028005,155.012256 C98.5520607,155.032256 101.119771,158.448434 101.119771,162.288461 C101.119771,166.209258 100.307458,172.762382 100.268996,173.588541 C99.5905296,184.554773 99.3789897,195.659467 98.4174444,206.829547 C115.403719,207.935708 197.198915,211.364194 226.02912,211.351117 L228.59683,211.351117 C236.589964,211.269578 254.003934,211.258809 273.663304,211.24804 C301.481963,211.24804 333.746808,211.291886 350,211.320348 C349.783075,210.736498 349.583074,210.154955 349.36538,209.57572 C347.698445,205.057996 342.396869,201.534125 339.472233,195.28408 C338.404533,192.553292 335.131433,189.344807 334.99297,184.10477 C334.995278,182.387835 333.625268,181.606291 332.456029,180.642438 C331.426791,179.793201 330.828325,178.836271 331.023711,177.4778 C331.456791,174.457778 331.89141,171.567758 331.89141,168.835431 C331.89141,164.853864 331.79064,160.532295 330.846787,156.652267 C330.051397,153.233782 328.656772,149.501447 328.511386,145.118339 C328.511386,141.630622 326.715989,137.420592 324.72059,137.399054 C323.499043,137.142898 322.564421,136.128275 322.448266,134.880574 C322.136725,131.565166 322.505189,128.235142 322.203649,124.919734 C322.009032,122.774334 320.441329,120.420472 319.652092,116.779677 C319.09055,112.978111 314.994367,109.306547 313.104353,103.068041 C312.242809,100.223405 311.100493,97.464924 310.397411,94.573365 C310.07664,93.2541249 309.868177,91.7779606 309.795868,90.3748737 C309.746637,89.42179 309.942792,88.3840903 308.823554,88.0279339" id="Fill-444" fill="#CCCCCC"></path>
    </g>
</svg>