<?xml version="1.0" encoding="UTF-8"?>
<svg width="375px" height="266px" viewBox="0 0 375 266" version="1.1" xmlns="http://www.w3.org/2000/svg" xmlns:xlink="http://www.w3.org/1999/xlink">
    <!-- Generator: Sketch 53.2 (72643) - https://sketchapp.com -->
    <title>map/New Jersey</title>
    <desc>Created with Sketch.</desc>
    <g id="map/New-Jersey" stroke="none" stroke-width="1" fill="none" fill-rule="evenodd">
        <path d="M287.54612,22.315072 C287.54612,22.315072 282.149731,24.4722982 281.911926,24.5668292 C281.711787,24.6266496 280.448174,23.0698427 280.262066,22.8623177 C273.32364,24.6406815 268.601523,27.6582872 264.783358,33.8005844 C260.876571,40.0868937 259.030263,41.260407 251.53573,42.0011457 C252.299363,41.9258164 259.048726,33.9039777 259.834515,32.8309035 C261.821881,30.1234775 261.654236,28.68705 261.654236,25.1288453 L267.27809,15 C263.422999,19.6054305 259.49701,24.1739349 255.660382,28.8059522 C249.566827,36.161643 244.050797,39.3269533 234.628719,41.6533013 C230.073508,42.7706869 225.303387,42.8297687 220.781409,44.1628031 C218.898914,44.717434 216.753504,45.2225838 215.339232,46.6848597 C214.055679,48.0134629 213.968533,50.0200304 212.782465,51.4003302 C211.300987,53.1247818 209.008611,52.3367776 207.0338,52.7008695 C205.081884,53.0612688 203.370725,54.3426065 201.646274,55.2495129 C194.36222,59.0824482 184.024372,56.2945232 184.432037,67.7047063 C182.631518,67.3516922 180.851677,66.7217319 179.072575,66.2638476 C181.748983,66.9499356 170.484289,75.760517 169.957722,76.2634513 C167.315286,78.7537515 160.765324,89.5568684 164.889976,92.7834762 C167.355166,94.7110217 174.96934,91.4903221 177.841456,90.943815 C175.773592,92.4444941 199.689187,79.8068855 213.804581,72.1727715 C223.35664,67.0090174 233.016523,61.1650836 242.847005,56.6674774 C244.985029,55.6926269 247.498962,56.1150621 249.656188,55.2399121 C255.331,52.9290731 260.758407,48.2527444 262.200004,42.5572537 C270.023919,41.165876 273.857593,36.5434595 279.663123,31.3154539 L285.837177,27.3746943 L293.717958,17.8174659 L287.54612,22.315072 Z M145.297694,100.347431 C144.333922,95.8697645 144.673642,88.9771278 146.828653,84.8702004 C148.180889,82.2927545 150.32556,80.3098198 152.612766,78.4561266 C152.586179,78.4804979 149.746558,76.9347689 149.432686,76.8099585 C147.384761,75.997583 145.161067,75.6083813 143.062185,74.9414948 C127.945354,70.1396172 113.352136,63.5601142 98.9885987,60.3800334 C97.4029894,62.3703534 94.5094556,63.5350044 93.8270602,66.1301749 C93.1690361,68.6285988 93.2510121,71.392891 92.8248843,73.942273 C91.8611115,78.1016355 89.8744842,81.2824548 88.9993342,83.6390823 C87.3797529,87.853834 85.1228261,91.3810207 82.0535238,94.5913809 C82.2558791,94.4008419 84.8156005,97.6503439 85.0585746,98.0314219 C87.8679167,102.436713 87.6759007,108.739269 85.2129259,113.31959 C84.8665586,113.963582 81.9353601,117.133324 82.0010886,117.458274 C82.9463983,122.100631 83.7617279,125.091649 86.2261797,127.597459 C85.5895727,128.233327 90.2518695,127.57678 94.1593956,133.730155 C94.3351642,134.088339 95.8144261,138.179757 95.9569611,138.142831 C97.3202748,139.286065 101.156903,139.797861 105.249798,143.193591 C108.670637,146.24443 111.45487,148.981397 114.713234,151.401538 C114.824013,151.527825 119.911699,154.772896 122.009843,156.744014 C125.605712,160.122758 122.418985,165.114436 120.231479,168.285654 C118.082377,171.19322 115.106867,173.628131 112.591457,176.224778 C110.723732,178.151585 108.502254,180.028911 107.172912,182.468992 C105.747563,185.086318 105.392333,188.213225 104.337722,190.987857 C101.413909,197.889356 93.9577788,201.874427 88.0776573,205.950336 C88.8353821,207.554408 90.1270591,208.749339 91.1388359,210.175427 C92.1040857,211.535787 92.4511915,213.152414 93.181591,214.633892 C94.5138868,217.336148 97.6887979,216.562914 99.9745271,217.853114 C102.317861,219.176548 103.17381,222.094453 102.009897,224.483575 C105.520098,226.752318 108.878162,229.192399 112.318203,231.871022 C117.933934,229.057988 131.004317,225.077348 131.948888,235.070305 C132.027171,235.915175 129.344117,251.099212 130.310105,250.999511 C139.117732,250.114022 142.157494,247.187255 145.138173,238.663959 C146.939431,233.528268 148.34041,228.199085 148.896518,222.774633 C149.293105,218.943913 147.802765,213.560817 150.089971,210.295806 C152.584702,206.747203 155.764783,206.747203 156.928696,201.950495 C157.933087,197.771192 157.543886,194.053466 159.204086,189.900012 C161.847999,183.250349 165.784327,177.892364 167.107022,170.694717 C167.544228,168.384616 168.049378,142.859778 164.631492,143.560637 C169.39349,142.581355 169.094388,131.021252 169.561135,127.248876 C170.376464,120.673065 171.310696,112.160847 167.762831,106.196534 C163.059915,98.289905 147.336018,109.82933 145.297694,100.347431 L145.297694,100.347431 Z" id="Fill-447" fill="#CCCCCC"></path>
    </g>
</svg>