<?xml version="1.0" encoding="UTF-8"?>
<svg width="375px" height="266px" viewBox="0 0 375 266" version="1.1" xmlns="http://www.w3.org/2000/svg" xmlns:xlink="http://www.w3.org/1999/xlink">
    <!-- Generator: Sketch 53.2 (72643) - https://sketchapp.com -->
    <title>map/North Carolina</title>
    <desc>Created with Sketch.</desc>
    <g id="map/North-Carolina" stroke="none" stroke-width="1" fill="none" fill-rule="evenodd">
        <path d="M349.771378,90.6495633 C350.534806,88.2087637 349.231012,85.4303202 348.143501,83.2939425 C347.580761,82.1847347 344.069399,78.2821673 344.165675,77.5506055 C343.703957,81.0816289 339.259668,80.191415 339.04203,83.9563484 C338.839986,87.3605859 341.385876,91.5614732 336.767341,93.0781589 C336.338167,91.7309732 336.576145,90.1078414 337.239906,88.8515076 C333.241063,87.6155138 335.774749,84.5401063 336.237145,81.7813248 C336.767341,78.5893013 334.767919,75.8101797 331.331137,77.3905975 C329.596136,78.1858914 329.299172,79.9317411 327.983852,81.0653569 C326.362076,82.4654267 324.982346,81.8877708 322.988349,81.6647088 C320.527887,81.3887628 318.170482,82.0572707 315.943252,83.0539306 C314.017732,83.9149904 312.028481,85.2784482 310.201949,83.4464925 C307.190273,80.418545 305.370522,73.8697441 306.717707,69.9129367 C307.310957,73.2866642 307.709621,77.6455255 311.125385,79.4117152 C315.702562,81.7813248 320.108883,78.0963954 322.892751,74.7816539 C322.155765,74.170776 321.313011,73.6093921 320.681793,72.8873222 C322.713081,72.4378083 324.764708,73.6683781 326.79125,73.1856422 C326.53022,72.4161123 326.07596,71.6628544 325.502372,71.0479085 C327.42857,71.5462384 330.647036,71.7577744 331.289101,69.2878208 C332.036257,66.4124233 328.185896,64.7370856 326.07596,64.1790916 C330.036836,63.0929358 333.897367,68.432863 338.04537,67.4463731 C337.101594,65.2984695 335.202517,63.8570417 333.849907,62 C306.834323,68.5555809 217.943792,88.0982497 192.539814,92.781195 C183.677677,94.4151747 134.176228,102.126067 128.017955,102.996619 C124.118099,103.547833 120.244008,103.779031 116.312286,103.589869 C115.92447,103.593937 116.077698,110.092566 116.026848,110.71836 C115.886503,112.439124 115.163077,114.069714 113.982001,115.328759 C112.773127,116.617637 111.029989,117.188513 109.822471,118.460441 C107.961362,119.828645 108.50105,124.750246 104.201174,128.918589 C103.400457,129.544383 102.546177,130.224417 101.072205,130.265775 C98.3215594,129.785751 96.9987816,128.326695 94.613578,130.438665 C92.4419443,132.360795 90.7869466,134.883632 89.0166889,137.159678 C87.7861191,138.742129 85.9914534,139.841167 83.9303337,139.764553 C82.6814579,139.718449 81.6129301,139.094689 80.5776243,138.456692 C79.0900925,137.540036 79.1355185,138.11159 78.4154826,139.504201 C77.9646127,140.395771 76.9835468,142.241287 74.8098792,142.739617 C74.5868172,143.938321 74.3318893,145.359408 73.7223674,146.90796 C72.4653556,150.102018 70.3181299,150.462714 67.3796784,151.310891 C65.2046548,151.670909 60.9461375,156.061637 58.2090519,158.73499 C55.9024963,160.722886 53.8284946,164.722407 48.4248355,165.602451 C43.7574843,166.264857 40.7078408,166.583517 37.7429472,169.023639 C35.3245216,170.625074 36.2262615,174.284918 33.3623899,179.407207 C31.0660043,182.71788 27.6780389,183.469782 25.2494433,184.133544 C24.4480474,184.368132 25.8854072,191.485775 25.3070733,191.573915 C35.3896096,190.035533 66.1436846,185.464458 69.749288,184.642044 C72.6606195,183.247398 76.4797929,180.001813 81.3010501,179.327881 C82.8123119,179.338051 83.9093157,177.381343 87.1989712,175.070042 C90.1360667,173.361482 92.7660283,173.350634 94.13491,172.566188 C95.2753059,172.061756 96.6109656,170.884748 98.9344713,170.196578 C102.270909,169.267041 105.435812,169.235853 108.248156,168.938211 C110.925577,168.683283 136.145817,165.015303 146.334122,164.998353 C149.011543,164.994285 151.219111,165.258027 153.070728,167.378811 C153.084288,167.408643 154.824714,167.143545 154.97862,167.137443 C158.71779,166.978791 162.759347,172.164134 163.710581,175.371752 C163.800755,175.675495 164.473331,178.791583 164.506553,178.791583 C164.522825,178.791583 164.522825,178.791583 164.522825,178.791583 C165.79882,178.791583 205.609618,171.989888 205.867936,171.941072 C206.599498,171.802082 207.357502,171.972938 207.956853,172.411604 C210.571221,174.316106 239.921158,195.24325 252.993674,204.556257 C255.125984,202.403607 257.481355,200.446221 260.381161,198.976996 C271.847495,193.176029 284.210823,196.63315 279.177352,179.513653 C281.732733,181.932078 284.528805,177.355579 286.532295,172.979768 C288.039488,169.68062 290.155526,167.134731 292.430216,164.685117 L291.136592,167.522547 L293.543492,164.515617 L299.547859,158.808892 L298.943083,158.808892 L295.760551,161.116804 C296.386345,160.452364 297.012817,159.805552 297.627085,159.105178 C295.054753,155.827727 301.234722,154.841915 302.82531,153.607277 C304.80846,152.068217 305.449848,149.045016 306.426845,146.848974 C307.555715,147.126276 308.654075,147.608334 309.745655,148.000218 L317.250436,144.107821 L320.262789,144.107821 L320.553651,142.596559 L324.452151,142.903693 L325.661702,139.594375 C325.661702,139.594375 328.812368,141.604645 328.955426,141.689395 C330.409058,142.616899 332.396275,136.104032 332.879011,135.368402 C333.606505,134.254448 334.878433,133.495766 335.546941,132.324183 C336.161887,131.242773 337.206684,126.489993 334.729951,126.944931 C332.714935,127.328679 333.711595,131.359389 330.116162,130.669185 C330.497876,130.738341 329.958188,126.182182 329.299172,125.645884 C328.227932,126.420838 327.671972,128.410089 326.441402,128.940963 C326.551916,129.793209 326.785826,130.652913 326.914646,131.485497 C326.684804,129.990507 320.988927,132.60962 320.055321,132.975062 C315.431362,134.763626 311.479301,134.444966 310.196525,129.025035 C313.091584,131.214975 315.876808,132.493005 319.121715,130.192551 C320.581449,129.151821 321.821511,127.619541 322.612737,126.01336 C323.180223,124.846522 323.900259,122.629462 323.530071,121.472116 C323.363961,121.482964 320.978757,121.67416 320.963163,121.807048 C321.365895,118.497731 325.921376,119.457101 326.164778,115.432493 C320.639079,114.292097 315.28288,112.408614 309.740909,111.364494 C307.698773,110.98278 302.45919,110.791584 302.214432,108.002293 C304.803036,107.843641 307.619447,109.444398 310.313141,109.603728 C313.410244,109.784076 316.56091,109.147434 319.658013,109.073532 C319.499361,107.545321 316.969744,101.83385 320.988927,103.186459 C319.048491,106.188643 323.163951,108.627408 325.79459,108.36231 C326.043416,107.545321 326.202068,106.661209 326.271224,105.816421 C330.227354,109.858656 336.056119,110.622762 340.235988,106.411705 C343.268681,103.356637 342.505254,99.2093119 344.579255,95.7989725 C345.894575,93.6300508 349.001849,93.0944309 349.771378,90.6495633" id="Fill-452" fill="#CCCCCC"></path>
    </g>
</svg>