<?xml version="1.0" encoding="UTF-8"?>
<svg width="375px" height="266px" viewBox="0 0 375 266" version="1.1" xmlns="http://www.w3.org/2000/svg" xmlns:xlink="http://www.w3.org/1999/xlink">
    <!-- Generator: Sketch 53.2 (72643) - https://sketchapp.com -->
    <title>map/Ohio</title>
    <desc>Created with Sketch.</desc>
    <g id="map/Ohio" stroke="none" stroke-width="1" fill="none" fill-rule="evenodd">
        <path d="M170.57663,58.3622191 C144.526648,64.8930806 118.583523,70.1958344 92,74.1732708 C94.3270971,95.7798034 105.278404,183.863694 109.580862,222.170265 C109.661005,222.751297 114.451738,223.131231 114.970437,223.191338 C117.72125,223.508939 119.88732,222.581366 122.611419,222.447053 C130.584101,222.055246 134.225385,230.393763 139.083645,234.93739 C143.115994,238.708534 149.340385,237.000314 154.206066,238.692951 C157.160203,239.719961 158.277744,241.961721 160.695372,243.571989 C162.616563,244.851299 163.636152,243.812416 165.125465,242.468547 C166.797324,240.959199 169.51697,239.601973 171.821063,239.679148 C177.835452,240.038304 181.342423,243.578668 183.421672,243.220995 C189.187471,242.228862 192.563097,230.135526 199.198589,232.805455 C202.821321,234.262859 201.731236,240.954005 205.609237,242.70749 C209.427872,244.927731 213.456511,246.612947 217.00949,251 C222.4985,248.813152 226.585019,243.844325 228.044649,238.097078 C229.041977,234.170101 226.197664,230.182276 226.950112,226.172931 C227.784187,220.857562 230.040046,215.883541 232.757466,211.604086 C235.22036,207.726828 240.42813,212.109429 242.514058,214.186452 C243.688738,213.023645 241.737122,209.509996 241.754932,207.881918 C241.792035,204.452121 243.207141,201.159606 245.1313,198.373916 C246.682204,196.128445 249.491639,194.374218 250.644799,191.941748 C251.87068,189.357157 253.320664,182.46046 257.210537,182.746153 C259.512404,182.9146 261.325997,184.46773 263.449027,185.183817 C265.39619,185.831634 269.513134,177.58068 270.187665,176.529924 C272.705472,172.608885 275.710811,170.699567 277.235,168.439997 C280.779074,163.189187 278.216744,156.670941 278.398549,150.970443 C278.466818,148.828119 279.719414,146.929932 279.95613,144.815064 C280.261117,142.089481 280.327902,139.337926 280.796883,136.630895 C281.346007,133.463045 283.052001,129.194721 282.828641,125.902947 C282.983731,122.985913 282.482841,120.197256 281.169397,117.571109 C280.083023,115.401328 277.583768,113.220417 277.871687,110.49335 C278.1648,107.713597 281.171623,105.73972 283.297622,104.360974 C281.708132,93.7287523 270.997252,34.4642082 266.766773,15 C258.351082,19.8716175 249.994013,24.8745794 242.255822,30.7843375 C236.149418,35.4415 232.974147,42.5763975 226.962727,47.4168485 C223.762969,49.9947616 220.241899,49.8322506 216.305276,49.7342988 C211.995397,49.6267003 209.20006,51.2176748 205.497186,53.2998925 C202.264035,55.1216474 199.023463,57.0769729 195.744304,58.7948395 C191.801002,60.8607319 189.409346,58.1396014 185.504632,57.2728765 C180.719093,56.2043115 178.574542,57.9511184 174.402687,59.7988454 C172.225485,60.7635221 171.522013,60.4377582 170.57663,58.3622191" id="Fill-456" fill="#CCCCCC"></path>
    </g>
</svg>