<?xml version="1.0" encoding="UTF-8"?>
<svg width="375px" height="266px" viewBox="0 0 375 266" version="1.1" xmlns="http://www.w3.org/2000/svg" xmlns:xlink="http://www.w3.org/1999/xlink">
    <!-- Generator: Sketch 53.2 (72643) - https://sketchapp.com -->
    <title>map/Oregon</title>
    <desc>Created with Sketch.</desc>
    <g id="map/Oregon" stroke="none" stroke-width="1" fill="none" fill-rule="evenodd">
        <path d="M47.2147247,193.765489 C59.8541627,196.779358 76.3281514,201.892354 86.9891744,204.747887 C99.6066649,208.138784 173.651432,227.386003 183.952672,229.976597 C183.962862,229.978949 183.969917,229.976597 183.980107,229.978949 C213.108426,237.31335 242.471114,243.405363 271.913755,249.70823 C272.948425,249.931625 275.123584,250.383901 278.128831,251 C282.540289,226.396795 288.343848,202.033445 293.615964,177.73829 C294.555789,173.504764 296.727029,170.370967 297.960795,167.299878 C298.942948,165.104339 299.243159,161.709523 301.176111,158.579645 C301.314851,158.347628 298.902972,157.34588 298.620005,157.226736 C295.228325,155.796226 293.043759,152.943044 293.071194,149.168065 C293.342403,141.327302 300.832005,134.434204 304.459622,131.198508 C307.440569,128.701974 309.199509,127.532483 310.614342,124.670679 C313.311539,119.193981 317.041839,112.847219 320.527581,107.418336 C321.994147,105.32548 323.765628,103.518726 325.470483,101.626534 C327.24745,99.6543895 328.154355,97.7559263 327.389326,95.1002726 C326.309976,90.7758212 321.412537,87.0282768 319.369063,80.7849823 C312.209459,79.1984879 278.10218,71.6485303 261.265273,68.1659242 C258.107961,67.5129845 254.804854,68.34464 251.624811,68.3563976 C246.056404,68.3775613 240.632223,66.5692398 235.03403,67.0223 C231.815578,67.2825353 228.498363,67.7418662 225.265802,68.2599851 C222.019132,68.7812395 218.778733,69.6285717 215.471707,69.6285717 C209.915058,69.5588099 204.672728,67.2496139 199.119998,67.1108741 C193.040526,66.9588089 187.40706,63.5310717 181.858249,61.4264583 C177.932772,59.9387278 173.72041,59.4402049 169.543321,59.4558817 C160.351216,59.488803 150.197338,62.1860003 141.857269,56.7790643 C138.264925,54.4487047 135.98238,50.524796 136.006679,46.2285629 C136.054493,42.0749888 137.411322,38.3893679 137.360372,35.4985618 C137.360372,32.1256935 135.357658,28.6148691 132.124314,27.4046185 C131.124916,27.0111302 129.669323,26.9194208 127.912735,26.3644613 C126.145957,25.9090496 123.991178,24.0905382 123.525577,21.432533 C123.012161,19.5850195 122.456417,19.4948777 119.941071,18.9994902 C117.554275,18.635004 114.32093,18.9681365 111.200459,17.402022 C110.505192,16.9905054 109.857739,16.5107946 109.243991,15.9856211 C109.073898,15.8398266 107.750774,14.5245412 107.436454,15.1837516 C106.570309,16.9975599 105.803713,18.5103733 105.595211,19.0026255 C105.052793,20.2865573 104.026745,21.7774231 103.931116,23.1899048 C103.701451,26.6215612 106.023972,27.5268977 103.640311,30.6763713 C102.02795,32.8060676 100.908625,34.1989533 103.415349,36.3451102 C102.563314,36.0496021 101.486316,35.9390805 100.678176,35.5573499 C102.47474,36.4070337 73.7689102,104.626294 71.6901635,111.252103 C72.1040316,109.93525 61.4422248,125.463926 61.2125593,125.398867 C61.9125294,125.601882 50.1329651,146.899629 49.3765585,149.738702 C46.7530422,159.60491 46.7499069,170.400753 47.2711612,180.538954 C47.4765276,184.520083 47.4600669,189.033441 47.2147247,193.765489" id="Fill-458" fill="#CCCCCC"></path>
    </g>
</svg>