<?xml version="1.0" encoding="UTF-8"?>
<svg width="375px" height="266px" viewBox="0 0 375 266" version="1.1" xmlns="http://www.w3.org/2000/svg" xmlns:xlink="http://www.w3.org/1999/xlink">
    <!-- Generator: Sketch 53.2 (72643) - https://sketchapp.com -->
    <title>map/South Carolina</title>
    <desc>Created with Sketch.</desc>
    <g id="map/South-Carolina" stroke="none" stroke-width="1" fill="none" fill-rule="evenodd">
        <path d="M198.160519,37.7815173 C195.898667,37.7683264 193.757084,37.1413704 191.966225,35.2286891 C190.07139,33.2050489 189.890597,30.8493083 189.421932,28.2538036 C188.733677,24.450943 185.631486,20.8288755 182.661205,18.4529605 C182.625512,18.471583 182.582835,18.4878776 182.540159,18.5049482 C180.142518,19.4376229 177.470971,21.1089882 175.253347,18.6453926 C173.292558,16.4673412 172.153484,14.9457314 171.975795,15.0155657 C171.147096,15.3375789 169.427623,15.0008229 168.528313,15.0000469 C153.063916,14.9806486 111.334873,20.979407 106.460445,21.4767817 C101.323751,21.9772602 96.6425317,22.1177046 92.6278407,23.2746246 C90.9797534,23.6602646 89.3130436,24.994098 86.2007658,26.6158035 C81.3783258,28.7992864 77.4350209,28.9110211 75.5130283,30.2968421 C72.7274193,31.6042937 69.9650885,37.3718233 62.0660637,38.6265112 C58.2352694,38.9314539 52.6935371,42.825099 47.1021448,45.8947004 C45.1739448,51.3115071 41.9732103,54.5719886 39.9037899,57.9387734 C37.7047883,61.3831517 35.8456465,64.3534333 36.0101449,65.7051132 C36.346125,68.456581 38.9843062,68.9275739 41.2120174,69.7384267 C43.8905472,70.7137777 46.5659733,71.1320071 48.0712885,73.7461342 C49.197947,75.702268 51.536617,77.2921601 53.6145727,78.0937016 C56.9914446,79.3957216 60.771803,76.5976977 63.8452841,78.7346245 C78.8968836,89.2004444 83.1497869,107.38372 94.0563382,116.168088 C98.832998,120.401592 106.643566,122.654134 113.299542,128.905071 C119.357272,134.858825 122.810185,139.925685 128.832222,142.985975 C131.516183,144.502929 137.338028,146.026867 141.29142,149.9725 C144.419993,153.670609 143.508268,157.142145 143.90322,157.756686 C144.070046,159.509525 146.682621,161.578945 149.732824,165.752703 C151.680423,168.830063 156.973855,173.273071 160.631616,175.54501 C163.757085,177.486401 167.45985,178.187847 170.641186,180.018279 C172.437477,181.05105 174.155398,182.242887 175.902805,183.355579 C177.093867,184.117547 177.858163,185.424999 177.953603,186.844185 C177.723926,192.104253 185.273004,197.138523 186.861344,207.780481 C186.898589,208.211901 187.028947,213.302815 187.518562,213.302815 C188.74454,216.862031 198.013091,216.002295 204.113497,225.578116 C206.568558,230.311324 210.266667,234.938228 211.083727,242.339878 C211.309525,244.382917 210.711278,247.152231 212.16383,248.905846 C216.386471,254.001415 224.04806,248.743675 226.223784,244.327825 C229.398136,237.884456 231.791122,225.094709 232.58956,225.663469 C243.054603,222.217539 255.961517,214.188157 251.426949,204.080044 C250.858188,204.125048 264.455684,195.209547 264.09565,185.117728 C270.487032,188.301392 275.878233,182.952868 279.67411,178.392694 C287.265864,169.25838 278.676257,170.55652 279.262088,161.291073 C283.417224,160.526776 287.179736,163.798121 291.334871,162.28815 C295.209118,160.886034 296.262062,156.749521 298.38347,153.706302 C303.957792,145.738219 312.978044,140.0832 317.512612,131.464883 C316.721933,131.017944 325.813571,100.352191 331.311075,90.2433019 C333.607069,86.0090211 336.176191,82.0300231 338.964904,78.2605278 C318.562452,63.7156142 276.090063,33.4355018 266.655462,26.6778783 C254.199367,28.8062698 217.001788,34.2331636 207.269228,36.1621396 C204.378867,36.7355561 201.16339,37.7993638 198.160519,37.7815173" id="Fill-461" fill="#CCCCCC"></path>
    </g>
</svg>