<?xml version="1.0" encoding="UTF-8"?>
<svg width="375px" height="266px" viewBox="0 0 375 266" version="1.1" xmlns="http://www.w3.org/2000/svg" xmlns:xlink="http://www.w3.org/1999/xlink">
    <!-- Generator: Sketch 53.2 (72643) - https://sketchapp.com -->
    <title>map/South Dakota</title>
    <desc>Created with Sketch.</desc>
    <g id="map/South-Dakota" stroke="none" stroke-width="1" fill="none" fill-rule="evenodd">
        <path d="M341.6754,47.6289317 C342.606198,46.4925104 343.288208,44.6112937 343.865052,42.5268083 C314.054399,42.510327 229.697095,41.979003 176.762467,39.2949141 C126.463269,36.726194 55.4440036,33.0359641 38.3113543,32 C38.0162615,41.2326379 36.784092,50.1796009 36.4175805,58.9287889 C36.0236002,66.9684985 36.9669554,76.4789632 33.2319908,85.4290654 C33.1464452,110.589652 26.5861239,184.642252 25,201.938929 C36.810776,202.886208 69.3471132,204.990314 80.4123089,205.826934 C122.831116,209.085512 216.299411,212.396673 263.957685,212.384116 C265.046232,212.384116 266.062576,212.917794 266.691217,213.813275 C268.959351,217.082056 272.891306,218.924817 277.506055,221.193735 C280.985168,223.10399 284.656562,225.799066 286.172052,225.574608 C286.590362,225.56205 286.800694,225.511037 287.21351,225.247337 C287.470147,225.603646 287.849215,222.954089 291.650105,221.383662 C292.514978,221.095632 293.289597,221.042264 293.932365,221.042264 C295.951711,221.068164 297.464846,221.605766 298.127235,221.658349 C298.532988,221.70073 298.965424,221.727413 299.371177,221.727413 C302.373119,221.809035 306.110438,220.229974 310.90805,220.148353 C311.431526,220.148353 311.96442,220.172682 312.480047,220.229974 C318.157445,220.806818 322.587761,223.749898 326.434955,225.891675 C330.912361,228.57341 337.637495,229.258559 343.432615,234.161338 C343.051192,233.166184 342.789847,232.137283 342.789847,231.05423 C342.801619,228.403888 343.91685,226.147527 345.331883,223.9618 C346.891323,221.517081 347.534091,219.664118 347.587459,216.943928 C347.600016,215.265195 347.698119,213.215241 348.701906,211.073464 C349.442777,209.683546 349.802225,209.038422 349.880707,208.810824 C349.880707,208.753532 349.880707,208.715076 349.880707,208.715076 C349.841466,208.693101 349.711971,208.130384 348.387192,206.89586 C347.29943,205.684881 345.090158,204.117593 344.92613,200.585897 C344.913573,199.006052 345.555557,197.494486 346.48557,196.285861 C346.683345,195.997831 346.644104,196.036288 346.656661,195.860488 C346.808132,195.365265 345.678774,193.425187 344.79428,190.636717 C344.690684,190.106178 344.441895,189.009782 344.283362,188.427445 C344.021231,188.158251 343.799127,187.845108 343.635099,187.495862 C343.628036,187.492723 343.628036,187.48566 343.628036,187.48409 C343.608415,187.440925 343.588795,187.39776 343.576238,187.355379 C343.562111,187.325556 343.549554,187.300442 343.536996,187.270618 C343.529933,187.247074 343.52287,187.227453 343.510313,187.207833 C343.497755,187.171731 343.490692,187.136414 343.476565,187.101097 C343.471071,187.083046 343.471071,187.06735 343.464008,187.054793 C343.452236,187.015552 343.444388,186.97631 343.432615,186.937069 C343.424767,186.922943 343.417704,186.907246 343.417704,186.893904 C343.405931,186.855448 343.398083,186.816207 343.39102,186.775396 C343.39102,186.762839 343.386311,186.745573 343.378463,186.734586 C343.378463,186.696914 343.365905,186.660812 343.365905,186.620002 C343.359627,186.605875 343.351779,186.584685 343.351779,186.566634 C343.34707,186.529747 343.340006,186.49443 343.340006,186.459898 C343.340006,186.438708 343.332943,186.417518 343.332943,186.399467 C343.327449,186.360226 343.327449,186.317061 343.327449,186.278604 C343.327449,186.260553 343.320386,186.244857 343.320386,186.2323 C343.313322,186.171869 343.313322,186.116146 343.313322,186.061209 C343.313322,186.003917 343.313322,185.950549 343.320386,185.893257 C343.405931,184.113282 344.874332,182.705313 346.669218,182.705313 L350,182.705313 C349.973316,165.739831 349.86815,88.9788122 349.303863,80.3143849 C349.095101,77.8649576 347.829969,76.1909337 345.358567,75.421024 C339.269923,73.2478538 333.272319,66.6373039 332.82654,59.0637782 C332.812413,57.1566624 333.389257,55.0525565 334.772897,53.3910897 C337.676736,50.0909161 340.783058,49.0745725 341.6754,47.6289317" id="Fill-462" fill="#CCCCCC"></path>
    </g>
</svg>