<?xml version="1.0" encoding="UTF-8"?>
<svg width="375px" height="266px" viewBox="0 0 375 266" version="1.1" xmlns="http://www.w3.org/2000/svg" xmlns:xlink="http://www.w3.org/1999/xlink">
    <!-- Generator: Sketch 53.2 (72643) - https://sketchapp.com -->
    <title>map/Virginia</title>
    <desc>Created with Sketch.</desc>
    <g id="map/Virginia" stroke="none" stroke-width="1" fill="none" fill-rule="evenodd">
        <path d="M339.698704,177.680587 L335.190931,170.927907 C334.134661,168.456847 333.085707,165.98246 332.030767,163.510735 C331.096886,161.321701 330.343927,158.794102 329.085449,156.771358 C325.75434,151.33569 322.286208,146.10223 320.125111,140.053286 C315.889387,140.130445 311.812636,140.182992 307.600193,139.809173 C298.419688,151.915042 297.406653,140.354603 295.587447,139.279708 C294.024326,138.353143 293.06916,138.37975 291.875202,137.02948 C290.596104,135.556156 290.055996,133.317235 289.067572,131.674296 C287.282289,132.425259 285.531594,132.449204 283.615275,132.219725 C281.914467,132.014191 280.254233,132.415281 278.588679,132.1133 C276.837319,131.798015 275.382619,130.398524 273.637911,129.968167 C272.755912,129.748665 262.943507,129.225186 262.801828,129.738022 C262.926878,129.288376 263.443705,128.471562 263.768302,128.134992 C267.133334,128.819439 269.089563,127.745875 272.414686,127.742549 C274.950267,127.739889 276.31517,131.025767 278.901968,130.386551 C279.009724,129.206561 279.111493,128.023911 279.219913,126.843921 C281.318486,128.740286 283.222832,130.21494 285.649992,131.67097 C286.7189,130.815577 287.793795,129.957524 288.862038,129.101466 C289.771974,130.357284 292.882251,135.536201 294.654896,135.536201 L298.19686,136.821285 L301.408906,140.360589 C302.230376,139.379482 302.805072,138.387066 304.138713,138.137632 C305.454395,137.891524 306.755443,135.578106 306.230634,134.248456 C305.811584,133.187529 305.699173,131.515988 304.625608,130.886084 C304.155342,130.610044 301.553245,130.215605 301.408906,129.738022 L300.442432,126.525976 L296.906454,127.49245 C295.848189,127.089364 294.790588,126.685614 293.732322,126.281863 C292.448568,125.792307 290.932009,125.552185 289.873078,124.612983 C288.916581,123.764907 288.11174,122.649437 287.253022,121.695601 L280.180401,116.225345 L283.72303,116.874539 L290.153109,122.665401 L296.906454,125.565488 C296.906454,125.565488 298.501502,122.052791 298.515471,122.022859 C298.760914,121.470778 296.132876,119.736047 295.947962,119.111464 C295.413175,117.299575 299.475958,117.962737 300.1185,118.477569 L303.336533,121.053059 L303.996369,117.837687 C303.996369,117.837687 302.392674,111.784753 302.376045,111.724224 C302.461185,112.056137 300.340663,111.818676 298.601941,111.51869 C293.557386,113.329249 288.308627,113.096444 283.209529,111.653052 C280.989898,111.025143 278.46895,110.353334 276.712269,108.777575 C276.273265,108.383802 275.964632,107.802454 275.447139,107.505129 C274.769344,107.116012 274.004413,107.392052 273.284712,107.497147 C271.434909,107.766536 269.627675,108.194897 267.74794,108.224829 C265.733843,108.262078 263.295375,107.618206 261.328504,105.82361 C260.072686,104.597725 257.200536,103.298672 256.319867,99.9961646 C255.141208,100.461775 254.198014,101.729565 253.114473,102.406696 C252.014967,103.093804 250.448521,103.790889 249.11621,103.435029 C244.988907,102.332198 242.738679,97.3062672 242.738679,93.3798418 C242.789896,89.9383164 243.73309,86.4681891 245.956046,83.9459114 C246.534068,83.3605727 247.426045,83.0133605 247.894981,82.3249223 C248.338641,81.673733 248.177673,80.8529285 248.429102,80.1345583 C248.757025,79.1986816 249.633038,78.4896235 250.378014,77.8803392 C250.71791,77.6023033 249.485373,76.1303095 249.39092,75.9440654 C248.594061,74.3842708 247.854406,72.8198201 247.831791,71.0318764 C247.811171,69.4155434 248.437084,67.9235949 249.204676,66.5320852 C250.058739,64.9835982 250.046766,63.3825639 250.390652,61.6524889 C248.816889,60.8356754 247.178606,60.0255134 245.693974,59.0550484 C244.95964,58.5754698 244.083628,57.4879371 243.215597,57.2790776 C240.384021,56.5952956 237.324296,57.191942 234.589833,55.9288077 C232.509885,54.9683201 230.660747,52.9741776 231.113719,50.5337143 C231.266041,49.7135749 231.720343,48.7690511 231.281339,47.9595543 C230.819055,47.1074874 229.712232,46.523479 228.945306,46 L225.409328,46 C225.273636,47.2817587 225.08074,48.595445 224.63708,49.9191086 C224.056397,52.1859658 221.503522,54.8233157 218.244915,54.6676688 C215.274321,54.6676688 212.660917,53.1298244 210.264354,51.5354416 C208.07266,50.0774162 205.894934,48.5887934 203.563556,47.3575867 C202.73344,46.9185827 200.996713,45.7971269 200.187216,46.7955285 C199.478823,47.6688804 199.603208,49.9517014 199.649769,50.9627409 C199.649769,53.4298105 199.943769,56.0046356 199.479489,58.4444338 C197.64831,67.2451341 193.339419,69.8379185 189.160899,75.0095189 C188.325461,75.7957352 188.063388,78.0951851 185.374821,80.491748 C179.740936,85.180444 178.921462,83.7237488 177.585161,89.3296971 C177.027759,91.8978707 176.374574,95.3846269 174.935173,98.5195147 C173.59488,101.55862 170.819843,104.912345 166.351314,104.901702 C162.651042,104.89239 159.045223,102.812442 156.715841,100.007472 C156.840225,100.157798 155.640946,102.774528 155.561127,103.047243 C154.083812,108.067852 153.904219,113.376475 152.224031,118.35385 C150.017703,124.890353 147.305856,131.175428 143.964104,137.254303 C142.475481,139.912273 140.733433,143.857988 142.129599,146.875143 C142.843979,148.419639 144.246796,149.426687 143.321562,151.301767 C141.023442,155.849449 139.802213,160.961185 133.467917,164.308924 C129.268112,166.52922 124.428425,168.355078 119.602041,168.180141 C117.307913,176.19396 106.805739,177.470397 99.9366565,178.64307 C98.1460522,178.948378 96.2902625,179.187169 94.5635133,179.773173 C88.0649235,181.978171 79.6766208,182.154437 73.5744649,178.710916 C71.4373135,177.50432 69.7138901,175.474925 68.7194795,172.973932 C66.0009803,176.333643 63.3975534,180.182245 59.9247656,183.627096 C54.9447305,188.164136 48.3490276,190.602604 47.291427,194.418613 C46.877699,195.168911 47.1830063,197.135117 45.5972706,199.740539 C44.0574307,201.944872 42.4889891,203.026418 41.9083065,204.082688 C40.6238871,206.418722 38.9516809,208.422842 36.9395791,210.165555 C34.9108484,211.923566 33.3277733,214.126568 31.3961556,215.987014 C29.6680761,217.568094 27.3766081,218.98887 25,220.194801 C32.7091767,219.165137 40.8334118,218.058315 44.4285887,217.5508 C54.7391968,216.126697 64.9380585,213.85851 75.1808205,212.02201 C79.6726299,211.217169 84.2509097,210.140279 88.8059091,209.803709 C91.1645579,209.629438 93.5172204,209.961351 95.8778648,209.961351 C98.811875,209.961351 101.710632,209.694623 104.820909,209.256949 C111.227707,208.346349 164.521465,200.045847 173.754518,198.35169 C201.298695,193.275873 300.755721,171.381545 326.844533,164.951466 C323.91784,163.826019 322.387977,161.944954 321.768715,158.430261 C323.462207,158.351107 324.588319,159.942829 325.845466,160.842122 C326.214629,159.852368 326.539226,158.840663 326.72547,157.810334 C326.038362,157.787719 328.953748,159.591626 330.471638,162.763097 C332.973961,167.970616 335.702437,173.087674 338.534678,178.123582 C339.489179,179.817739 340.979132,181.034312 342.166439,182.514288 C341.757367,182.79831 341.473345,183.508698 340.995761,183.798707 C342.06467,184.219087 343.139564,184.651439 344.212464,185.083791 L347.430496,188.619769 L349.353467,192.161068 L350,191.199916 L348.069047,187.657286 L339.698704,177.680587" id="Fill-467" fill="#CCCCCC"></path>
    </g>
</svg>