<?xml version="1.0" encoding="UTF-8"?>
<svg width="375px" height="266px" viewBox="0 0 375 266" version="1.1" xmlns="http://www.w3.org/2000/svg" xmlns:xlink="http://www.w3.org/1999/xlink">
    <!-- Generator: Sketch 53.2 (72643) - https://sketchapp.com -->
    <title>map/Wisconsin</title>
    <desc>Created with Sketch.</desc>
    <g id="map/Wisconsin" stroke="none" stroke-width="1" fill="none" fill-rule="evenodd">
        <path d="M95.5371534,140.098737 C95.7371739,143.267813 95.9090666,143.581908 99.9665157,146.4197 C102.197995,147.941732 118.06838,154.08924 126.387986,162.373687 C129.835216,165.807634 132.385479,170.46202 136.551533,173.32247 C140.801971,176.241521 145.624342,176.811111 149.0411,181.09202 C152.062505,184.876785 152.866494,189.598365 153.619697,194.244156 C154.259606,198.196907 153.976765,208.64642 158.27877,210.589589 C160.343045,211.522498 161.962743,213.186731 161.858826,215.644016 C161.858826,215.644016 161.858826,215.818252 161.858826,215.819034 C161.694747,219.020926 159.80002,221.723548 159.337473,224.845744 C158.43738,230.926058 162.569837,238.101016 166.719483,242.140494 C168.125096,243.508604 173.303755,241.838119 177.876882,245.811966 C179.430948,247.550426 179.970066,249.451403 180.331822,251 C185.388593,250.821857 196.839772,250.223358 201.035517,250.012398 C220.629722,248.993543 240.202049,247.657468 259.695463,245.688516 C267.600183,244.886089 277.580117,244.361816 285.395766,243.586737 C283.086153,236.287548 281.577404,228.699266 280.589021,221.151614 C277.869209,200.438544 280.372592,179.677031 282.771277,159.074128 C283.442439,153.321973 284.075317,147.566693 284.547241,141.796568 C285.246531,133.251157 285.561408,124.689338 285.667669,116.115798 C285.690327,114.117937 285.706735,112.122419 285.723143,110.126901 C282.980673,112.125544 279.096679,113.196748 277.674658,116.329883 C276.242479,119.480207 275.994016,122.088288 273.235138,124.578389 C271.545902,126.098858 267.63378,131.602549 266.279735,127.252883 C265.235877,123.89785 267.161075,120.304511 268.644041,117.38546 C269.339425,116.015788 272.101428,112.316188 271.191959,110.695709 C271.158362,110.637109 271.091949,110.612107 271.063821,110.551163 C269.838695,108.07122 270.583303,105.939751 271.04585,103.402771 C269.86526,103.301198 268.763584,103.834065 267.537677,103.292603 C264.09826,101.772915 264.917876,96.622385 265.415583,93.7064598 C265.564036,92.834495 265.387455,84.7735087 265.13743,84.864143 C265.308541,84.776634 260.966688,82.967854 260.485388,82.8592491 C255.661454,81.7739811 253.867519,80.0886513 253.311993,75.2397145 C253.121349,73.5786059 250.540614,73.4660944 249.307675,73.3910866 C243.148447,73.0168294 236.389157,73.1496555 230.387758,71.7120075 C224.578566,70.320458 219.228015,67.5178256 213.430543,66.1176814 C205.849293,64.1838886 197.80159,63.44475 189.669502,61.9570968 C185.826138,61.2546807 182.017933,59.7803101 179.938032,56.2721364 C179.03872,54.7547927 178.140972,53.1249373 176.712699,52.0342 C171.820008,48.2963151 165.828766,47.3368413 165.96003,39.928266 C165.777198,37.9358733 166.560092,36.0130191 167.669581,34.8972792 C167.208596,33.8760803 166.926536,33.2564852 166.709326,32.7814363 C162.368254,32.5829784 156.145738,32.2243477 154.10334,32.2243477 C154.492443,32.2243477 158.027963,21.736549 158.383468,20.6239345 C159.271841,17.7900489 158.310805,14.5951887 154.786223,15.0421097 C152.81102,15.2921354 143.295977,20.9950664 140.211285,22.6436737 C134.273955,25.8166567 127.596705,30.4624475 120.566293,30.2624269 C117.270641,30.1944512 115.052444,40.0900014 113.90467,42.3769556 C113.185846,43.8099157 108.984632,47.3977851 109.057296,48.6783857 C109.397956,54.7290088 110.226166,60.7647865 110.405872,66.8302548 C110.535573,71.2064867 110.41056,75.9046267 107.355558,79.3737339 C103.849728,83.3546126 96.2270681,84.7422555 93.9940257,89.8232474 C92.6626386,92.8501216 87.3753754,97.6670238 91.6195625,100.615765 C95.0706991,103.012887 98.0163149,105.461576 97.9248992,110.13237 C97.8100436,116.003287 94.6519059,121.406187 94.6831592,127.325547 C94.7058178,131.600987 95.5371534,135.801419 95.5371534,140.098737" id="Fill-473" fill="#CCCCCC"></path>
    </g>
</svg>