<?xml version="1.0" encoding="UTF-8"?>
<svg width="375px" height="266px" viewBox="0 0 375 266" version="1.1" xmlns="http://www.w3.org/2000/svg" xmlns:xlink="http://www.w3.org/1999/xlink">
    <!-- Generator: Sketch 52.6 (67491) - http://www.bohemiancoding.com/sketch -->
    <title>map/Alabama</title>
    <desc>Created with Sketch.</desc>
    <defs>
        <path d="M149.693642,228.44555 C149.683412,227.927102 149.743217,227.39292 149.880925,226.868965 C150.559237,224.774718 151.540508,221.456337 155.81891,220.133076 C155.840944,220.133076 237.735719,210.603547 260.621277,208.282726 C259.673056,206.898887 258.045737,204.920288 256.799279,203.023508 C255.421408,200.565011 255.0193,197.985359 255.035825,195.626775 C255.057858,191.889859 255.873879,188.527422 255.851845,185.732209 C255.873879,185.727488 255.840829,185.639376 255.868371,185.351437 C255.868371,181.335236 252.560222,177.684859 251.35311,171.55081 C251.106022,170.078859 251.016314,168.606907 251.016314,167.14597 C251.016314,163.834669 251.447538,160.537529 251.73948,157.731302 C251.971617,155.322368 252.366643,152.798573 253.828713,150.240949 C255.173533,147.904394 255.33957,147.1932 255.300225,147.065751 C255.38285,146.901327 254.93038,145.616614 254.054555,142.789933 C252.952101,138.759571 253.116564,136.460777 251.552197,134.625362 C244.058501,125.216988 240.871535,112.918995 237.690865,102.452483 C234.533016,91.8915661 215.478112,26.9549837 211.597883,15 C207.709786,15.364251 200.240483,16.5215148 198.293681,16.7740516 C184.880098,18.439536 132.041002,22.8766318 114.303377,24.3816254 C114.684239,24.7332889 115.06038,25.074725 115.45698,25.5601307 C116.254902,27.0273618 115.91968,26.9612774 116.084143,27.5552504 C116.129784,28.0076138 116.151817,28.5480899 116.178572,29.1979199 C116.222638,30.4991533 116.244672,32.2629775 116.244672,34.4233082 C116.244672,52.8836722 114.745618,100.561211 114.408822,114.314634 C114.138914,124.273712 113.984681,134.152544 114.001206,144.000693 C113.984681,169.565131 115.03756,194.827468 118.229246,220.447763 C119.16645,228.157611 121.123483,236.227775 122.033932,244.341209 C122.794869,243.855804 123.726564,243.585959 125.220897,243.625295 C127.982147,243.707901 130.94327,245.229415 133.683273,244.815601 C134.703889,240.714434 134.086955,236.371745 134.670839,232.225735 C134.995044,229.94425 140.624562,228.918368 141.324121,231.907114 C142.284145,236.017721 139.438696,239.55717 144.230948,241.99364 C146.815143,243.3051 150.179162,243.822762 148.487317,247.605307 C147.273909,250.326568 142.16847,249.610654 139.726703,251 C143.795002,250.641256 148.050584,250.273072 151.948912,248.993866 C155.560019,247.493593 158.43773,244.782559 160.450633,241.948797 C159.110534,240.846603 157.218814,239.8042 155.245257,238.174118 C153.061595,236.151463 149.903746,232.965251 149.693642,228.44555" id="path-1"></path>
        <filter x="-18.8%" y="-8.7%" width="137.5%" height="123.3%" filterUnits="objectBoundingBox" id="filter-2">
            <feOffset dx="0" dy="7" in="SourceAlpha" result="shadowOffsetOuter1"></feOffset>
            <feGaussianBlur stdDeviation="8" in="shadowOffsetOuter1" result="shadowBlurOuter1"></feGaussianBlur>
            <feColorMatrix values="0 0 0 0 0   0 0 0 0 0   0 0 0 0 0  0 0 0 0.17 0" type="matrix" in="shadowBlurOuter1"></feColorMatrix>
        </filter>
    </defs>
    <g id="map/Alabama" stroke="none" stroke-width="1" fill="none" fill-rule="evenodd" opacity="0.209999993">
        <g id="Fill-1">
            <use fill="black" fill-opacity="1" filter="url(#filter-2)" xlink:href="#path-1"></use>
            <use fill="#FFFFFF" fill-rule="evenodd" xlink:href="#path-1"></use>
        </g>
    </g>
</svg>