<?xml version="1.0" encoding="UTF-8"?>
<svg width="375px" height="266px" viewBox="0 0 375 266" version="1.1" xmlns="http://www.w3.org/2000/svg" xmlns:xlink="http://www.w3.org/1999/xlink">
    <!-- Generator: Sketch 52.6 (67491) - http://www.bohemiancoding.com/sketch -->
    <title>map/Arizona</title>
    <desc>Created with Sketch.</desc>
    <defs>
        <path d="M288.021086,38.1824049 C210.342307,28.7070465 159.093507,19.3039725 136.385741,15 C135.359824,21.074506 134.309523,27.1533664 133.105943,33.1834566 C132.201081,37.843626 132.101799,43.8580401 128.204535,48.6862926 C127.220422,49.6974039 125.829599,52.0627599 122.605539,52.2796133 C122.030747,52.2796133 121.44115,52.1620422 120.894227,51.9277709 C117.927952,50.3967341 118.000236,47.7021791 117.550853,47.4853258 C117.210333,46.6344595 115.607011,46.6945514 112.704312,45.3411776 C112.282798,45.1121317 111.879573,45.0198166 111.432803,45.0119785 C109.953149,44.9597247 108.180873,46.4097681 107.96402,48.074923 C107.96402,48.1097588 107.955311,48.1750761 107.955311,48.2316844 C107.831644,48.9162094 108.851464,50.3793162 108.985582,52.9353986 C108.985582,53.1783789 108.969035,53.4640331 108.922878,53.7845231 C108.484817,55.889481 107.534668,56.8735945 107.579955,57.2776906 C107.273399,58.9524254 107.16802,60.7011864 107.16802,62.4934923 C107.159311,66.3245678 107.677495,70.3855601 107.677495,74.5771869 C107.677495,75.4097644 107.660077,76.2693396 107.61479,77.1332694 C107.336974,80.3642969 105.501995,82.2915918 104.892367,83.8792369 C104.236581,85.3466982 103.888223,87.5065225 103.896061,89.6071259 C103.896061,90.8995369 104.022341,92.1841098 104.247903,93.2605384 C104.569264,94.9265642 105.501995,96.6439729 106.378117,98.7794121 C107.7402,102.121044 108.653771,105.821485 108.68251,109.574179 C108.521394,109.851995 109.577792,111.214949 110.929424,112.368017 C111.879573,113.453154 114.345082,114.729018 114.568031,118.043652 C114.57674,119.006864 114.235349,120.013621 113.654461,120.854907 C111.485056,123.866469 107.892607,124.88716 105.823356,125.906109 C103.950056,126.729978 103.844678,127.637452 101.602989,129.949684 C100.520464,130.896349 100.017086,131.277801 100.07979,131.337893 C99.4901932,133.048335 99.4449065,135.081879 99.3273355,137.421979 C99.2010554,139.803011 98.1368194,141.378464 97.3486577,142.750126 C96.4699227,144.241973 95.8777128,146.342576 94.4807941,148.486724 C92.8948909,150.824212 90.7881912,152.112268 89.3024411,153.41513 C88.7816447,153.935926 88.9070539,153.827064 88.8452202,154.247707 C88.8269314,154.684898 89.0873296,155.635917 89.3024411,157.076381 C89.319859,157.223562 89.328568,157.389033 89.328568,157.597177 C89.1857409,160.178515 87.9055224,162.409753 88.0204808,163.268458 L87.9577763,163.268458 C87.985645,163.29023 88.0831854,163.341613 88.27217,163.393867 C90.5016661,163.958208 93.5480635,165.429153 94.186431,168.982412 C94.2569736,169.424828 94.3005185,169.910788 94.3005185,170.408941 C94.3005185,172.01923 93.8711663,173.616455 93.0211709,175.040371 C92.7041644,175.491496 90.7368083,178.137281 90.3065852,178.787841 C90.3048434,178.797421 90.300489,178.810484 90.2961345,178.823547 C89.9469048,179.93307 88.7816447,180.575792 87.6529623,180.298847 C87.3803716,180.267495 86.7576803,180.584501 86,180.974663 C103.930897,192.021119 146.17201,214.458036 151.902511,217.759607 C151.902511,217.759607 195.08158,242.048922 195.116416,242.070694 C203.106895,246.566264 220.672886,245.685787 229.691023,246.904172 C239.21341,248.18439 248.720121,249.408 258.261668,250.56281 C259.136048,250.666446 260.06965,250.822337 261.028507,251 C264.674952,223.679093 274.701589,144.381316 284.53924,65.9605329 C285.706242,56.6619665 286.86976,47.3755927 288.021086,38.1824049" id="path-1"></path>
        <filter x="-13.6%" y="-8.7%" width="127.2%" height="123.3%" filterUnits="objectBoundingBox" id="filter-2">
            <feOffset dx="0" dy="7" in="SourceAlpha" result="shadowOffsetOuter1"></feOffset>
            <feGaussianBlur stdDeviation="8" in="shadowOffsetOuter1" result="shadowBlurOuter1"></feGaussianBlur>
            <feColorMatrix values="0 0 0 0 0   0 0 0 0 0   0 0 0 0 0  0 0 0 0.17 0" type="matrix" in="shadowBlurOuter1"></feColorMatrix>
        </filter>
    </defs>
    <g id="map/Arizona" stroke="none" stroke-width="1" fill="none" fill-rule="evenodd" opacity="0.209999993">
        <g id="Fill-396">
            <use fill="black" fill-opacity="1" filter="url(#filter-2)" xlink:href="#path-1"></use>
            <use fill="#FFFFFF" fill-rule="evenodd" xlink:href="#path-1"></use>
        </g>
    </g>
</svg>