<?xml version="1.0" encoding="UTF-8"?>
<svg width="375px" height="266px" viewBox="0 0 375 266" version="1.1" xmlns="http://www.w3.org/2000/svg" xmlns:xlink="http://www.w3.org/1999/xlink">
    <!-- Generator: Sketch 52.6 (67491) - http://www.bohemiancoding.com/sketch -->
    <title>map/Arkansas</title>
    <desc>Created with Sketch.</desc>
    <defs>
        <path d="M299.610627,71.919246 C301.072093,70.9497677 302.460168,69.3859178 304.226974,67.6780051 C303.595454,66.7384267 303.025546,65.4944139 302.845241,63.6125389 C302.845241,61.2105886 304.334795,59.3078742 305.955726,58.0856068 C307.90918,56.5724959 309.862633,55.3502284 311.730011,54.1931969 C311.439168,53.6368795 311.150136,53.0216685 310.88285,52.347564 C310.259485,50.7202902 310.823957,48.8964027 312.271832,47.9414213 C313.14708,47.4285945 313.667156,47.2319807 314.304112,47.0018428 C314.260621,46.8777134 314.181794,46.7997927 314.137398,46.6838177 C304.782386,47.6016509 295.371198,48.7532461 285.790579,49.6928245 C285.574938,49.7082274 285.421814,49.7082274 285.378324,49.7082274 C285.307652,49.7136638 285.240604,49.7136638 285.176274,49.7136638 C283.272653,49.7136638 281.45692,48.0945445 281.058256,46.8994587 C280.510093,45.6346067 280.459354,44.641571 280.444857,43.6811533 C280.553584,40.4601298 281.269367,37.7908934 282.123776,35.9751603 C286.081422,29.3192844 291.586609,27.5977809 291.904634,24.2843398 C292.042354,23.6908742 292.093093,23.1264023 292.106684,22.590018 C292.157423,19.8111491 290.16954,16.9027143 287.123385,15 C247.785219,18.378677 208.360978,20.8685146 168.895059,22.3952163 C159.539141,22.7567321 82.0660498,25.4413714 60,25.8971168 C61.0120628,31.0543786 61.5466349,36.120129 62.3149691,40.996514 C66.9023227,70.920774 71.0112796,100.613084 71.0248704,131.253127 C71.0248704,157.942773 71.3727953,184.669567 71.3809498,211.432603 C72.7037893,212.829739 73.18128,214.109087 73.6315891,214.457012 C73.6315891,214.457012 73.6524283,214.486006 73.6660191,214.507751 C74.3972051,214.435267 76.7475103,213.04538 79.9902791,212.814336 C80.0401121,212.814336 80.17149,212.799839 80.4170308,212.799839 C84.8585096,212.829739 88.5787691,214.216908 91.6810996,214.745138 L92.6442354,215.064069 L93.4895842,215.49082 C97.0503782,218.414658 95.6097516,219.327055 96.2602987,221.104734 C96.4279188,222.770062 96.4569125,224.737106 96.4569125,226.727708 C96.4569125,230.431658 96.2901985,234.346719 96.2901985,235.394118 L96.3037893,235.531839 C96.3925826,240.595777 96.6027873,245.770254 96.6952048,251 C118.28467,250.233478 228.612201,245.41508 248.219219,244.055093 C248.176635,242.594533 247.822367,240.798733 247.524275,238.593397 C247.388367,237.587676 247.684647,236.58105 248.3062,235.785534 C248.950405,235.011763 249.862802,234.519776 250.86671,234.433701 C251.142151,234.403801 251.39494,234.382056 251.619641,234.36031 C251.605145,234.287826 251.591554,234.215341 251.567996,234.141951 C250.939195,231.306907 249.291082,228.376727 248.86433,224.245118 C248.06066,223.977832 247.213499,223.587323 246.381741,222.987515 C245.861665,222.610596 245.462095,222.11136 245.202964,221.53964 C244.609498,221.439068 244.029623,221.177218 243.530387,220.773118 C242.127815,219.628771 241.743648,217.661727 242.6343,216.077944 C243.11179,215.304173 243.524951,214.667217 243.754183,214.275801 C243.495051,213.791062 242.763865,212.829739 242.553661,211.165317 C242.526479,210.903467 242.481176,210.585442 242.481176,210.115199 C242.148654,208.741621 243.516797,206.772765 244.514362,205.941913 C244.066772,205.261466 243.538542,204.234 243.487803,202.685553 C243.473306,201.816647 243.748746,200.774684 244.123853,200.196621 C244.348555,199.538826 245.194809,198.387231 246.433386,197.750275 C246.252175,197.172212 246.149791,196.549752 246.172442,195.899205 C246.172442,195.515944 246.187845,194.88533 246.417983,194.126963 C246.946213,192.367405 248.659562,191.282858 250.469858,191.528399 L250.469858,191.514808 C250.469858,191.514808 250.809629,191.455914 251.097754,191.252958 C251.374101,191.072653 251.438431,190.978424 251.42484,190.993827 C251.453833,190.951242 251.584305,190.095927 251.567996,189.199839 C251.597896,187.65864 251.249971,185.595554 250.931946,184.901516 L250.976343,184.872523 C249.571958,183.388406 249.600952,181.067094 251.049733,179.649119 C251.614205,179.114547 252.293746,178.780213 253.003187,178.649741 C253.052113,178.63615 253.111007,178.607156 253.175337,178.577256 C253.551349,178.418697 254.114915,178.143256 254.709287,177.840634 C255.852728,177.260759 257.182816,176.537728 257.720106,176.205206 C258.038131,175.857281 258.029977,175.836442 258.102461,174.527193 C258.102461,174.093193 258.065313,173.456237 258.065313,172.819281 C258.102461,172.269305 257.51715,170.677368 257.458256,168.362399 C257.458256,167.450908 257.58148,166.257634 258.145952,165.143187 C260.3232,161.285208 263.210796,161.010673 262.935355,160.708051 C263.941076,159.666088 264.766491,157.610251 264.737498,156.221269 C264.737498,156.099858 264.723001,155.932238 264.707598,155.715691 L264.707598,155.627804 C264.586187,153.595523 266.14007,151.852275 268.180504,151.720897 C268.563766,151.693715 268.933436,151.7363 269.288609,151.823281 C270.149361,151.663815 272.167144,151.215318 273.020647,150.897293 L273.050547,150.984275 C273.382163,150.658095 273.592368,149.883418 273.767236,147.627343 C274.164088,144.332929 275.127224,142.533505 274.967758,142.171989 C274.952355,141.95363 274.967758,141.824064 274.663324,141.260498 C273.997374,140.203133 273.114877,138.394648 273.079541,136.397704 C273.071386,136.289884 273.064138,136.152163 273.064138,135.993604 C273.106722,133.981257 273.721933,132.77258 273.780827,132.288747 C273.904956,131.752363 274.150497,131.261282 274.474865,130.839966 C274.380635,130.3063 274.337144,129.785319 274.345299,129.293331 C274.345299,127.707736 274.69866,126.334157 275.060176,125.17622 C275.516827,123.757339 276.784397,122.759773 278.26036,122.622052 C278.244051,122.346612 278.238615,122.065735 278.238615,121.774892 C278.238615,121.501263 278.200561,121.030115 278.32469,120.349668 C278.570231,118.917196 279.604039,117.775567 280.993926,117.397743 C282.382908,117.015388 283.867025,117.471133 284.80751,118.569271 C284.886336,118.663501 284.959727,118.750482 285.032211,118.831121 C285.038553,118.831121 285.053956,118.81753 285.067547,118.81753 C287.303689,117.876139 288.779652,116.877667 288.852137,116.516152 L288.809552,116.516152 C288.823143,116.38568 288.715322,115.936277 288.534111,115.596506 C288.353807,115.242239 288.286759,115.185158 288.272262,115.198748 C288.143602,115.126264 288.070212,115.010289 287.946988,114.932368 C287.809268,114.837233 287.649802,114.772903 287.527485,114.662364 C287.455001,114.591692 287.412416,114.503805 287.34718,114.432226 C287.202211,114.273667 287.079894,114.114201 286.963919,113.925742 C286.875126,113.796176 286.767305,113.693792 286.702069,113.547917 C286.65133,113.456406 286.637739,113.345867 286.602403,113.245295 C286.521765,113.049587 286.470119,112.854786 286.427535,112.638239 C286.40579,112.522264 286.340554,112.412631 286.326963,112.290314 C286.326963,112.26132 286.340554,112.23142 286.333305,112.204238 C286.326963,112.096418 286.35505,111.985879 286.35505,111.885307 C286.35505,111.654263 286.392199,111.435904 286.435689,111.205766 C286.470119,111.052643 286.470119,110.893178 286.521765,110.750021 C286.529919,110.728276 286.521765,110.698376 286.529919,110.676631 C286.572504,110.582401 286.629585,110.531662 286.667639,110.437432 C286.702069,110.351357 286.702069,110.264376 286.74556,110.178301 C286.804453,110.075917 286.905026,110.005244 286.970261,109.911015 C287.0509,109.786885 287.101639,109.649165 287.194057,109.541344 C288.809552,106.799624 291.008546,105.879979 291.427143,105.214028 C292.389373,104.390425 293.474826,102.205022 296.310777,100.468115 C296.831758,100.165493 297.279349,99.9335432 297.613683,99.7586747 C297.613683,99.730587 297.613683,99.7088417 297.613683,99.7088417 C297.489553,98.9051714 296.181211,93.5875379 295.70372,89.3979422 C295.638484,89.3834453 295.573248,89.3834453 295.500764,89.3698545 C294.068292,89.1379046 292.903106,88.1267478 292.4981,86.715115 C292.26615,85.8761086 292.338634,85.3478788 292.338634,85.3478788 C292.360379,82.7629055 293.396,80.3265251 295.255223,78.6322033 C296.057081,77.8520905 297.084547,77.1508043 298.314969,76.8382155 C298.148255,76.5355934 298.03228,76.2166622 297.953453,75.8986371 C297.902714,75.6965869 297.880969,75.5217184 297.872815,75.3994011 C297.808485,74.6392214 297.975199,73.8591085 298.372051,73.1768495 C298.684639,72.6558682 299.110485,72.2218682 299.610627,71.919246" id="path-1"></path>
        <filter x="-10.8%" y="-8.7%" width="121.6%" height="123.3%" filterUnits="objectBoundingBox" id="filter-2">
            <feOffset dx="0" dy="7" in="SourceAlpha" result="shadowOffsetOuter1"></feOffset>
            <feGaussianBlur stdDeviation="8" in="shadowOffsetOuter1" result="shadowBlurOuter1"></feGaussianBlur>
            <feColorMatrix values="0 0 0 0 0   0 0 0 0 0   0 0 0 0 0  0 0 0 0.17 0" type="matrix" in="shadowBlurOuter1"></feColorMatrix>
        </filter>
    </defs>
    <g id="map/Arkansas" stroke="none" stroke-width="1" fill="none" fill-rule="evenodd" opacity="0.209999993">
        <g id="Fill-397">
            <use fill="black" fill-opacity="1" filter="url(#filter-2)" xlink:href="#path-1"></use>
            <use fill="#FFFFFF" fill-rule="evenodd" xlink:href="#path-1"></use>
        </g>
    </g>
</svg>