<?xml version="1.0" encoding="UTF-8"?>
<svg width="375px" height="266px" viewBox="0 0 375 266" version="1.1" xmlns="http://www.w3.org/2000/svg" xmlns:xlink="http://www.w3.org/1999/xlink">
    <!-- Generator: Sketch 52.6 (67491) - http://www.bohemiancoding.com/sketch -->
    <title>map/Florida</title>
    <desc>Created with Sketch.</desc>
    <defs>
        <path d="M349.179676,224.621123 C349.263248,219.823588 354.382458,175.404803 346.260157,159.69948 C344.975033,157.214381 335.428057,144.573646 334.81309,143.629119 C327.165418,127.423149 314.662656,114.236039 307.260182,98.0765863 C305.405819,94.0225316 294.329308,68.6503931 292.090196,65.8302154 C282.432053,49.735413 275.453749,33.9149807 268.876751,16.3087775 C268.816043,16.1487283 268.711183,16.0233695 268.640225,15.8688392 C266.351442,16.893785 263.747292,17.1381952 261.05878,17.1681551 C256.019989,17.1586941 250.761229,16.1589777 248.015951,15.423382 C247.062751,15.1592614 246.115071,15.0000006 245.370014,15.0000006 C244.166885,14.9992122 242.884126,15.8089193 242.884126,17.1389836 C242.884126,19.1005721 244.267803,20.7050065 245.000245,22.4284922 C246.350808,25.6010936 246.547913,29.6811662 245.04282,32.8340571 C243.099365,36.9062455 235.815154,37.6402644 234.19574,32.8340571 C233.060415,29.9705163 232.955555,29.560538 231.017619,28.1902643 C219.409714,29.1899807 138.676312,35.0242874 135.368103,35.1543767 C134.683754,35.1732987 133.813339,35.2836775 132.814411,35.2836775 C131.295126,35.3238869 128.964557,34.8989286 127.480751,32.9641464 C125.415091,30.2653853 125.191179,27.765306 124.255325,26.4265692 C123.950207,25.7855838 122.936299,24.8962463 122.086382,23.4763022 C103.191901,25.3566834 26.4534222,34.2745001 26.3485624,34.2839612 C26.3580234,34.3233822 26.1230743,34.36438 25.7879959,34.8934097 C25.4481869,35.3838068 25.147799,36.1335941 25.0326897,36.6326638 C25.0232286,36.6531628 25.0232286,36.6925837 25.0137676,36.7840404 C24.8127206,37.6378991 26.8578816,40.6575471 28.2525963,41.7069339 C29.2270832,42.5623694 30.6178558,43.3413282 32.0709135,44.4214633 C32.2112522,44.0012356 32.3421299,43.5817962 32.4217603,43.19074 C34.5512823,44.1171333 36.1352177,44.0816544 34.8059419,46.5501969 C34.740503,46.6708251 34.6458927,46.7748965 34.5749349,46.8907942 C35.0148731,47.8503012 34.8564008,49.0289888 34.0403862,49.799275 C33.546047,50.2699616 32.9105806,50.5096412 32.2766911,50.5096412 C32.1316218,50.5096412 31.9912831,50.4497213 31.8462138,50.4197614 C31.6562047,50.7193609 31.4622534,51.0142299 31.3368946,51.3493084 C35.5352302,52.8741123 45.4630127,44.631183 42.1130169,40.362678 C42.5088036,39.7831895 43.12929,39.2927923 43.7537185,39.0822842 C44.3237461,40.1931678 45.0624954,41.371067 45.1224153,42.6317503 C46.2829693,40.6961796 46.9073978,38.7968763 47.9220942,36.822673 C47.0721776,38.4728357 51.916229,41.0020865 51.3162415,42.9463298 C50.436365,45.7909486 57.300348,43.2017778 63.7977158,43.2017778 L65.2074105,42.9163699 L71.1552497,37.5385582 C71.1552497,37.5385582 71.9854557,40.0567712 71.9949168,40.082789 C71.5210765,38.9679634 77.9191034,38.2623276 78.6081823,38.341958 C81.2233709,38.6628449 83.233053,40.362678 84.442489,42.6427882 C82.3720986,42.1713131 80.7077443,41.5224436 78.7832115,40.6425671 L75.114694,43.4966469 L86.9914503,46.0408777 L94.3489842,48.5701285 L100.287362,51.9642758 L99.7228537,49.1448865 C99.7228537,49.1448865 96.9231749,47.4647639 96.8892729,47.4450534 C96.3783768,47.1407233 95.8083493,45.7010687 95.4835203,45.1704622 C97.6926727,44.7305239 99.3680648,46.2009269 101.328077,45.9163073 C102.777981,45.6900308 104.321707,43.7962464 105.486203,43.0267486 C105.531143,44.2606257 104.850736,45.0750634 103.98584,45.8753095 C103.061812,46.730745 101.922545,47.5712005 101.512567,48.8295186 C101.217698,49.7393551 105.845722,51.1498381 106.37554,51.2192191 C107.606264,51.3737494 108.420701,51.4391882 109.336057,52.2386459 C109.895046,52.7290431 109.870605,53.7784299 110.539974,54.1387377 C111.194362,54.4927382 112.743607,54.0039179 113.464223,54.013379 C113.029015,54.6882663 112.474756,55.3087527 111.874769,55.8330519 C112.034818,55.6927132 103.33224,52.2291849 102.832382,51.6891173 C103.70122,52.5595328 104.536157,53.6183806 105.506702,54.3681679 C106.791038,55.3576348 108.490871,55.6832522 109.535527,57.003067 C109.235139,57.012528 114.984296,59.5867187 117.047591,62.396647 C119.172382,65.2909362 120.932136,67.9550068 116.702263,69.2149017 C116.702263,69.2149017 117.67202,70.2532506 119.546882,70.2587695 C121.797032,70.2642885 123.887133,69.388354 125.965408,68.6448741 C127.535152,68.0850961 129.314615,67.9755057 130.824439,67.3542309 C132.668553,66.5997131 133.982849,64.5553405 135.603052,63.3861139 C135.118174,63.7361723 136.487659,64.6160488 136.657169,64.6759687 C137.487375,64.9905482 138.486303,64.2510104 139.16119,63.8907026 C141.006093,62.9051778 142.597124,61.3858928 144.22048,60.0865769 C147.725007,57.267976 151.309163,55.2582939 155.926938,56.1326515 C155.343507,53.8438687 153.697287,49.218998 157.726901,46.7102461 C164.06895,43.5612973 170.299043,46.5557158 176.327301,48.4495002 C184.193366,50.9243501 190.197971,57.0574679 195.616781,63.055766 C200.650053,68.6243752 206.548222,77.4223521 213.691305,80.4065211 C216.010836,81.3762775 218.734827,80.9607803 221.044897,82.2151562 C235.049598,89.824196 231.921149,107.723691 231.55611,120.689255 C231.43154,125.064986 231.708275,129.473041 231.441789,133.842463 C231.327468,135.716537 230.006077,140.121439 231.17215,141.759775 C231.821019,142.660151 235.530535,145.623821 236.605151,145.502404 C240.233459,145.082965 240.108888,151.991099 238.450053,156.054615 C237.734956,155.540566 243.422617,160.528898 245.176851,165.45731 C247.801501,172.806171 255.504362,182.573116 264.012201,182.826987 C264.957516,182.853005 267.931436,193.970513 269.74559,194.259075 C272.50979,194.694283 273.485065,192.820209 274.664541,196.313697 C275.374907,198.408528 277.70863,198.503927 279.067866,199.968023 C282.367403,203.52695 282.057554,219.25356 289.925195,217.223379 C289.035069,217.453598 299.56757,218.483274 304.61661,223.601696 C309.114546,228.159551 310.749728,234.858754 315.533071,239.217139 C317.746954,241.236282 315.738849,248.002501 317.711475,249.852922 C319.820498,251.831856 322.743959,250.750144 325.249557,250.276304 C328.74068,249.615608 332.199478,248.72154 335.553416,247.544429 C341.006128,245.641184 348.749199,238.293111 349.248269,236.728886 C350.588582,232.519512 349.103199,228.880955 349.179676,224.621123" id="path-1"></path>
        <filter x="-8.4%" y="-8.7%" width="116.9%" height="123.3%" filterUnits="objectBoundingBox" id="filter-2">
            <feOffset dx="0" dy="7" in="SourceAlpha" result="shadowOffsetOuter1"></feOffset>
            <feGaussianBlur stdDeviation="8" in="shadowOffsetOuter1" result="shadowBlurOuter1"></feGaussianBlur>
            <feColorMatrix values="0 0 0 0 0   0 0 0 0 0   0 0 0 0 0  0 0 0 0.17 0" type="matrix" in="shadowBlurOuter1"></feColorMatrix>
        </filter>
    </defs>
    <g id="map/Florida" stroke="none" stroke-width="1" fill="none" fill-rule="evenodd" opacity="0.209999993">
        <g id="Fill-424">
            <use fill="black" fill-opacity="1" filter="url(#filter-2)" xlink:href="#path-1"></use>
            <use fill="#FFFFFF" fill-rule="evenodd" xlink:href="#path-1"></use>
        </g>
    </g>
</svg>