<?xml version="1.0" encoding="UTF-8"?>
<svg width="375px" height="266px" viewBox="0 0 375 266" version="1.1" xmlns="http://www.w3.org/2000/svg" xmlns:xlink="http://www.w3.org/1999/xlink">
    <!-- Generator: Sketch 52.6 (67491) - http://www.bohemiancoding.com/sketch -->
    <title>map/Idaho</title>
    <desc>Created with Sketch.</desc>
    <defs>
        <path d="M145.293227,96.3766377 C145.170261,98.6034395 145.662125,100.807884 145.718018,103.028724 C145.761988,104.797943 145.268634,106.521702 145.285774,108.282724 C145.311113,110.799427 146.692803,112.930837 148.096851,114.902764 C149.758754,117.236882 151.624111,119.956292 151.624111,122.937285 C151.433327,127.58838 147.637033,129.203333 146.221061,131.725998 C143.92346,135.303935 141.440293,139.531728 139.70312,143.059734 C138.356456,145.802247 136.467252,147.067679 134.67493,148.579042 C132.439185,150.331121 127.987072,155.336208 128.170403,158.140577 C128.276228,159.75553 129.177979,160.209386 130.550726,160.754163 C131.610469,161.176719 133.171019,162.102317 133.868571,163.987795 C134.101089,164.578032 133.978123,165.24801 133.560038,165.726459 C132.473466,166.862217 132.179093,169.227635 131.234864,171.698133 C130.181083,174.200677 128.888822,176.150246 128.465521,178.195953 C124.884603,194.710654 120.961617,211.188838 118,227.742293 C133.416205,230.9014 167.03659,237.68763 181.903547,240.366053 C181.906528,240.366053 181.908019,240.369034 181.911745,240.369034 C191.017188,242.037645 200.096548,243.738301 209.201245,245.138622 C221.705021,247.057637 234.111914,249.388773 246.552343,251 C248.043584,241.03305 255.706227,187.407967 257.218336,177.944059 C257.245165,177.775633 256.093756,176.771784 255.942471,176.587707 C254.80075,175.196329 254.510103,173.616402 253.764855,172.037967 C252.84969,170.100321 250.952288,172.22875 249.836652,172.986668 C248.364786,173.986791 246.696176,175.336435 244.829329,175.367736 C240.997262,175.073363 237.880634,173.418166 235.416098,173.479277 C233.412125,173.529208 231.843378,174.977971 229.839405,174.964556 C228.467403,174.954868 224.439336,172.60361 223.603168,174.084418 C223.398225,174.509955 222.97865,175.863326 221.447165,176.432696 C219.584044,177.125776 217.6069,176.246383 216.805759,174.407111 C216.277378,173.29371 216.022503,172.052126 215.795202,170.733037 C215.369665,168.13063 215.054425,165.149637 214.333025,163.570456 C214.111686,163.085299 213.77707,162.494317 213.196521,162.354211 C212.459471,162.176096 211.752975,162.704477 211.005491,162.424264 C210.407057,162.199199 209.924136,161.704354 209.615603,161.154361 C208.917306,159.906816 208.421716,158.252364 208.35986,156.821488 L208.379237,156.821488 L208.379237,156.808073 C208.379982,156.808073 208.367313,156.806583 208.367313,156.802857 C208.464195,154.514944 209.541079,152.85006 208.302476,150.664247 C207.21963,148.75343 205.896815,147.025945 205.249194,144.893044 C204.815459,143.203566 204.615733,141.321815 204.519596,139.721767 C204.447307,138.507757 204.898182,137.112652 204.375763,135.96497 C204.245345,135.55881 203.763169,135.07738 203.213921,134.360451 C201.476002,135.294247 199.615117,136.422553 197.44719,137.161094 C195.353042,137.859391 193.536127,137.366037 191.850376,136.034278 C191.046253,135.401562 190.498495,134.962611 189.590783,134.729349 C188.706173,134.502048 188.156925,133.615948 188.348454,132.723886 C188.445336,132.272265 188.764303,132.039748 189.049733,131.68799 C189.802433,130.760156 189.985764,129.263698 190.268959,128.133902 C190.591651,126.846858 190.921051,125.521061 191.630527,124.382322 C191.98452,123.813697 192.479365,123.627385 192.922043,123.168312 C193.947504,122.104098 192.986134,119.679805 192.991351,118.400959 C193.011472,113.737196 195.291187,110.329921 196.960543,106.800425 C197.756468,105.241366 198.579967,103.60182 198.51215,103.045864 C198.42272,102.750746 198.691009,102.872967 197.866765,102.434016 C195.69064,101.451778 190.891241,97.1688366 189.325475,95.7945988 C188.548926,95.1134419 188.207602,94.1267333 188.048864,93.1310816 C187.98999,92.7644194 188.165123,91.2687062 187.854354,91.027991 C186.995083,88.8295087 184.935962,86.2144326 183.521481,83.5427176 C181.729904,80.0542105 178.136317,76.9018104 175.307355,73.2560559 C174.562107,72.2961762 175.090488,70.8421968 176.264999,70.5642192 C175.988512,68.87027 176.611539,67.1219176 176.186748,65.4547972 C175.479507,62.6794927 173.200538,60.1061505 171.991745,56.499149 C171.335927,54.4184158 171.955228,52.4300935 172.368841,50.3806608 C173.419641,45.1959687 174.401133,39.9851929 175.492922,34.7721814 C175.796238,33.350993 176.400634,29.3415574 177.1824,25.4140991 C177.730902,22.8131827 178.254066,20.3963426 178.951619,18.4288872 C173.450942,17.2901479 168.056835,16.1461918 162.774515,15 C158.837369,32.6206497 148.466494,80.4238536 146.606354,89.2870911 C146.080209,91.7628058 145.415447,94.1513264 145.293227,96.3766377" id="path-1"></path>
        <filter x="-19.8%" y="-8.7%" width="139.5%" height="123.3%" filterUnits="objectBoundingBox" id="filter-2">
            <feOffset dx="0" dy="7" in="SourceAlpha" result="shadowOffsetOuter1"></feOffset>
            <feGaussianBlur stdDeviation="8" in="shadowOffsetOuter1" result="shadowBlurOuter1"></feGaussianBlur>
            <feColorMatrix values="0 0 0 0 0   0 0 0 0 0   0 0 0 0 0  0 0 0 0.17 0" type="matrix" in="shadowBlurOuter1"></feColorMatrix>
        </filter>
    </defs>
    <g id="map/Idaho" stroke="none" stroke-width="1" fill="none" fill-rule="evenodd" opacity="0.209999993">
        <g id="Fill-429">
            <use fill="black" fill-opacity="1" filter="url(#filter-2)" xlink:href="#path-1"></use>
            <use fill="#FFFFFF" fill-rule="evenodd" xlink:href="#path-1"></use>
        </g>
    </g>
</svg>