<?xml version="1.0" encoding="UTF-8"?>
<svg width="375px" height="266px" viewBox="0 0 375 266" version="1.1" xmlns="http://www.w3.org/2000/svg" xmlns:xlink="http://www.w3.org/1999/xlink">
    <!-- Generator: Sketch 52.6 (67491) - http://www.bohemiancoding.com/sketch -->
    <title>map/Kentucky</title>
    <desc>Created with Sketch.</desc>
    <defs>
        <path d="M314.280002,164.529262 C315.676615,163.511904 316.270735,162.231374 317.771175,159.791446 C319.516041,157.13377 321.400784,155.860451 322.106662,154.667165 C322.564509,154.19706 322.425352,152.884806 323.328068,149.974053 C326.760839,141.434304 335.926432,138.966257 339.432026,135.090059 C343.127248,131.498664 346.187252,126.810599 350,122.307115 C340.875506,119.682606 335.887497,112.006638 330.507253,105.921238 C324.607156,99.2013421 318.49652,93.1173845 318.49652,82.6395375 C318.49652,81.0799736 318.679659,79.9306694 318.105007,78.4821424 C317.445275,76.8180307 316.834572,75.1784337 316.582936,73.3939119 C314.181943,70.4824375 311.5048,69.320155 307.125331,66.8297556 C304.135265,64.9954835 302.40482,62.2469593 301.236048,59.602983 C299.220079,61.6816805 297.137056,64.4402989 293.599016,66.7050193 C290.307564,68.6582596 286.765199,68.4196023 283.283398,67.1311415 C281.578909,66.50025 280.031603,65.2463981 278.223287,64.7784568 C275.695395,64.1237716 274.913811,65.5715776 273.163898,66.9681912 C271.395959,68.3792253 269.347544,69.4477753 266.991255,69.4477753 C261.618943,69.0879869 260.051447,65.0863319 258.471695,64.253555 C256.591999,62.7855605 254.281133,62.6615452 250.788517,62.4812905 C247.465341,62.3154561 242.850099,61.81579 239.084217,57.9381503 C237.00552,55.7981661 235.434419,53.2270126 233.390331,51.0560247 C231.212133,48.7415539 228.439815,46.9635213 225.220465,47.9412229 C222.514481,48.7631845 220.007499,48.9045042 217.341892,47.8842624 C217.173173,47.8193707 215.320155,46.8885353 215.197581,47.0111085 L215.165857,47.0659059 C214.963971,47.1769429 214.486657,47.4970753 213.826924,48.1330139 C213.808178,48.1503184 213.787989,48.1524815 213.768522,48.1697859 C213.761312,48.1762751 213.761312,48.1820432 213.756265,48.1892534 C213.602688,48.4185374 214.242952,49.6031715 214.33308,49.8389447 C215.036073,51.6710538 214.631582,53.4793693 214.180224,55.3114783 C214.70152,55.9668845 217.091698,57.7586166 217.58127,61.8035327 C217.614437,64.8606529 215.113222,67.1397937 212.543511,68.3453374 C210.999809,69.0692404 208.605305,69.1074544 207.285841,70.1817726 C205.14153,71.9273594 202.940981,73.7998455 200.283305,74.7054453 C197.598231,75.6211393 195.594519,75.0818172 193.323309,73.5655144 C191.755814,72.5193159 190.175341,72.5943019 190.11838,74.6593001 C189.869629,78.9846926 190.561086,84.0174047 186.24723,89.1712479 C184.144017,91.7308651 183.720779,91.9363555 182.859162,94.3416746 C181.865598,98.0397807 179.516518,103.337828 173.641656,103.506546 C173.18453,104.813032 172.753361,105.961616 172.578153,106.875147 C172.351753,108.053291 172.393572,109.265324 172.393572,110.458611 C172.42746,112.750009 172.245042,116.600971 168.914656,119.265857 C165.269905,122.107392 159.99421,121.65315 155.793553,120.578111 C152.190622,119.592478 150.25757,117.006904 148.920801,115.205078 C145.603393,117.868522 145.186644,118.72365 143.964517,123.509053 C143.52109,125.374329 143.175722,127.131452 141.725032,128.887133 C141.72359,128.889296 141.721427,128.891459 141.719985,128.893622 C138.17834,133.142587 131.684123,131.083357 127.901657,128.373047 C125.585024,126.71254 124.044206,128.574932 122.558186,130.345033 C120.758523,132.489344 119.098016,134.886732 117.906172,137.426881 C117.057533,139.235197 114.458981,139.533699 112.984497,138.406025 C109.517838,135.754838 105.939421,133.503096 102.355957,132.921234 C99.7545208,132.505927 97.1242438,133.468487 94.5754419,133.836207 C94.5754419,134.932156 93.8378395,136.798874 92.6229226,137.536476 C90.8210963,138.631704 88.0509417,140.004524 86.1013065,138.535087 C85.5006977,138.078682 85.0767386,137.432649 84.8871106,136.721004 C84.8150087,136.518397 80.1615526,136.952451 80.2199551,136.669811 C79.7635502,138.89055 78.6272243,142.869132 76.1159154,143.496419 C75.9810849,143.530306 73.9997249,143.721376 74.0386599,143.523096 C73.3327824,147.145495 71.9945713,149.594076 72.1322859,151.793904 C72.249091,153.653412 73.0458169,155.248306 73.2210245,157.087625 C73.0335595,159.9991 71.1517002,161.128936 69.429907,162.343132 C66.4001855,164.21706 63.5024104,164.439134 62.0589305,165.208461 C57.1177879,167.66281 56.6404733,168.825813 56.6210058,170.19647 C56.5964912,171.279441 57.1761904,173.264406 58.5929926,176.070611 C59.5714153,178.057019 60.1410202,179.824236 60.1410202,181.64553 C60.3133437,186.019952 56.1631588,188.245016 52.3194069,188.278904 C48.9572957,188.252226 45.5692278,187.227658 42.9591393,186.000484 C39.3879326,184.218125 35.7258775,182.49489 33.0242196,182.553293 C31.782625,182.56555 30.7703144,182.802044 29.6548982,183.519458 C27.1875714,184.962938 25.2761502,187.808078 25.4506368,188.937915 C25.646754,190.20835 26.7830798,190.907739 27.4226236,191.930144 C28.2258387,193.214999 28.2186285,194.856759 28.2034871,196.321149 C28.1847406,198.128022 27.7456401,200.327851 27.9576196,202.150587 C28.2280017,204.47371 30.1120242,206.937431 27.9583406,208.939701 C27.3764784,209.475418 26.7946161,209.952733 26.2271742,210.388949 C26.4679945,211.277244 26.5537958,212.158329 26.5415385,212.934867 C26.5415385,214.995539 26.2387105,217.687824 25,219.403128 C41.6274174,218.020213 66.7138287,215.917722 74.9125349,215.206076 C74.7495846,213.019947 73.9586268,210.853285 72.8309532,208.031938 C71.9628464,205.86095 73.6262371,203.462841 75.945034,203.462841 C78.6012677,203.489519 86.9564349,204.650359 90.7821613,204.638102 C91.2789434,204.638102 91.6762248,204.611424 91.7879827,204.599167 C107.578297,202.366893 242.139174,189.519056 254.306369,188.826878 C264.842618,188.305582 275.470437,189.004249 283.677074,184.701208 C286.411178,182.507147 289.34933,180.14581 293.546381,178.918636 C297.436279,177.840713 304.311194,174.583149 306.779242,172.141779 C308.939414,170.157535 310.91068,167.114835 314.280002,164.529262" id="path-1"></path>
        <filter x="-8.5%" y="-11.9%" width="116.9%" height="131.9%" filterUnits="objectBoundingBox" id="filter-2">
            <feOffset dx="0" dy="7" in="SourceAlpha" result="shadowOffsetOuter1"></feOffset>
            <feGaussianBlur stdDeviation="8" in="shadowOffsetOuter1" result="shadowBlurOuter1"></feGaussianBlur>
            <feColorMatrix values="0 0 0 0 0   0 0 0 0 0   0 0 0 0 0  0 0 0 0.17 0" type="matrix" in="shadowBlurOuter1"></feColorMatrix>
        </filter>
    </defs>
    <g id="map/Kentucky" stroke="none" stroke-width="1" fill="none" fill-rule="evenodd" opacity="0.209999993">
        <g id="Fill-433">
            <use fill="black" fill-opacity="1" filter="url(#filter-2)" xlink:href="#path-1"></use>
            <use fill="#FFFFFF" fill-rule="evenodd" xlink:href="#path-1"></use>
        </g>
    </g>
</svg>