<?xml version="1.0" encoding="UTF-8"?>
<svg width="375px" height="266px" viewBox="0 0 375 266" version="1.1" xmlns="http://www.w3.org/2000/svg" xmlns:xlink="http://www.w3.org/1999/xlink">
    <!-- Generator: Sketch 52.6 (67491) - http://www.bohemiancoding.com/sketch -->
    <title>map/Louisiana</title>
    <desc>Created with Sketch.</desc>
    <defs>
        <path d="M327.001693,231.327866 C324.765336,229.575652 324.348458,226.720623 321.536611,225.425147 C319.332641,224.412848 316.900302,224.692705 314.63405,224.018393 C312.325445,223.328303 310.454479,221.528754 308.013836,221.232289 C304.727811,220.823716 304.685459,221.245576 302.181703,218.910398 C299.437952,216.349341 295.863767,216.688158 293.141606,214.379554 C292.501342,213.831468 290.651137,210.806199 290.932654,209.974936 C291.220814,209.132046 294.275148,208.434482 294.927868,208.174556 C294.526769,207.246132 294.124839,206.317708 293.724571,205.389283 C295.096446,205.262227 296.798835,204.798015 298.157423,205.008114 C299.219548,205.163405 300.232676,205.797856 301.225044,206.007956 C299.873929,203.827238 298.467175,201.716277 297.320347,199.414316 C299.713655,197.227785 304.165608,193.204336 306.859534,197.431241 C306.030761,196.129952 308.725517,191.69876 308.04124,189.841081 C307.492324,188.36374 305.931109,187.862989 304.482834,187.068264 C302.919958,186.154788 303.497109,180.097608 302.843558,178.373628 C300.472671,179.766265 297.522972,180.941328 296.224175,183.49491 C293.949618,187.983402 295.020047,193.317275 289.231096,188.637783 C287.774516,187.461059 286.028946,187.253451 284.23521,187.028404 C282.769495,186.844047 281.145167,186.329179 281.258937,184.543747 C281.385163,182.578942 285.473386,181.356544 286.90007,180.328468 C288.77851,178.979014 290.896115,176.775875 291.530566,174.453983 C291.354514,174.405818 291.19258,174.461457 291.024002,174.44817 C290.42609,175.728698 289.208675,176.586536 287.844273,176.586536 C287.563586,176.586536 284.367249,175.631537 284.840596,174.918195 C284.451953,175.50282 284.059158,176.022672 283.727815,176.13561 C282.243,176.657953 281.941553,175.135769 280.577151,175.025321 C278.402246,174.842626 277.444757,176.628888 275.376978,177.874538 C270.177635,181.012745 255.33281,183.91677 250.211528,179.561978 C245.843449,175.841637 251.148257,170.21213 253.617135,166.969288 C257.014438,162.501557 260.427518,159.181485 266.265464,161.671954 C271.859263,164.064432 275.623617,168.101999 281.787092,169.551105 C281.850205,169.458927 281.975601,169.410762 282.059475,169.340175 C281.469036,168.692437 280.949185,168.157638 280.822129,168.031412 C276.610171,163.865128 272.990313,158.71312 274.286619,152.496497 C275.327152,147.797906 276.896671,143.605048 277.98703,139.544229 C276.510519,139.664642 275.033179,139.764294 273.548364,139.861455 C268.804929,140.17868 264.056512,140.488432 259.307264,140.805658 C243.332219,141.860308 227.36797,142.907484 211.412025,143.949678 C199.992737,144.688763 188.457189,145.756701 176.819497,146.166104 C173.826615,146.270739 171.99468,142.643406 173.89388,140.313211 C174.412901,139.664642 174.961818,138.919744 175.567204,138.130002 C174.560718,136.330453 174.02758,134.3889 174.098167,132.250534 C174.120589,131.541344 173.832428,130.852084 173.64309,130.181094 C173.536794,129.804078 173.437142,128.724514 173.133204,128.472893 C172.597574,128.029442 172.184018,127.423225 171.978901,126.712375 C171.430815,124.854695 172.451418,122.892381 174.29498,122.288656 C174.350619,122.301943 174.37221,122.21807 174.822305,122.154957 C175.876955,121.915792 177.115962,121.541267 177.755395,121.247293 C177.714704,121.05048 177.656574,120.832907 177.600935,120.656855 C176.376046,120.022404 175.575508,118.700354 175.672669,117.223014 C175.798894,115.3371 177.346822,113.887994 179.204501,113.859759 L179.204501,113.353195 C179.161319,112.550996 178.789285,111.52458 178.746932,109.680188 C178.734476,108.540834 179.028449,107.245358 179.60477,106.093547 C179.781652,105.804556 179.9494,105.544631 180.112165,105.290518 C179.894591,104.994053 179.718539,104.663541 179.592314,104.306455 C179.204501,103.165439 179.401314,101.900689 180.1404,100.935726 C182.047905,98.5008955 184.045097,96.6648076 185.529911,94.8511413 C186.04395,94.2457555 186.662622,93.5706132 187.048774,93.106401 C186.922548,92.7817016 186.817913,92.4013632 186.781374,92.0284986 C186.662622,91.3043608 186.633557,90.6508098 186.647675,90.0944196 C186.584562,84.9449029 189.968577,81.8639954 193.014606,79.3934565 C195.089859,77.7400638 197.131064,76.4396053 197.862676,75.5028766 C197.714028,75.4181724 197.574516,75.3342987 197.440816,75.2354771 C197.327877,75.1507729 197.214938,75.0668991 197.116947,74.9697384 C197.101999,74.9539602 197.094525,74.9539602 197.088712,74.9406733 C197.060477,74.9199125 197.039717,74.8983212 197.010651,74.8700865 C196.4908,74.3502352 196.117936,73.6601452 195.997523,72.8712336 C195.764171,71.3424059 196.629482,69.5860396 198.144193,69.0039059 C198.156649,69.0039059 198.178241,68.9881276 198.194019,68.9881276 C197.714028,68.7855019 197.236529,68.5388632 196.771487,68.243229 C195.286672,67.3139742 194.675473,65.4571254 195.328194,63.8535587 C197.469051,58.8219636 201.695956,56.4660244 205.001911,54.6374103 C204.40566,54.9670923 202.659258,52.058915 202.52722,51.7250808 C202.483207,51.6129724 201.546478,51.3430815 201.402813,51.2666817 C198.520379,49.7295497 196.743252,46.122978 196.743252,42.9424186 C196.833769,42.1410505 196.940895,41.4933125 197.427529,40.8264746 C197.21909,41.1113132 195.779119,40.3506364 195.573171,40.2111236 C193.915627,39.09253 193.100141,36.223383 193.361728,34.3391299 C193.414045,33.9579611 195.089029,29.9453075 195.37885,30.1537463 C194.090018,29.2244914 192.579459,27.1417648 192.747207,24.9485906 C192.747207,22.9165203 193.594249,20.9650022 194.604886,19.2343792 L194.499421,19.3207443 C193.403249,20.1843949 191.919265,20.3180946 190.688563,19.7152001 C189.243609,19.0068405 188.668119,17.5685301 188.668119,16.0280764 C188.668119,15.6759727 188.744519,15.3437994 188.780227,15 C162.657288,16.6185144 64.6993796,20.8528937 44,21.5986227 C44.0647738,25.6511371 44.1835258,29.7044819 44.3097516,33.8400396 C44.7814377,49.1482464 44.5140382,64.210645 45.9000313,79.1052961 C46.0013442,80.2006376 45.7314534,81.303453 45.7314534,82.3971336 L45.7314534,82.4394857 C46.3218914,83.0531759 49.121282,84.9731376 51.1541826,87.0126817 C56.4672947,92.9727013 58.3457347,99.5787979 58.5350735,106.938098 C58.4661475,109.567249 61.0396602,111.679041 64.3464455,115.955772 C65.7581821,117.882378 66.4009374,120.190152 66.8319323,122.50706 C67.2770445,124.908673 67.9422215,127.081917 69.4270362,129.070805 C69.7500748,129.892103 72.297844,130.661085 74.687831,133.85327 C75.7291943,135.458498 76.0962458,137.246421 76.0962458,138.815109 C76.0406068,141.896016 74.4835444,144.73942 74.4835444,147.797906 C74.4835444,149.821671 74.8364785,151.825507 74.843122,153.848442 C74.8713567,162.248275 71.3536414,167.792247 67.8566869,173.787145 C67.4572485,174.461457 67.3443096,175.051895 67.3293618,176.051737 C67.2770445,179.421635 68.2685818,182.608838 67.034558,185.900675 C66.6367805,186.989373 66.0895249,188.03821 65.4583956,189.009817 C65.4941043,189.185869 65.5713346,189.511399 65.7681473,190.066129 C66.7804454,193.117971 68.9345893,197.087442 68.9977022,201.948798 C69.0417152,205.408383 67.6565525,208.799042 66.1061336,211.826802 C68.2021472,211.242177 70.369578,211.073599 72.5361784,210.876786 C76.4898712,210.510565 104.736228,212.128249 106.207756,212.677166 C113.59363,215.408461 120.671412,218.517603 128.494924,219.7973 C133.532332,220.612786 138.583027,221.337754 143.62874,222.111718 C147.201264,221.745497 149.234995,220.240752 152.519359,219.08645 C154.222577,218.488538 155.630992,218.530059 157.556767,218.530059 C157.844927,218.530059 151.957986,209.90601 150.880083,209.045681 C154.369564,209.77231 166.547868,202.62394 169.278332,202.476123 C169.236811,204.538089 168.46866,206.639916 169.145463,208.667834 C172.639926,209.019937 176.580332,206.184008 180.049052,207.569171 C182.22977,208.442786 185.896133,213.05003 186.993135,215.082931 C187.674921,216.349341 187.746338,217.968686 188.21055,219.319801 C193.570997,219.319801 201.407796,222.169018 205.368962,225.826246 C208.097766,228.358237 210.505192,230.307264 211.44026,233.972796 C211.92025,235.85871 211.770772,238.236241 213.515513,239.466943 C215.519348,240.881171 218.159295,239.369782 220.402296,239.728529 C222.808061,240.114681 224.928157,241.853608 227.326448,242.415811 C230.296078,243.113375 234.606857,244.574107 237.592264,243.393231 C241.895569,241.683369 240.615041,236.118636 241.488657,232.487982 C245.145885,232.052004 248.347206,230.658537 251.859108,229.814817 C251.794334,229.829765 253.097284,232.684794 253.490909,232.92562 C254.826246,233.755223 256.101791,233.009494 257.491937,232.453103 C260.293819,233.219593 261.096017,232.918146 261.779464,235.556433 C262.755223,239.277604 261.362586,245.532427 267.040258,242.457333 C272.816752,239.340717 273.821576,236.484026 270.248222,231.215758 C271.58605,230.892719 272.900626,230.475842 274.216863,230.082216 C273.590716,225.931711 273.723585,223.448715 270.07217,220.909251 C267.497827,219.128802 261.813511,217.110849 264.297337,212.937091 C269.185268,215.012344 274.426962,216.153359 279.407071,217.99526 C281.794566,218.875519 284.297492,219.826366 286.372745,221.33028 C289.651295,223.714454 288.041085,224.495892 286.19171,227.71299 C288.857401,227.403239 292.128478,227.620812 294.542547,226.487271 C296.067223,228.90134 296.518979,230.265742 299.007787,231.151814 C301.589604,232.066121 303.595931,231.236519 306.072283,230.455081 C307.302985,234.515069 308.928143,239.356495 313.959738,239.510125 C314.176481,238.08178 314.162364,236.575374 314.563463,235.176925 C315.344901,236.307975 315.907104,237.610924 316.415329,238.904739 C313.67656,242.478924 311.918533,246.741538 310.554131,251 C314.303537,247.699028 316.280799,242.858432 319.198942,238.849931 C319.031194,239.088265 324.194828,244.899637 324.708866,245.503362 C325.566704,242.449859 328.402633,238.117489 327.177744,234.845582 C328.500625,234.445313 329.830148,234.050857 331.146385,233.657232 C330.779333,231.398453 328.452459,232.467221 327.001693,231.327866" id="path-1"></path>
        <filter x="-9.6%" y="-8.7%" width="119.2%" height="123.3%" filterUnits="objectBoundingBox" id="filter-2">
            <feOffset dx="0" dy="7" in="SourceAlpha" result="shadowOffsetOuter1"></feOffset>
            <feGaussianBlur stdDeviation="8" in="shadowOffsetOuter1" result="shadowBlurOuter1"></feGaussianBlur>
            <feColorMatrix values="0 0 0 0 0   0 0 0 0 0   0 0 0 0 0  0 0 0 0.17 0" type="matrix" in="shadowBlurOuter1"></feColorMatrix>
        </filter>
    </defs>
    <g id="map/Louisiana" stroke="none" stroke-width="1" fill="none" fill-rule="evenodd" opacity="0.209999993">
        <g id="Fill-434">
            <use fill="black" fill-opacity="1" filter="url(#filter-2)" xlink:href="#path-1"></use>
            <use fill="#FFFFFF" fill-rule="evenodd" xlink:href="#path-1"></use>
        </g>
    </g>
</svg>