<?xml version="1.0" encoding="UTF-8"?>
<svg width="375px" height="266px" viewBox="0 0 375 266" version="1.1" xmlns="http://www.w3.org/2000/svg" xmlns:xlink="http://www.w3.org/1999/xlink">
    <!-- Generator: Sketch 52.6 (67491) - http://www.bohemiancoding.com/sketch -->
    <title>map/Massachussetts</title>
    <desc>Created with Sketch.</desc>
    <defs>
        <path d="M344.069778,184.089148 C342.90545,183.382628 341.862177,182.474349 340.488754,182.219033 C339.967118,183.737722 340.751406,188.997373 339.640636,190.001762 C339.587812,190.047249 332.284167,196.662716 332.284167,196.662716 C338.189445,195.484448 345.088106,195.182178 350,191.477898 C349.741016,191.673053 344.903956,184.507337 344.069778,184.089148 Z M286.775599,184.064203 C284.802771,185.008431 283.198977,186.491904 281.683223,188.865313 C279.983319,191.538059 278.936378,194.54022 277.839547,197.492492 C277.211529,199.168185 290.136523,196.662716 290.136523,196.662716 L298.249402,190.001762 L292.315511,182.619615 C290.147528,182.892539 288.344911,183.311462 286.775599,184.064203 Z M337.45798,133.786806 C336.581249,125.393667 333.394204,116.552992 327.3576,110.516388 C320.706918,103.858369 313.169233,101.026418 303.969795,99.755709 C297.962538,98.9325357 298.952254,103.127638 302.586101,105.813589 C307.824477,109.66827 313.325504,112.319005 318.212453,116.808308 C322.524208,120.773039 330.378103,124.27556 326.247563,131.486763 C323.294558,136.643702 316.175063,142.332548 310.830306,144.969343 C306.035799,147.33615 290.215025,146.74775 287.496793,144.919454 C283.223922,142.031011 283.184304,135.18444 280.597398,131.135337 C276.689893,125.020965 265.794953,128.718641 263.924838,120.900697 C262.985746,116.977051 263.957119,112.457668 262.012904,108.709369 C260.173604,105.165028 256.789203,102.46367 253.483304,100.364652 C249.360834,97.7476651 244.558257,95.5136522 239.625087,97.2040186 C235.742526,98.5348887 231.235616,101.72927 227.669266,97.4850127 C224.364834,93.5665026 224.024413,86.3729075 225.958356,81.7845604 C226.766856,79.8608881 228.375052,78.6261283 229.563591,76.9651085 C232.256879,73.2021356 230.961958,68.1295689 234.045557,64.4091486 C233.749889,64.7664439 230.169599,63.3578052 229.672907,63.219876 C225.390499,62.0284025 221.218874,61.2947365 216.924727,63.0247209 C214.965105,63.8148792 213.707602,65.4927733 212.422952,67.0958335 C211.066404,68.7891346 209.473615,70.3899938 208.46189,72.3261384 C207.50739,74.154434 205.78621,75.3965306 203.851533,75.7897755 C199.668169,82.8491097 194.117252,90.1314784 185.088758,94.290631 C176.361801,98.1768597 168.181426,98.4571201 161.66207,100.30229 C137.373323,106.811375 112.875482,110.481172 89.7503296,117.074628 L89.7503296,117.103241 C86.4737773,118.028394 82.9345725,118.052605 79.5912566,118.738583 C63.4938909,122.042281 47.5080426,125.872017 31.4422246,129.323916 C29.8443,129.667272 28.2449082,130.006959 26.644049,130.337109 C26.2251257,133.970956 25.9910862,137.640754 25.9910862,141.483696 C25.9910862,149.182053 26.4290848,156.899486 25.7137605,164.580235 C24.6763568,175.723888 25.0754711,186.916697 25.0754711,198.091163 C25.0747374,199.903318 25.0255818,201.72281 25.2456816,203.526161 C45.9534043,198.89893 117.226121,182.279194 147.197111,175.298362 C153.351101,173.864779 159.582126,172.311608 165.945945,172.657898 C171.407355,170.741562 177.248804,167.554517 184.527504,165.47164 C190.383626,163.795946 196.770922,164.014579 202.255075,166.759957 C206.279233,169.091548 208.568271,172.04382 210.084025,174.566897 C211.443508,170.808326 215.780208,167.110649 219.399382,167.00867 C223.356777,166.894218 227.512995,172.459074 231.040461,174.147974 C235.6112,176.334298 239.663971,179.351133 244.341825,181.458955 C248.195773,183.194809 252.401146,186.388457 254.963108,181.555066 C256.621193,178.399568 256.581575,174.517008 258.842,171.657178 C260.985772,168.931608 264.42153,167.593402 266.25276,164.523743 C267.441299,162.525971 268.367186,160.30443 269.414861,158.220819 L276.796274,160.449696 C277.225469,162.238374 277.708221,164.002107 278.179968,165.787116 C278.741223,167.902275 278.546068,172.813435 280.00753,174.425299 C283.614232,178.386362 294.682318,169.847224 296.066745,166.098924 C297.20246,163.047607 297.191455,161.564134 300.652158,160.669796 C307.930858,158.788676 314.894082,153.664019 321.427378,150.086664 C328.599697,146.154948 338.55481,144.344994 337.45798,133.786806 Z" id="path-1"></path>
        <filter x="-8.5%" y="-14.5%" width="116.9%" height="138.9%" filterUnits="objectBoundingBox" id="filter-2">
            <feOffset dx="0" dy="7" in="SourceAlpha" result="shadowOffsetOuter1"></feOffset>
            <feGaussianBlur stdDeviation="8" in="shadowOffsetOuter1" result="shadowBlurOuter1"></feGaussianBlur>
            <feColorMatrix values="0 0 0 0 0   0 0 0 0 0   0 0 0 0 0  0 0 0 0.17 0" type="matrix" in="shadowBlurOuter1"></feColorMatrix>
        </filter>
    </defs>
    <g id="map/Massachussetts" stroke="none" stroke-width="1" fill="none" fill-rule="evenodd" opacity="0.209999993">
        <g id="Fill-438">
            <use fill="black" fill-opacity="1" filter="url(#filter-2)" xlink:href="#path-1"></use>
            <use fill="#FFFFFF" fill-rule="evenodd" xlink:href="#path-1"></use>
        </g>
    </g>
</svg>