<?xml version="1.0" encoding="UTF-8"?>
<svg width="375px" height="266px" viewBox="0 0 375 266" version="1.1" xmlns="http://www.w3.org/2000/svg" xmlns:xlink="http://www.w3.org/1999/xlink">
    <!-- Generator: Sketch 52.6 (67491) - http://www.bohemiancoding.com/sketch -->
    <title>map/Michigan</title>
    <desc>Created with Sketch.</desc>
    <defs>
        <path d="M159.912984,107.149105 C158.920438,108.699912 158.643937,110.845796 157.764095,112.534854 C156.854949,114.281766 155.462679,117.230854 157.087871,119.044638 C157.761089,119.794495 158.928703,119.871885 159.861141,119.965805 C161.911602,116.721432 163.322657,113.474805 164.358031,109.767595 C164.806593,108.15743 164.472989,106.525476 164.995184,104.904792 C165.391151,103.694351 166.027553,102.510959 166.533218,101.338086 L165.786366,100.591234 C163.348203,102.537256 161.596031,104.507323 159.912984,107.149105 Z M176.724667,76.4740774 C176.509778,79.0302045 176.452674,78.8618998 174.791417,80.5547141 C173.807135,81.5630394 173.148193,83.0079048 172.840886,84.3768829 C175.40603,85.0290635 175.789223,83.8937584 177.414415,82.1558625 C179.452104,79.9859345 181.711444,77.9347215 182.513896,74.9600869 C183.678504,70.6555449 188.391786,70.1769285 192.143327,69.8621086 C194.120907,69.6953067 196.21645,69.6953067 198.12791,69.1084944 C200.771946,68.2985283 201.241546,66.4141171 202.871998,64.4523159 C205.07198,61.8082798 211.564483,62.9435849 214.565415,63.5559434 C219.657382,64.5980798 222.279629,68.7688797 226.944073,70.5075269 C226.944073,66.1902118 226.211496,61.7218734 231.865481,63.5694678 C234.082745,64.2945303 237.785447,63.0976137 240.228119,63.1494575 C242.597157,63.20055 244.963942,63.238118 247.331477,63.2974755 C250.283571,63.3583356 248.812408,61.0584224 247.670341,59.6819307 C245.838525,57.4744348 244.446255,56.3391297 241.999075,54.9047832 C240.303255,53.9054743 239.741238,52.7040495 239.385093,50.7708 C238.95832,48.4423351 237.403756,43.6982474 234.456171,43.4457904 C232.25168,43.2541936 230.600191,46.2506177 228.719536,47.1116763 C228.455809,47.231894 227.181502,44.5480357 226.944073,44.6562316 C224.252701,45.8929703 222.288645,46.6586062 219.472548,46.2265742 C217.187662,45.875689 215.683439,45.6931085 215.532415,42.9589091 C215.400176,40.5710867 216.7947,37.6467932 215.334056,35.467849 C214.222795,33.8118513 212.114478,34.8179225 210.493043,35.169559 C207.352358,35.8525453 205.080245,38.3538231 202.111621,39.4455493 C198.452498,40.794992 194.413937,40.1420601 190.633093,40.8295546 C183.041351,42.2090517 175.784715,47.4084636 171.277306,53.5974167 C171.243495,53.644001 169.247882,53.1744009 169.083334,53.1458493 C165.99825,52.6213999 163.696834,52.2712661 161.314271,50.1201222 C161.107647,49.9345362 154.448343,52.5853346 153.056072,52.3080827 C149.286499,51.5619822 146.026347,45.8358669 143.593443,43.1181974 C139.69689,38.7693252 132.263684,34.5083621 126.649522,38.8970564 C125.652467,39.6769682 125.424053,41.1631585 124.264705,41.6793429 C124.505891,40.1924012 125.415037,38.7009515 125.999595,37.2846377 C125.502946,38.4838084 123.245861,39.2704824 122.32319,40.139806 C121.066165,41.3239495 120.740826,42.9604118 119.541655,44.154323 C118.720419,41.4246318 119.045006,39.2547038 119.295961,36.4498766 L111.581746,27.7498781 L106.121613,33.961372 C106.121613,33.961372 100.933471,37.8338819 99.3255606,38.8437099 C95.9301644,40.9768212 84.1480867,44.7899737 81.788816,46.2040333 C79.3468957,47.6691855 78.2574236,50.4477152 75.9469913,52.0052846 C73.5388822,53.6372388 69.3568119,55.7012249 66.0117568,56.3496487 C66.5812877,56.3180916 66.7338138,58.2723792 66.7826522,58.6322807 C67.0749313,60.7819219 64.1123185,61.2642951 65.269413,63.5424189 C65.7615539,64.510922 66.7999335,64.7979416 67.3844917,65.6672652 C68.2463017,66.9475828 71.39976,67.1143848 74.0317744,70.1573931 C75.5998629,72.456555 75.9815539,74.0223895 76.7501952,74.2928791 C77.444452,74.6993649 78.7352886,74.9600869 80.1245534,75.1997707 C86.3007334,76.3418381 92.776706,76.9158772 99.2293865,78.5470799 C105.815058,80.2819704 111.423961,83.5932143 117.00281,83.5293487 C120.468834,83.4895266 123.820651,84.2731952 127.261129,84.4572784 C129.997582,84.6030423 132.98499,85.4565874 133.884368,88.3350479 C134.103014,89.0338128 133.897141,91.0136466 134.403558,91.483998 C134.403558,91.483998 134.409569,91.4704736 134.411072,91.4674681 C134.438872,91.6207456 137.667466,91.867943 137.926685,91.9385709 C139.460963,92.3585812 140.986975,93.1339848 142.090723,94.2978416 C143.534837,95.8215999 143.386819,97.5617498 143.824111,99.4814749 C144.486059,102.393747 144.039751,104.846186 143.619741,107.738171 C146.119516,107.139337 149.184314,106.763657 149.017512,110.305568 C148.955149,111.628714 148.799617,113.960184 147.709394,114.873838 C150.346668,113.441745 149.454052,110.026062 149.941685,107.599921 C150.424809,105.192563 152.256625,103.349477 153.450536,101.277977 C156.3583,96.2401074 158.301317,90.4516293 160.940845,85.2311793 C162.526215,82.096505 170.94821,75.3184856 176.724667,76.4740774 Z M309.50953,174.712156 C307.505653,173.512985 306.109626,169.635215 305.5153,167.468293 C304.096732,162.302692 301.89675,157.388797 300.490955,152.244986 C299.023549,146.868253 296.110526,133.570682 287.874117,135.321351 C282.585293,136.449894 277.76081,142.694448 275.728381,147.399465 C274.682487,149.822601 272.517068,151.887339 270.808475,153.859659 C268.642304,156.347412 266.020057,157.189687 263.410583,154.685404 C261.209098,152.574082 259.786774,148.663253 260.440457,145.615736 C261.031777,142.856742 263.557099,142.004699 265.745059,140.782236 C268.014918,139.513941 269.075087,137.385338 269.35835,134.851751 C269.551449,133.130385 269.698716,131.158816 270.654446,129.592982 C271.64023,127.976806 273.485571,127.130024 274.440549,125.49281 C275.670526,123.382991 275.029616,120.767506 274.633649,118.52094 C273.9439,114.548499 274.638909,110.336374 273.193292,106.499178 C272.261605,104.010674 269.871529,103.145858 268.619763,100.955643 C267.29812,98.6474652 268.329738,96.1559551 271.106765,95.9057522 C271.598154,94.1332937 270.232182,93.100925 269.287722,91.8446509 C267.639989,89.6521821 267.320661,87.3154522 264.837416,85.7849317 C261.116681,83.4887753 256.583726,83.2393237 252.375358,82.6044244 C248.258656,81.9822983 246.483943,79.3487812 242.97434,77.6071285 C240.146221,76.2013337 236.863528,77.0684033 233.955765,75.9856934 C231.41166,75.0412337 228.706012,71.7277357 225.74941,73.0598972 C223.382626,74.1283312 221.190157,76.667177 219.853487,78.8498781 C218.748237,80.6621586 217.416075,83.5331055 218.724944,85.5444965 C219.276443,86.3920307 220.391461,86.5911411 221.140567,87.2553434 C222.161666,88.1607323 221.9047,89.1840848 222.226282,90.3930232 C218.690382,90.2141995 212.742615,92.2691693 211.728279,96.4046553 C211.305264,98.1260213 212.680253,101.614586 212.838789,103.527549 C213.057435,106.15205 213.103268,109.860012 211.859767,112.277137 C211.296999,113.365107 210.233824,113.996249 209.544827,115.012839 C210.334506,112.359787 210.291679,110.097442 210.286419,107.300879 C210.057254,107.297123 209.500497,107.445892 209.298381,107.551834 C208.828781,110.799963 208.648454,112.614498 206.802362,115.260788 C206.908304,115.112019 206.956391,111.977345 206.969164,111.513004 C207.009738,109.869028 206.086316,108.37307 206.214048,106.74337 C206.42518,104.01443 205.120067,101.214111 204.667748,101.928655 C203.261954,104.139907 202.841192,107.971093 200.678026,109.539181 C199.141495,110.652697 197.582423,109.793892 196.220958,111.370997 C194.784358,113.033006 194.902321,115.373492 194.011208,117.272931 C193.159166,119.099487 191.173321,120.259587 189.648812,121.470779 C188.400802,122.463326 190.176266,128.505764 190.387399,129.804114 C191.041082,133.850188 191.207884,137.704666 189.07327,141.444936 C187.579566,144.059669 185.862708,146.772831 186.04604,149.909759 C186.247404,153.245046 188.269314,156.091198 187.803471,159.543698 C186.946921,165.939275 187.838785,171.77584 191.296544,177.29984 C192.838335,179.756036 193.501035,180.480347 196.320889,179.727484 C197.381058,179.44347 200.231718,197.949469 200.30986,199.649797 C201.004117,214.326114 196.44862,233.415168 184.069212,242.723769 C177.980941,247.301054 172.323199,246.550446 167.648988,243.325608 C167.62269,245.883238 167.586625,248.44237 167.62269,251 C176.426377,250.532654 185.163192,250.137439 193.782043,249.058486 C207.721276,247.329606 221.668773,245.944098 235.506572,244.140834 C237.69829,243.853063 239.345271,243.508189 241.138767,243.498421 C243.022427,243.474377 244.955677,244.07246 246.936262,245.330988 C264.666106,242.727525 281.943631,239.221679 299.312071,234.91338 C298.599031,235.06215 296.898703,233.601506 296.19017,233.309978 C294.268191,232.519547 292.161377,232.060466 290.097391,231.833555 C288.944805,231.707327 287.08068,231.75316 286.474333,230.529194 C285.548657,228.661313 287.364694,225.972195 288.288867,224.412372 C289.743501,221.956176 291.577571,219.684063 292.494981,216.944604 C293.602486,213.638619 291.721832,209.803677 293.497296,206.670506 C295.337376,203.425382 299.427781,202.770196 299.239189,198.268046 C299.137756,195.87271 299.977025,191.471994 302.110888,189.982047 C304.784978,188.115668 305.67534,191.838658 305.930051,193.647933 C309.047444,193.338372 308.994849,187.682134 308.955778,185.485908 C308.937745,184.545205 309.562126,174.742961 309.50953,174.712156 Z M260.919825,61.36648 C261.288742,60.1545362 258.990332,57.6983401 258.077429,57.1340686 C255.116319,55.3045068 253.033549,60.2221586 251.703642,62.0472123 C252.02297,62.319956 252.58123,62.5633967 253.270979,62.7549935 C255.863171,63.4710397 260.290936,63.4319689 260.919825,61.36648 Z M115.509857,30.0362669 C116.502404,30.6073005 118.804571,31.716308 117.824797,33.2738775 C117.973567,33.4098737 120.377168,35.5362227 120.293767,35.7030247 L124.01901,28.7401707 C126.728415,25.5776961 130.766224,22.8953405 131.500303,18.5351979 C132.567234,18.5614955 133.808481,18.9987871 134.848363,18.6028203 C135.655324,18.295514 136.728266,17.4306986 137.206131,16.7146524 C134.908472,14.2697266 132.843734,15.0255949 129.878867,15.4651406 C125.687781,16.0842613 121.35619,18.0257758 118.259084,20.9575828 C116.664697,22.4625571 115.039506,24.6828262 114.551873,26.8407324 C114.169431,28.5515793 114.617241,29.5223365 115.509857,30.0362669 Z" id="path-1"></path>
        <filter x="-11.2%" y="-8.7%" width="122.5%" height="123.3%" filterUnits="objectBoundingBox" id="filter-2">
            <feOffset dx="0" dy="7" in="SourceAlpha" result="shadowOffsetOuter1"></feOffset>
            <feGaussianBlur stdDeviation="8" in="shadowOffsetOuter1" result="shadowBlurOuter1"></feGaussianBlur>
            <feColorMatrix values="0 0 0 0 0   0 0 0 0 0   0 0 0 0 0  0 0 0 0.17 0" type="matrix" in="shadowBlurOuter1"></feColorMatrix>
        </filter>
    </defs>
    <g id="map/Michigan" stroke="none" stroke-width="1" fill="none" fill-rule="evenodd" opacity="0.209999993">
        <g id="Fill-439">
            <use fill="black" fill-opacity="1" filter="url(#filter-2)" xlink:href="#path-1"></use>
            <use fill="#FFFFFF" fill-rule="evenodd" xlink:href="#path-1"></use>
        </g>
    </g>
</svg>