<?xml version="1.0" encoding="UTF-8"?>
<svg width="375px" height="266px" viewBox="0 0 375 266" version="1.1" xmlns="http://www.w3.org/2000/svg" xmlns:xlink="http://www.w3.org/1999/xlink">
    <!-- Generator: Sketch 52.6 (67491) - http://www.bohemiancoding.com/sketch -->
    <title>map/Minnesota</title>
    <desc>Created with Sketch.</desc>
    <defs>
        <path d="M264.168086,61.1013236 C261.794677,59.7003069 261.640907,57.349184 258.393163,57.6738098 C255.480445,57.966493 252.546184,58.0638065 249.641637,58.4456318 C247.806053,58.6870583 244.096256,60.1460174 242.472384,58.8801996 C241.746619,58.3141472 240.734113,55.2758873 240.988168,54.3540093 C240.95474,54.4765797 238.508532,54.5805789 238.347333,54.5954359 C234.30251,57.2875273 228.832157,63.5505028 223.574258,62.498626 C221.042623,61.9920018 219.377894,59.9164765 217.476939,58.3609468 C215.353871,56.6263901 212.242069,56.367878 210.354485,54.4892082 C209.120609,53.2620186 208.951239,51.8773446 206.937371,51.6700892 C203.248373,51.2904925 202.968319,52.7977368 202.358438,56.0328523 C202.154154,57.1226145 198.185845,52.3059696 197.977847,52.0155149 C196.659286,50.1903303 196.039749,48.0784054 193.318686,48.5538299 C193.229544,47.8369789 193.346914,46.944815 193.73394,46.2940777 C194.407706,45.156773 178.596868,41.9899998 176.90614,42.2485119 C172.499548,42.9230205 164.308875,51.6247753 161.565527,43.3130172 C161.073759,41.825087 145.690804,40.3936134 143.494194,39.9226459 C138.189496,38.7890555 138.983604,33.3677301 137.511273,28.9670816 C136.087228,24.712032 134.66244,20.4569823 133.246567,16.200447 L126.763707,15 L126.525252,29.3971923 C126.525252,29.3971923 106.136225,29.8845024 72.2072554,29.6371331 C72.0809707,30.2878704 72.0037143,30.9616362 72,31.6718016 C72,37.5395804 76.0619084,43.9934686 76.9050441,46.2762492 C77.6434379,48.6236579 77.8380648,51.0067234 77.8380648,53.3281323 C77.8380648,57.0416437 77.3254977,60.6325847 77.3336691,63.8067864 C77.3336691,63.8067864 77.3336691,63.8067864 77.3425833,63.9850706 C77.3804687,69.7993642 78.1433765,75.5408584 80.1624451,80.8492705 C82.9005933,88.0764664 85.1306316,94.5741828 85.1395458,102.795313 C85.1558885,108.334752 85.6097704,113.908362 86.1141661,119.517629 C86.5814193,124.754727 86.5175341,130.105482 88.1584916,134.33676 C90.1931601,139.642201 91.652862,144.327361 92.5078833,150.071084 C92.9238798,153.038773 92.6230252,155.600123 93.042736,157.793761 C93.042736,157.799704 93.0382789,157.807133 93.042736,157.813818 C93.0516502,157.871018 93.0345646,157.931932 93.0382789,157.990617 C93.042736,158.055245 93.0769071,158.110959 93.0769071,158.175587 C93.0769071,158.263243 93.0345646,158.334557 93.0263932,158.419242 C93.017479,158.506898 93.0345646,158.597526 93.0093077,158.682211 L93.0093077,158.684439 C92.4573695,160.819393 92.0257731,163.81531 90.1471034,166.303861 C88.2899762,168.508642 86.2337651,169.157894 85.6060561,170.1184 C85.4196006,170.359826 85.3260014,170.580453 85.3170871,171.041763 C85.028861,172.94569 88.7007728,177.249768 90.2993878,177.451823 C93.5939313,178.369244 95.8113411,181.266362 95.9769968,184.511878 C96.3580793,190.546055 96.4219645,239.993179 96.4308787,251 C107.374557,250.813544 149.752713,249.685897 166.979424,249.685897 C183.180258,249.154758 225.727783,246.708551 238.491446,246.288097 C236.718261,239.083187 237.278371,232.5149 231.045109,230.212805 C228.607073,229.204013 225.712183,228.294021 223.251861,225.911698 C220.801196,223.482576 219.428408,220.732542 217.681223,218.964557 C212.322297,213.573689 200.958907,209.047498 198.253444,207.386484 C194.819245,205.377815 192.708063,202.590639 192.868519,198.906099 C192.868519,198.101591 192.936118,197.253998 193.038631,196.344749 C193.068345,196.146408 193.076517,195.951781 193.076517,195.736354 C193.094345,194.736477 192.745948,193.611058 192.453265,191.951529 C192.292809,190.996223 192.22001,190.058745 192.22001,189.148753 C192.237095,184.854332 193.691597,181.186135 194.480505,177.702907 C194.624618,177.032855 194.692217,176.480174 194.692217,176.01515 C194.611989,174.363792 194.166279,173.661055 191.775042,172.204325 C189.740374,171.141305 188.568898,169.026409 188.646154,167.143282 C188.773182,163.438685 191.34196,160.465053 192.105611,158.652497 C194.047423,154.63516 198.03356,152.483863 201.120106,150.921648 C204.19848,149.217548 204.012024,148.485097 204.253451,144.031707 L204.253451,143.494625 C204.261622,139.030092 203.451915,134.344931 203.235745,129.460687 C203.226831,129.282403 203.218659,129.095947 203.218659,128.882006 C203.087175,127.558989 203.782483,125.826661 204.809103,125.220494 C205.656696,124.658899 205.780009,124.70347 206.317833,124.130732 C206.614973,123.953191 206.836343,122.929542 207.835477,121.720181 C207.971419,120.507849 208.387416,118.218382 210.116772,116.329313 C210.549112,115.913316 211.156021,115.067952 211.728016,114.188417 C211.092136,113.938076 210.591454,113.636478 210.388656,113.268024 C209.256551,111.213299 219.12681,104.463756 221.420734,102.365202 C230.604599,93.9531595 236.362436,82.8846818 247.136744,76.0942823 C250.346603,74.0692708 253.751088,72.3525425 257.273687,70.9440973 C261.535422,69.242226 265.889271,67.5098979 269.540383,64.6670077 C271.210312,63.3685044 272.597214,61.8137176 274.3444,60.5909851 C274.3444,60.5909851 268.357765,60.5909851 268.345136,60.5909851 C266.568237,60.5909851 266.063841,62.2230284 264.168086,61.1013236 Z M301.93388,51.9516297 C299.457958,53.3088182 297.35049,55.2380019 294.896111,56.6286186 C292.8087,57.8112372 290.383292,58.2636334 288.340452,59.5116228 C286.707666,60.5077858 285.41882,61.5871481 285.287335,63.5757598 C285.083794,66.6385338 286.534582,66.1809377 288.000969,65.0428902 C290.609119,63.0201073 293.169726,61.2075513 296.069815,59.6386503 C298.949105,58.0823778 300.607148,54.4854939 302.896615,52.189342 L301.93388,51.9516297 Z" id="path-1"></path>
        <filter x="-11.9%" y="-8.7%" width="123.8%" height="123.3%" filterUnits="objectBoundingBox" id="filter-2">
            <feOffset dx="0" dy="7" in="SourceAlpha" result="shadowOffsetOuter1"></feOffset>
            <feGaussianBlur stdDeviation="8" in="shadowOffsetOuter1" result="shadowBlurOuter1"></feGaussianBlur>
            <feColorMatrix values="0 0 0 0 0   0 0 0 0 0   0 0 0 0 0  0 0 0 0.17 0" type="matrix" in="shadowBlurOuter1"></feColorMatrix>
        </filter>
    </defs>
    <g id="map/Minnesota" stroke="none" stroke-width="1" fill="none" fill-rule="evenodd" opacity="0.209999993">
        <g id="Fill-440">
            <use fill="black" fill-opacity="1" filter="url(#filter-2)" xlink:href="#path-1"></use>
            <use fill="#FFFFFF" fill-rule="evenodd" xlink:href="#path-1"></use>
        </g>
    </g>
</svg>