<?xml version="1.0" encoding="UTF-8"?>
<svg width="375px" height="266px" viewBox="0 0 375 266" version="1.1" xmlns="http://www.w3.org/2000/svg" xmlns:xlink="http://www.w3.org/1999/xlink">
    <!-- Generator: Sketch 52.6 (67491) - http://www.bohemiancoding.com/sketch -->
    <title>map/Montana</title>
    <desc>Created with Sketch.</desc>
    <defs>
        <path d="M25.8394503,70.5416496 C25.4368151,72.3659152 24.6051293,74.5287785 25.2182875,76.3914666 C26.3053225,80.0207865 29.4231436,83.5052219 30.8591825,88.5137475 C31.3962962,90.6013669 30.9872573,92.6833831 30.9872573,94.794216 C30.9864568,96.4367755 32.6578331,98.497179 30.9760507,99.8347603 C34.0874682,103.398442 37.8408606,107.083795 40.263876,111.690486 C41.818384,114.705847 44.6624453,118.215097 46.223357,122.062944 C46.7260507,123.302068 46.4674996,124.622039 46.7684755,125.865966 C47.2199392,127.731055 49.9439303,129.303974 51.3279387,130.451044 C53.2938871,132.117618 55.2638378,133.66252 57.5059475,134.919254 C59.3206074,135.935848 60.8078762,137.517572 60.7358341,139.738869 C60.6421794,142.610146 59.0708616,144.801827 58.2303706,146.687728 C55.752123,151.759491 53.357124,155.600935 53.3851404,160.18121 C53.394746,161.760533 53.776569,163.311038 53.7861747,164.88956 C53.7973812,166.65219 53.3859409,168.993558 51.8018155,170.036567 C50.5554875,170.856246 50.2897323,172.150602 49.9095102,173.509796 C49.4116194,175.226799 48.8889141,177.194348 48.2893638,178.762464 C49.888698,179.74944 51.283913,181.565701 53.3651287,180.876499 C56.2099905,179.935149 59.0532513,178.026034 62.2791356,176.453915 C63.3285486,175.942417 64.861444,176.371467 65.2952974,177.532145 C65.626691,178.419063 67.0971499,179.534915 68.167375,181.755412 C68.9430281,183.53245 68.7901388,185.557633 68.8117514,187.449938 C68.8525753,190.941578 69.0478894,194.267521 70.9554036,197.282082 C72.6027659,199.886003 74.5895264,202.623602 74.796047,205.817467 C74.8881008,207.233494 74.3814048,208.555066 74.1236542,209.925467 C73.8386878,211.444754 74.0724243,212.795143 74.6327516,214.223177 C77.3095152,213.890983 79.7965679,215.27179 81.0124782,217.676394 C82.0090603,219.531078 82.4749324,221.651516 82.8583564,223.802373 C83.1689378,225.905201 83.4635099,228.015234 83.8845558,230.099651 C84.0262386,230.800861 84.7666711,234.552652 85.5111059,232.448223 C86.2763529,230.28536 88.5024532,229.150297 90.7029386,229.150297 C92.2206251,229.222339 93.6622672,229.627375 95.074292,230.165289 C96.5727673,230.736023 97.9847921,231.409216 99.516887,230.522298 C101.446814,229.405646 103.466394,228.9846 105.349094,228.993405 C107.780114,229.034229 110.131087,229.645786 112.455645,230.305371 C114.711362,230.945745 116.964679,232.2377 119.197983,230.940942 C121.748273,229.460077 123.935951,227.045867 126.868063,226.200574 C129.877822,225.333667 132.745096,226.840948 133.892166,229.733837 C134.467703,231.05701 134.838319,232.35697 135.128889,233.102205 C135.314597,229.562537 135.433066,225.667462 137.067621,221.890056 C137.85368,220.072194 139.079196,218.448045 140.999518,217.655582 C143.26244,216.721437 145.658239,217.510698 147.9876,217.688401 C151.233496,218.000584 234.330835,229.199125 320.17698,236.866804 C326.034001,237.381505 331.943853,237.757724 337.884923,238.266021 C339.416218,233.84744 339.159268,228.477904 339.358584,223.06114 C339.653957,216.081062 340.712175,209.353133 340.70337,202.759681 L340.712175,202.724461 C340.712175,202.695644 340.724982,202.67243 340.724982,202.643613 C340.729785,202.598787 340.707372,202.559564 340.712175,202.515539 C341.100402,198.379523 348.006035,93.042793 350,69.2392888 C309.794115,66.4328495 267.206839,62.5513823 224.429852,57.1946533 C157.344265,50.7837085 91.8956353,39.7268499 34.6141758,28 C33.8473279,30.1100325 32.8963724,33.7313478 32.2487942,37.2638112 C31.2338013,42.3996111 30.4557468,47.5850401 29.9986798,49.7695161 C28.5546363,56.6431311 27.2466723,63.583185 25.8394503,70.5416496" id="path-1"></path>
        <filter x="-8.5%" y="-9.7%" width="116.9%" height="126.2%" filterUnits="objectBoundingBox" id="filter-2">
            <feOffset dx="0" dy="7" in="SourceAlpha" result="shadowOffsetOuter1"></feOffset>
            <feGaussianBlur stdDeviation="8" in="shadowOffsetOuter1" result="shadowBlurOuter1"></feGaussianBlur>
            <feColorMatrix values="0 0 0 0 0   0 0 0 0 0   0 0 0 0 0  0 0 0 0.17 0" type="matrix" in="shadowBlurOuter1"></feColorMatrix>
        </filter>
    </defs>
    <g id="map/Montana" stroke="none" stroke-width="1" fill="none" fill-rule="evenodd" opacity="0.209999993">
        <g id="Fill-443">
            <use fill="black" fill-opacity="1" filter="url(#filter-2)" xlink:href="#path-1"></use>
            <use fill="#FFFFFF" fill-rule="evenodd" xlink:href="#path-1"></use>
        </g>
    </g>
</svg>