<?xml version="1.0" encoding="UTF-8"?>
<svg width="375px" height="266px" viewBox="0 0 375 266" version="1.1" xmlns="http://www.w3.org/2000/svg" xmlns:xlink="http://www.w3.org/1999/xlink">
    <!-- Generator: Sketch 52.6 (67491) - http://www.bohemiancoding.com/sketch -->
    <title>map/Nevada</title>
    <desc>Created with Sketch.</desc>
    <defs>
        <path d="M228.865787,223.584856 C229.550608,223.990841 230.044333,222.735708 230.487496,222.213727 C232.606649,219.715357 232.887716,215.695659 233.58369,211.637296 C234.640292,206.366182 235.566027,201.060865 236.463507,195.738446 C236.467225,195.724318 236.461276,195.711677 236.463507,195.698293 C237.796714,188.377922 260.508827,61.2689112 263.857088,42.5690615 C247.492024,39.5754795 193.008979,28.4971439 192.170985,28.3172018 C172.311178,24.0640251 152.452858,19.9216392 132.69715,15 C129.702824,27.2434978 113.396501,94.2102107 111,103.909982 C118.361267,114.394211 197.294129,230.02708 211.606218,251 C211.418096,250.724138 212.589951,248.932897 212.746842,248.642907 C213.411587,247.417517 213.624246,246.122975 213.610118,244.71318 C213.616067,241.725547 213.216774,238.547561 213.207851,235.247631 C213.204133,233.684663 213.219004,232.094184 213.584837,230.566906 C213.837648,229.513279 214.794613,228.525828 214.596825,227.362896 C214.414653,226.288449 213.92985,225.185002 213.87557,224.057018 C213.720165,220.804676 216.964328,218.12339 220.030779,218.081751 C221.446522,218.063162 222.778242,218.898926 224.120372,219.271451 C225.558422,219.671487 226.805376,220.333258 227.71624,221.554931 C228.133378,222.114833 228.208478,223.194486 228.865787,223.584856" id="path-1"></path>
        <filter x="-18.0%" y="-8.7%" width="136.0%" height="123.3%" filterUnits="objectBoundingBox" id="filter-2">
            <feOffset dx="0" dy="7" in="SourceAlpha" result="shadowOffsetOuter1"></feOffset>
            <feGaussianBlur stdDeviation="8" in="shadowOffsetOuter1" result="shadowBlurOuter1"></feGaussianBlur>
            <feColorMatrix values="0 0 0 0 0   0 0 0 0 0   0 0 0 0 0  0 0 0 0.17 0" type="matrix" in="shadowBlurOuter1"></feColorMatrix>
        </filter>
    </defs>
    <g id="map/Nevada" stroke="none" stroke-width="1" fill="none" fill-rule="evenodd" opacity="0.209999993">
        <g id="Fill-445">
            <use fill="black" fill-opacity="1" filter="url(#filter-2)" xlink:href="#path-1"></use>
            <use fill="#FFFFFF" fill-rule="evenodd" xlink:href="#path-1"></use>
        </g>
    </g>
</svg>