<?xml version="1.0" encoding="UTF-8"?>
<svg width="375px" height="266px" viewBox="0 0 375 266" version="1.1" xmlns="http://www.w3.org/2000/svg" xmlns:xlink="http://www.w3.org/1999/xlink">
    <!-- Generator: Sketch 52.6 (67491) - http://www.bohemiancoding.com/sketch -->
    <title>map/New York</title>
    <desc>Created with Sketch.</desc>
    <defs>
        <path d="M59.8712126,244.118352 C81.2360101,240.055178 221.449016,211.574876 233.154064,208.63376 C234.293642,208.347342 235.619848,207.845349 236.853883,207.909336 C238.496977,207.99389 240.734998,209.541766 242.036829,210.512235 C242.781058,211.068312 243.083473,211.84225 243.680685,212.524016 C244.734185,213.726819 246.587522,212.73883 247.839839,213.774048 C249.81658,215.406477 252.176481,217.180593 253.808911,220.246636 C255.330887,223.170232 255.962377,225.960521 256.939702,228.072854 C258.780852,231.898361 260.980785,232.876448 265.916162,233.88272 C268.816906,234.474599 272.598232,234.856998 274.07298,237.847627 C283.973442,239.988906 293.237082,244.244803 302.127464,247.040424 C303.785032,247.578982 305.992583,247.942336 308.21156,249.053729 C309.08681,249.432319 309.937685,250.143793 310.683438,251 C313.898784,247.444914 315.984455,243.142551 318.387014,239.024531 C318.521082,238.777724 318.385491,235.442783 318.179056,235.117516 C317.385313,233.866723 316.116238,232.49862 315.818394,231.003305 C313.728152,220.502584 311.832157,209.988913 310.254573,199.370882 C309.857701,196.655244 309.233066,193.851243 308.646519,190.974875 C307.295175,188.742186 307.039227,186.406661 307.099405,184.528948 C307.099405,178.723653 307.01028,172.894743 307.472663,167.103159 C307.733943,163.825349 307.540458,160.548302 307.540458,157.266683 C307.540458,154.930397 307.673003,152.472992 308.079015,149.93865 C304.934512,144.412917 304.562778,137.546504 303.436912,133.08265 C302.250106,127.962168 301.101387,122.84397 299.999897,117.701397 C299.291469,114.391594 299.079703,110.266719 296.841682,107.540416 C297.213416,107.995181 293.744407,110.203494 291.552853,108.428617 C290.059061,106.940919 291.335754,104.953514 291.091994,103.179399 C290.653988,99.9945225 289.404718,97.0183659 288.668868,93.9081414 C287.624509,89.4930393 283.862227,84.6376459 283.195695,78.0035667 C282.843767,74.4972322 283.953637,71.029747 283.978013,67.5317918 C284.035144,59.5273245 279.955973,51.5205721 277.008763,42.8130098 C275.297111,37.559983 275.069348,32.5088198 273.504714,28.632275 C272.636319,27.3601527 270.061605,23.6915656 269.867359,19.5027032 C269.908493,18.4423475 269.487246,16.8304848 269.040098,15 C260.333298,17.439123 251.576984,19.7167549 242.704122,21.4657326 C232.540855,23.4988429 221.522144,24.5134936 212.925035,30.87639 C204.095593,37.4099182 197.32059,48.1505908 191.951016,57.558963 C187.518393,65.3333817 185.426628,73.8268924 178.907573,80.3177627 C176.560622,82.6563346 174.353071,85.2005791 172.426606,87.9085997 C171.124775,89.746702 171.233705,90.1565235 173.288907,91.3029569 C175.564253,92.5743174 178.346164,93.4396652 179.855952,95.7614787 C182.063503,99.1512654 177.874641,100.692285 179.098772,104.171959 C180.211689,107.357596 181.721477,110.387075 182.79783,113.58871 C184.514814,118.722142 181.109792,120.17099 176.932356,121.754668 C173.65607,122.99632 170.335602,127.518067 168.347435,130.315213 C165.254731,134.672422 162.470535,140.282709 156.674381,141.444378 C151.960673,142.388948 147.09233,140.616356 142.476888,142.334863 C138.825821,143.69154 135.357574,147.593222 131.120721,146.247972 C127.556494,145.112965 124.41199,143.428736 120.597147,143.168979 C109.284401,142.401897 97.8071159,146.1558 87.6575612,150.76591 C82.6498178,153.040495 75.5129836,152.357206 74.1258372,159.009567 C73.3915104,162.555513 74.8715903,164.933695 77.9041164,166.560793 C78.9256229,167.111538 80.6928825,167.441376 81.3891218,168.439268 C82.5149881,170.037419 81.3159938,171.221179 81.5780358,173.039475 C82.1051667,176.735486 86.4943692,178.19119 85.7006259,182.322921 C85.021145,185.842205 81.4256858,187.857795 79.573872,190.695313 C76.7851059,194.970253 74.2035357,198.84756 70.5776065,202.474251 C67.3439785,205.70864 61.8212922,210.813888 56,216.073009 C57.1075843,224.016536 59.6571609,242.95059 59.8712126,244.118352" id="path-1"></path>
        <filter x="-10.5%" y="-8.7%" width="121.0%" height="123.3%" filterUnits="objectBoundingBox" id="filter-2">
            <feOffset dx="0" dy="7" in="SourceAlpha" result="shadowOffsetOuter1"></feOffset>
            <feGaussianBlur stdDeviation="8" in="shadowOffsetOuter1" result="shadowBlurOuter1"></feGaussianBlur>
            <feColorMatrix values="0 0 0 0 0   0 0 0 0 0   0 0 0 0 0  0 0 0 0.17 0" type="matrix" in="shadowBlurOuter1"></feColorMatrix>
        </filter>
    </defs>
    <g id="map/New-York" stroke="none" stroke-width="1" fill="none" fill-rule="evenodd" opacity="0.209999993">
        <g id="Fill-449">
            <use fill="black" fill-opacity="1" filter="url(#filter-2)" xlink:href="#path-1"></use>
            <use fill="#FFFFFF" fill-rule="evenodd" xlink:href="#path-1"></use>
        </g>
    </g>
</svg>