<?xml version="1.0" encoding="UTF-8"?>
<svg width="375px" height="266px" viewBox="0 0 375 266" version="1.1" xmlns="http://www.w3.org/2000/svg" xmlns:xlink="http://www.w3.org/1999/xlink">
    <!-- Generator: Sketch 52.6 (67491) - http://www.bohemiancoding.com/sketch -->
    <title>map/New Hampshire</title>
    <desc>Created with Sketch.</desc>
    <defs>
        <path d="M148.338523,59.1600035 C149.037058,63.2647306 149.716375,67.6089555 149.415524,71.7824273 C149.195984,74.8160668 147.221605,77.3943646 146.893405,80.4013932 C146.501633,83.993861 149.348258,86.0340278 151.098662,88.7734693 C152.692357,91.5151284 153.433027,94.5384191 153.433027,97.4508313 C153.163961,108.224539 145.213963,117.036433 138.838441,122.326083 C136.693309,124.106055 133.49557,124.489695 133.431999,127.864841 C133.209503,130.794994 136.138177,135.7594 136.343672,142.362592 C136.361413,143.466204 136.227619,144.628951 135.968902,145.847877 C132.976658,158.084443 134.766978,172.145332 129.6126,186.687435 C128.296101,190.400391 129.371624,193.515341 130.31631,197.211296 C132.139894,204.76287 132.275165,212.111167 133.146672,218.828194 C133.548052,222.366701 134.919251,226.802586 134.955472,231.901525 C134.980604,235.412682 133.245723,238.6119 133.245723,242.043963 C133.172543,244.866194 134.982083,247.599722 138.170213,251 C153.824798,246.782177 169.595436,244.261536 184.598793,240.221857 C188.85875,239.075372 193.285025,238.515066 197.488065,237.157172 C200.724243,236.111956 203.355762,233.871468 205.451369,231.248819 C207.357742,228.861972 208.215203,225.189671 210.882204,223.498403 C212.101869,222.725209 212.782664,222.816129 213.7547,221.623814 C215.339525,219.68196 215.990013,218.53991 217.61032,217.128055 C221.475549,214.152812 225.623888,214.002756 228.579913,213.755867 C231.104989,213.545197 234.507484,214.407094 236.854415,215.204681 C239.239785,216.014834 241.849128,216.672714 244.200495,218.213927 C245.518472,217.277372 246.79062,216.396996 246.81797,216.433216 L243.791722,212.902101 C239.944233,213.668642 238.804401,213.959144 235.670232,211.456244 C233.434918,209.671837 233.655197,206.629327 231.654947,204.794655 C231.697081,204.83605 228.483818,205.74082 227.931642,205.587807 C220.717139,203.591992 217.62806,197.310347 216.673765,192.226932 C216.415048,191.062706 211.866067,190.174938 210.87703,189.355175 C201.564703,181.6395 203.414898,171.103073 201.162583,165.099365 C200.405651,162.530676 198.383964,159.52143 196.762919,155.535713 C191.127327,141.134057 157.965745,37.4980142 150.912386,15 C150.377951,15.116053 149.843516,15.2269316 149.32756,15.4501673 C145.775009,17.017252 146.024116,20.8152148 145.675957,24.1674455 C145.363279,27.1870404 145.194005,32.0486989 144.098524,35.5790746 C146.379667,39.4709147 148.152247,43.8609695 148.338523,48.3537718 L148.338523,59.1600035" id="path-1"></path>
        <filter x="-23.3%" y="-8.7%" width="146.7%" height="123.3%" filterUnits="objectBoundingBox" id="filter-2">
            <feOffset dx="0" dy="7" in="SourceAlpha" result="shadowOffsetOuter1"></feOffset>
            <feGaussianBlur stdDeviation="8" in="shadowOffsetOuter1" result="shadowBlurOuter1"></feGaussianBlur>
            <feColorMatrix values="0 0 0 0 0   0 0 0 0 0   0 0 0 0 0  0 0 0 0.17 0" type="matrix" in="shadowBlurOuter1"></feColorMatrix>
        </filter>
    </defs>
    <g id="map/New-Hampshire" stroke="none" stroke-width="1" fill="none" fill-rule="evenodd" opacity="0.209999993">
        <g id="Fill-446">
            <use fill="black" fill-opacity="1" filter="url(#filter-2)" xlink:href="#path-1"></use>
            <use fill="#FFFFFF" fill-rule="evenodd" xlink:href="#path-1"></use>
        </g>
    </g>
</svg>