<?xml version="1.0" encoding="UTF-8"?>
<svg width="375px" height="266px" viewBox="0 0 375 266" version="1.1" xmlns="http://www.w3.org/2000/svg" xmlns:xlink="http://www.w3.org/1999/xlink">
    <!-- Generator: Sketch 52.6 (67491) - http://www.bohemiancoding.com/sketch -->
    <title>map/New Mexico</title>
    <desc>Created with Sketch.</desc>
    <defs>
        <path d="M286.631215,247.748499 C286.648696,247.748499 286.667842,247.748499 286.676999,247.739342 L286.696145,247.739342 C286.829336,247.835073 288.034713,247.341435 288.256976,247.085042 C288.604104,243.346542 288.860497,239.608041 289.030315,235.830416 C289.311681,229.977511 300.870981,58.9146855 300.953393,57.3197252 C301.056616,55.3043812 301.183979,53.3939251 302.961245,52.1427636 C302.917125,49.2591819 302.766453,46.2515662 302.761458,43.1432249 C302.766453,40.1489283 302.936271,37.0847065 303.587242,34.0487877 C278.897822,34.0296416 253.268574,30.6607457 228.949591,28.3840147 C198.720264,25.5462174 168.53589,22.766691 138.334866,19.2229821 C126.084639,17.7903481 113.799448,16.2669779 101.575859,15 C89.663603,110.061634 76.5001856,214.53986 72,248.119769 C79.3637887,249.770503 87.6823892,251.871588 93.7841947,250.619594 C101.506766,249.034623 99.1684345,248.024038 100.402115,241.334528 C102.731289,228.668079 108.455166,232.377444 120.235063,233.995712 C128.750953,235.161965 137.30014,236.719465 145.88762,237.216433 C151.310152,237.529432 157.776567,236.575452 163.147488,238.420978 C163.626142,238.003092 164.266291,237.765846 164.949726,237.833273 C168.375228,238.137947 268.013632,246.315865 273.280498,246.819493 C277.783181,247.265682 282.227593,247.686898 286.631215,247.748499" id="path-1"></path>
        <filter x="-11.9%" y="-8.7%" width="123.7%" height="123.3%" filterUnits="objectBoundingBox" id="filter-2">
            <feOffset dx="0" dy="7" in="SourceAlpha" result="shadowOffsetOuter1"></feOffset>
            <feGaussianBlur stdDeviation="8" in="shadowOffsetOuter1" result="shadowBlurOuter1"></feGaussianBlur>
            <feColorMatrix values="0 0 0 0 0   0 0 0 0 0   0 0 0 0 0  0 0 0 0.17 0" type="matrix" in="shadowBlurOuter1"></feColorMatrix>
        </filter>
    </defs>
    <g id="map/New-Mexico" stroke="none" stroke-width="1" fill="none" fill-rule="evenodd" opacity="0.209999993">
        <g id="Fill-448">
            <use fill="black" fill-opacity="1" filter="url(#filter-2)" xlink:href="#path-1"></use>
            <use fill="#FFFFFF" fill-rule="evenodd" xlink:href="#path-1"></use>
        </g>
    </g>
</svg>