<?xml version="1.0" encoding="UTF-8"?>
<svg width="375px" height="266px" viewBox="0 0 375 266" version="1.1" xmlns="http://www.w3.org/2000/svg" xmlns:xlink="http://www.w3.org/1999/xlink">
    <!-- Generator: Sketch 52.6 (67491) - http://www.bohemiancoding.com/sketch -->
    <title>map/North Dekota</title>
    <desc>Created with Sketch.</desc>
    <defs>
        <path d="M172.134324,238.796431 C228.440862,241.664891 318.92002,242.221813 350,242.232404 C349.818184,238.996782 349.943513,236.078897 349.53222,233.512287 C348.216259,224.720679 346.027404,217.681038 342.782073,209.180689 C339.465251,200.371429 339.759158,190.96553 338.992176,182.92943 C338.142229,173.656803 337.368187,164.293269 337.347004,154.796461 C337.318761,142.632427 334.107851,133.07825 329.627759,121.261962 C326.735469,113.664516 325.325069,105.591347 324.794625,97.5005255 C324.266829,89.4450084 325.384204,81.5510077 325.364787,73.5140252 C325.364787,70.1248299 325.058523,66.9545201 324.15209,64.0904736 C323.886427,62.64477 315.777953,50.1577035 315.762949,37.9310049 C315.762949,36.8056861 315.89534,35.6662457 316.048912,34.5268053 C248.030234,33.9248701 149.65884,31.5135989 39.3873106,24 C36.5638638,57.8425273 26.8181621,205.327245 25,231.042764 C42.6538241,232.116009 118.670651,236.064775 172.134324,238.796431" id="path-1"></path>
        <filter x="-8.5%" y="-9.4%" width="116.9%" height="125.2%" filterUnits="objectBoundingBox" id="filter-2">
            <feOffset dx="0" dy="7" in="SourceAlpha" result="shadowOffsetOuter1"></feOffset>
            <feGaussianBlur stdDeviation="8" in="shadowOffsetOuter1" result="shadowBlurOuter1"></feGaussianBlur>
            <feColorMatrix values="0 0 0 0 0   0 0 0 0 0   0 0 0 0 0  0 0 0 0.17 0" type="matrix" in="shadowBlurOuter1"></feColorMatrix>
        </filter>
    </defs>
    <g id="map/North-Dekota" stroke="none" stroke-width="1" fill="none" fill-rule="evenodd" opacity="0.209999993">
        <g id="Fill-455">
            <use fill="black" fill-opacity="1" filter="url(#filter-2)" xlink:href="#path-1"></use>
            <use fill="#FFFFFF" fill-rule="evenodd" xlink:href="#path-1"></use>
        </g>
    </g>
</svg>