<?xml version="1.0" encoding="UTF-8"?>
<svg width="375px" height="266px" viewBox="0 0 375 266" version="1.1" xmlns="http://www.w3.org/2000/svg" xmlns:xlink="http://www.w3.org/1999/xlink">
    <!-- Generator: Sketch 52.6 (67491) - http://www.bohemiancoding.com/sketch -->
    <title>map/Oklahoma</title>
    <desc>Created with Sketch.</desc>
    <defs>
        <path d="M271.902503,207.48147 C273.339732,209.28525 276.612853,209.998773 279.797469,212.395459 C281.086666,211.478296 282.393878,211.153255 283.054925,210.744409 C285.057646,209.731692 287.01024,207.559793 290.375782,206.065389 C292.325243,205.199919 293.617574,203.94675 295.866229,204.625811 C297.033243,204.979048 297.974686,205.957303 299.154231,206.106117 C301.057482,206.346569 304.467668,203.273955 308.663435,201.841426 C309.597046,201.564162 310.625428,201.841426 311.308405,202.533802 C312.890531,204.205999 315.250405,205.696487 316.494958,205.5978 C317.882843,205.488148 318.51961,204.472298 319.269945,203.442349 C320.93666,201.154533 323.576147,200.297678 326.235998,201.290032 C329.389285,202.502473 331.10456,204.773842 332.615412,205.719201 C338.480243,209.746573 343.705175,212.574036 350,214.301059 C349.984335,195.699331 349.757198,177.087421 349.757198,158.44888 C349.7478,136.717362 346.831049,115.471447 343.505451,93.8237345 C342.616484,88.1045842 341.164375,82.2859635 341.086052,76.5033715 C341.003029,70.3604934 340.63961,64.2238811 340.562854,58.0802197 C321.546796,58.1624589 223.615549,58.8556181 206.877127,58.8556181 C205.948998,58.8556181 205.262105,58.8454361 204.857175,58.8454361 C189.613156,58.6825241 67.9876153,54.2087105 61.477402,54.2032279 C61.4734858,54.2032279 37.8935433,52.9962694 26.0440465,52 C25.2623823,55.0890618 25,58.4091766 25,61.887504 C25,64.8410668 25.1307995,67.8886174 25.1997238,70.9424338 C35.1350049,71.5290735 75.3272699,73.6163833 78.9348304,73.8106245 C93.2342727,74.5774073 107.661382,74.5672253 122.096323,75.306595 C126.480848,75.459325 130.943697,74.681577 135.105001,76.433664 C135.105001,76.433664 140.572734,78.1638205 140.141958,80.8722322 C139.617976,86.2483275 139.585081,91.8249299 139.585081,97.4587081 C139.585081,110.063239 138.946748,122.754709 138.346793,135.389786 C137.879204,145.236562 137.512652,155.094303 137.277683,164.949695 C137.205626,166.796553 136.819493,168.633229 136.894683,170.488702 C136.924446,170.956291 139.477778,171.166197 139.837281,171.234338 C141.384161,171.528833 142.655345,172.475758 143.674328,173.663919 C144.742655,174.910039 145.38412,176.494515 146.489259,177.695991 C148.326718,179.691663 151.48862,178.282631 153.785836,178.414213 C154.615277,178.46199 155.4549,178.931929 156.294524,178.801129 C157.066006,178.681295 157.151378,177.988919 157.427075,177.398363 C158.335623,175.453601 161.075364,175.291473 162.131942,177.213521 C162.918305,178.934279 165.551527,180.370724 167.388203,183.948521 C168.489425,186.645184 169.023588,187.914018 169.485695,187.809848 C170.435753,188.177967 172.454922,187.809848 175.141403,188.564883 C179.274512,189.865829 182.016602,190.611465 186.161459,191.010129 C187.784313,191.165992 189.267752,191.81294 190.65407,192.640032 C191.998877,193.44206 193.169024,194.611424 194.812242,194.634921 C197.193263,194.754755 200.948854,192.604787 205.113291,192.195157 C208.124813,191.899879 211.159832,191.746366 212.150619,195.220777 C212.390287,196.06275 212.105191,197.366046 212.523437,198.075653 C213.178218,199.185491 215.154308,199.226219 216.099668,200.073674 C217.399048,201.237555 217.662213,202.861975 217.641066,203.853546 C217.623835,204.687686 217.480504,205.507729 217.438992,206.337953 C217.444475,206.236916 219.851343,204.498144 220.064382,204.286672 C221.749111,202.618391 223.529394,200.367386 226.128937,200.367386 C228.46688,200.367386 229.48743,201.973792 230.841636,203.494043 C231.469787,204.198167 231.976537,204.041521 232.834958,204.187202 C233.767002,204.345414 234.562764,204.875662 235.146271,205.607982 C235.76659,206.387297 235.916187,207.320124 237.059704,207.416462 C239.967056,207.659263 246.896298,202.870591 247.992038,207.911464 C248.868473,206.043458 250.152971,203.651472 252.96007,202.42415 C255.792232,201.247737 258.130959,202.713945 259.900277,204.849032 C260.251164,205.332285 260.700738,206.341086 261.352386,206.469536 C262.298529,206.655945 263.120138,205.44507 263.83836,205.023692 C265.029654,204.32505 266.669739,204.138641 268.001231,204.437836 C269.772899,204.835717 270.822428,206.125698 271.902503,207.48147" id="path-1"></path>
        <filter x="-8.5%" y="-12.6%" width="116.9%" height="133.9%" filterUnits="objectBoundingBox" id="filter-2">
            <feOffset dx="0" dy="7" in="SourceAlpha" result="shadowOffsetOuter1"></feOffset>
            <feGaussianBlur stdDeviation="8" in="shadowOffsetOuter1" result="shadowBlurOuter1"></feGaussianBlur>
            <feColorMatrix values="0 0 0 0 0   0 0 0 0 0   0 0 0 0 0  0 0 0 0.17 0" type="matrix" in="shadowBlurOuter1"></feColorMatrix>
        </filter>
    </defs>
    <g id="map/Oklahoma" stroke="none" stroke-width="1" fill="none" fill-rule="evenodd" opacity="0.209999993">
        <g id="Fill-457">
            <use fill="black" fill-opacity="1" filter="url(#filter-2)" xlink:href="#path-1"></use>
            <use fill="#FFFFFF" fill-rule="evenodd" xlink:href="#path-1"></use>
        </g>
    </g>
</svg>