<?xml version="1.0" encoding="UTF-8"?>
<svg width="375px" height="266px" viewBox="0 0 375 266" version="1.1" xmlns="http://www.w3.org/2000/svg" xmlns:xlink="http://www.w3.org/1999/xlink">
    <!-- Generator: Sketch 52.6 (67491) - http://www.bohemiancoding.com/sketch -->
    <title>map/Pennsylvania</title>
    <desc>Created with Sketch.</desc>
    <defs>
        <path d="M35.5653517,116.65824 C40.5463672,143.7948 45.1871099,169.713456 45.7486003,175.175519 C47.8216101,182.252069 55.7283287,221.839558 57.2728297,236.42383 C69.0866529,234.247049 97.0630349,229.244314 108.517279,227.196242 C108.526128,227.193828 108.534172,227.185784 108.549456,227.185784 C113.876376,226.119917 249.919557,199.094369 294.177553,189.685784 C294.092284,189.031784 294.154225,188.328715 294.450254,187.561291 C297.015574,187.043239 299.214074,186.659527 301.508302,185.345897 C301.312826,186.310406 301.12459,187.269284 300.929918,188.226552 C301.683667,188.061645 303.810573,187.926501 304.128322,186.964406 C305.203842,183.707278 306.817524,180.068048 310.621662,177.43757 C313.305232,175.639674 316.594536,174.523129 320.121147,174.493365 C321.961677,174.481299 323.933329,174.90845 325.765815,175.811017 C326.224339,176.015342 327.397194,174.595527 327.721378,174.326044 C330.42506,172.080082 334.960422,170.662681 336.338407,167.163421 C336.876569,165.797503 337.259476,164.001216 337.922324,161.904073 C339.801467,156.626224 344.128483,153.711783 346.006822,151.36929 C347.255293,150.001763 348.682348,148.644694 350,147.36485 C349.137654,146.60547 348.075809,146.040762 347.146695,145.357803 C344.049649,143.080468 341.679806,140.717865 339.185276,138.483165 C337.685018,137.139771 335.65223,136.694922 333.88812,135.819705 C331.962321,134.863241 330.492631,133.249559 329.638329,131.275494 C329.133149,130.109074 329.115451,128.886344 327.862958,128.282219 C326.398095,127.575127 325.057919,127.088448 323.863344,125.886633 C321.476607,123.409801 320.010136,120.336083 319.145376,117.035517 C318.420587,114.270699 317.600875,111.22031 319.1679,108.584201 C320.377759,106.548999 323.067765,104.796956 322.244836,102.100515 C321.799183,100.641283 320.305361,99.9599329 319.331199,98.9190036 C318.224307,97.7364951 317.459296,95.9675589 317.398964,94.349855 C317.335414,92.6500996 318.365081,90.7862409 319.480822,89.9407875 C321.882843,87.7109143 323.107182,85.9283028 324.337956,82.9149171 C325.407845,80.2683504 326.684471,77.991016 326.957172,76.5406331 C327.637718,74.3928115 326.451187,69.7174784 330.583532,65.1097173 C331.379915,64.3141385 332.081376,63.7019691 332.657346,63.203224 C331.482077,62.8717998 330.054218,62.6570177 328.993178,62.480848 C321.999485,61.3667158 315.067733,58.3066734 311.667417,50.5005082 C310.036843,46.8089901 309.242873,43.4320032 307.893848,40.9527574 C307.012195,39.2723082 305.672019,37.9546559 303.79368,36.3828044 C303.79368,36.3828044 301.735955,36.8397193 301.717453,36.8437414 C298.103964,37.6457557 297.054186,33.9767615 295.549907,31.6181799 C295.549907,31.6181799 295.596563,31.5530213 295.613456,31.5691098 C294.370616,29.962668 292.135112,29.7615611 290.356522,30.2039962 C273.61558,34.3636912 71.7300019,75.3436449 65.2511423,76.1931204 C65.0942789,76.2132311 64.9309801,76.2204709 64.765268,76.2204709 C59.6370423,76.2196665 59.5437287,67.8536198 59.0280906,64.3801015 C58.6451831,61.7946713 56.891531,48.4025611 55.5417015,38.3327368 C45.2570951,47.4951668 35.7680674,55.6971103 33.8028509,57.116925 C30.9648304,59.160171 27.993275,60.9966792 25,62.7857261 C25.8092541,66.3573845 26.7625008,71.093854 28.0632602,77.3514961 C30.2464766,88.302973 32.9533754,102.498706 35.5653517,116.65824" id="path-1"></path>
        <filter x="-8.5%" y="-9.9%" width="116.9%" height="126.6%" filterUnits="objectBoundingBox" id="filter-2">
            <feOffset dx="0" dy="7" in="SourceAlpha" result="shadowOffsetOuter1"></feOffset>
            <feGaussianBlur stdDeviation="8" in="shadowOffsetOuter1" result="shadowBlurOuter1"></feGaussianBlur>
            <feColorMatrix values="0 0 0 0 0   0 0 0 0 0   0 0 0 0 0  0 0 0 0.17 0" type="matrix" in="shadowBlurOuter1"></feColorMatrix>
        </filter>
    </defs>
    <g id="map/Pennsylvania" stroke="none" stroke-width="1" fill="none" fill-rule="evenodd" opacity="0.209999993">
        <g id="Fill-459">
            <use fill="black" fill-opacity="1" filter="url(#filter-2)" xlink:href="#path-1"></use>
            <use fill="#FFFFFF" fill-rule="evenodd" xlink:href="#path-1"></use>
        </g>
    </g>
</svg>