<?xml version="1.0" encoding="UTF-8"?>
<svg width="375px" height="266px" viewBox="0 0 375 266" version="1.1" xmlns="http://www.w3.org/2000/svg" xmlns:xlink="http://www.w3.org/1999/xlink">
    <!-- Generator: Sketch 52.6 (67491) - http://www.bohemiancoding.com/sketch -->
    <title>map/Tennessee</title>
    <desc>Created with Sketch.</desc>
    <defs>
        <path d="M309.873414,83.0756602 C303.248679,83.9948321 281.191441,86.9931107 275.650429,87.6137826 C266.976033,91.8268461 257.445399,90.9769585 249.363384,91.478115 C239.72074,92.0000568 126.969184,102.766261 114.320179,104.567076 C112.700081,104.797446 110.985871,104.618462 109.361154,104.494905 C108.875009,104.457953 104.497973,104.3292 104.415987,104.03301 C104.812062,105.465463 105.085735,106.97817 105.089776,108.654273 C105.093241,109.964324 105.163102,111.643314 104.000858,112.506481 C103.04127,113.218377 101.690226,113.287661 100.54588,113.395052 C93.4858092,114.057295 86.4130358,114.605218 79.3466134,115.196444 C67.6462254,116.17624 54.7154635,117.253611 48.7402691,117.76516 C48.7402691,117.76516 46.5341412,119.52094 46.5243259,119.528446 C46.504118,119.544612 46.8453432,120.784801 46.8603548,120.935495 C47.0023876,122.333883 46.316473,123.844858 45.0774385,124.567725 C45.0982238,124.5556 45.3309036,126.463228 45.2916425,126.70861 C45.0381774,128.279054 43.6738539,128.523859 42.8851675,129.579867 C44.0912919,130.659548 44.7743197,132.578723 43.9019147,134.059098 C42.6923261,136.035433 41.778928,138.314887 40.6524806,140.748498 C41.474077,142.331644 41.8112607,143.915946 42.0889753,145.336851 C42.2437102,146.12727 42.0393215,146.917111 41.5352781,147.541825 C40.9042136,148.32416 39.7997062,148.246215 40.3193385,149.286635 C40.9509805,150.561466 40.5266141,152.085143 39.3349239,152.868633 C37.1189807,154.294158 35.0629688,155.438504 33.2991057,156.808601 C33.5993377,157.200058 34.0825958,157.77223 34.5722049,158.496829 C35.4105451,159.720852 35.1339852,161.385407 33.9526877,162.284371 C32.7494502,163.155044 31.6010627,164.559206 30.0283089,165.979534 C30.030041,165.977802 30.6102971,167.450671 30.6408976,167.609448 C30.9965571,169.47666 30.2852382,171.445489 29.0490906,172.842145 C28.3666401,173.613511 27.5265679,173.625058 27.5363831,174.836379 C27.5669837,178.570226 31.2298143,184.84392 27.5473532,187.836425 C26.4740237,188.685158 25.1079681,189.397632 25,189.485392 C43.4654236,187.733076 89.8356807,183.395301 101.290687,183.253845 C101.759511,182.681672 102.412515,182.269431 103.157899,182.203033 C107.381355,181.811577 176.277674,176.129686 191.46133,174.236492 C193.661107,173.974367 241.336219,168.444324 256.738699,166.767644 C256.6902,164.749738 256.607058,162.74107 256.607058,160.607691 C256.607058,159.127894 256.651516,157.603639 256.814334,156.047629 C256.917106,154.980073 257.619764,154.066675 258.626696,153.706974 C262.153268,152.585145 265.238729,151.894611 265.865752,150.549341 C267.737006,148.296446 266.523375,143.072409 271.503763,138.576435 C276.015903,134.876653 280.77689,134.505404 285.213973,133.863947 C287.732458,133.596625 289.017104,131.403777 292.276931,128.235751 C294.921282,125.934358 298.879149,120.768635 304.14822,119.299807 C305.352613,119.002462 306.24638,119.329831 306.819131,118.059618 C307.417863,116.730514 307.488302,114.641592 308.294309,112.082692 C308.767175,110.580954 310.335887,109.982222 311.77931,110.290538 C312.20945,108.81305 313.239477,107.207963 314.455994,106.269738 C315.358999,105.573431 316.518357,105.084399 317.693303,105.094792 C318.804162,105.278395 319.90636,105.597103 320.902322,106.132324 C322.106714,106.779555 322.261449,107.706233 323.462954,106.525513 C325.261459,104.758763 326.446799,102.420417 328.158698,100.561866 C330.577876,97.9354128 334.887937,95.4602308 338.555387,96.7165863 C338.754002,96.7847159 339.814052,97.3574662 339.94165,97.2466113 C341.689347,95.7235112 341.439346,91.3684149 345.00922,87.1287924 C346.672621,85.4330589 348.320433,84.7252042 348.937063,84.2419461 C350.004042,83.4053381 349.934757,81.8833927 349.934757,80.6582152 C349.934757,79.1016276 349.829099,77.5519686 350,76 C340.676641,77.3054319 318.320326,81.8660717 309.873414,83.0756602" id="path-1"></path>
        <filter x="-8.5%" y="-18.1%" width="116.9%" height="148.5%" filterUnits="objectBoundingBox" id="filter-2">
            <feOffset dx="0" dy="7" in="SourceAlpha" result="shadowOffsetOuter1"></feOffset>
            <feGaussianBlur stdDeviation="8" in="shadowOffsetOuter1" result="shadowBlurOuter1"></feGaussianBlur>
            <feColorMatrix values="0 0 0 0 0   0 0 0 0 0   0 0 0 0 0  0 0 0 0.17 0" type="matrix" in="shadowBlurOuter1"></feColorMatrix>
        </filter>
    </defs>
    <g id="map/Tennessee" stroke="none" stroke-width="1" fill="none" fill-rule="evenodd" opacity="0.209999993">
        <g id="Fill-463">
            <use fill="black" fill-opacity="1" filter="url(#filter-2)" xlink:href="#path-1"></use>
            <use fill="#FFFFFF" fill-rule="evenodd" xlink:href="#path-1"></use>
        </g>
    </g>
</svg>