<?xml version="1.0" encoding="UTF-8"?>
<svg width="375px" height="266px" viewBox="0 0 375 266" version="1.1" xmlns="http://www.w3.org/2000/svg" xmlns:xlink="http://www.w3.org/1999/xlink">
    <!-- Generator: Sketch 52.6 (67491) - http://www.bohemiancoding.com/sketch -->
    <title>map/Texas</title>
    <desc>Created with Sketch.</desc>
    <defs>
        <path d="M308.86862,140.57309 C308.870218,140.565098 308.871017,140.557906 308.871817,140.549915 C309.032445,139.407135 309.781245,138.114915 309.145924,136.997708 C308.843047,136.466276 307.860896,136.037134 307.441344,135.536868 C306.199471,134.056849 306.492757,131.97747 305.343585,130.533412 C304.32707,129.254778 303.224248,128.158349 303.153124,126.409816 C303.061222,124.139441 302.644068,122.706571 301.206403,121.033957 C300.506351,120.219627 299.396336,119.783293 298.908058,118.785159 C298.336668,117.616807 298.692288,116.163159 298.60598,114.914093 C298.288719,110.314206 298.343061,105.578464 298.199215,100.925033 C298.068155,96.7111337 297.73571,92.3541869 298.004223,88.1458813 C298.087334,86.8448708 298.052971,85.4383729 297.89474,84.1429564 C297.861176,83.8696483 295.820955,83.7002292 295.554839,83.6770539 C294.360115,83.5747632 293.302844,84.3739097 292.11771,84.0118963 C291.232255,83.7417848 290.860652,82.5071034 290.136625,82.3552656 C286.185645,81.5289481 283.107333,79.8515395 279.890768,77.6387028 C279.249053,77.1735995 278.687253,76.5446712 278.008778,76.1371065 C276.932327,75.4897978 275.916612,77.3933648 274.839363,77.7425919 C273.161155,78.2876098 271.438195,77.5156342 270.176343,76.412812 C270.100424,76.3464829 267.863613,77.7114251 267.625467,77.808921 C266.194196,78.3970929 264.752535,78.4106784 263.472303,77.5020488 C263.449127,77.5164334 263.424354,77.530818 263.395584,77.5476001 C262.335117,78.1805242 261.337782,78.807055 260.31887,79.5071074 C259.249612,80.2431213 257.053558,82.297727 255.726175,81.2692255 C254.760007,80.5204252 253.898527,79.8571336 252.806094,79.2489831 C252.390538,79.0180297 250.421441,78.0454684 250.510945,77.394164 C250.510945,77.394164 250.507749,77.4117452 250.507749,77.4133435 C250.120962,78.6200547 247.428637,78.5169648 246.590332,77.9911264 C245.949417,77.5891557 245.636151,76.6925133 245.028001,76.3512778 C245.023206,76.3536752 245.020808,76.3536752 245.017612,76.3584701 C244.773073,76.3880385 244.1865,77.1624115 243.909196,77.8928314 C243.426511,79.166671 243.242707,81.1165885 241.542124,81.3555333 C239.996574,81.5729011 239.06397,79.6165905 239.04559,78.3275671 L238.956885,78.3451483 C238.161734,78.5065759 237.428917,78.6640078 237.217143,78.703166 C235.49658,79.025222 234.623912,78.0206948 233.274154,77.2399287 C232.690777,76.903488 232.212887,75.8566061 231.530416,75.7671017 C231.169202,75.719952 230.552261,76.5550601 230.304525,76.7932058 C229.484601,77.5787668 228.607937,78.365127 227.40682,78.3946954 C225.21556,78.4474391 225.006184,76.3352948 225.047739,74.7226171 C225.046141,74.7753608 224.020037,74.3765867 223.945716,74.3334328 C222.967561,73.7612439 222.578377,72.7806911 222.589565,71.6834629 C220.623664,71.8353008 218.85755,72.8422254 216.880462,72.8957682 C215.111951,72.9429178 214.193731,71.3422274 212.597836,71.1951844 C211.099436,71.0577312 209.6346,70.7061067 208.185748,70.3153241 C206.90072,69.9692936 205.628479,69.9293363 204.35384,69.6136734 C202.410316,68.9551767 201.940418,66.4226814 200.622625,65.029769 C199.38235,65.7897573 197.56589,65.3006796 196.176973,65.3446327 C194.730518,65.390184 193.336007,65.307872 192.365044,64.0851778 C191.851193,63.4394674 191.491577,62.6435174 190.867443,62.090508 C190.161797,61.4647763 189.342672,61.6062253 188.526743,61.2370196 C187.495844,60.770318 187.359989,59.8736756 187.290464,58.8459732 C187.290464,55.5814596 187.597336,52.2737922 187.702024,49.0052829 C187.917794,42.3412 188.386093,35.73066 188.521149,29.1305088 C188.598666,25.3401569 188.778474,21.5146425 188.727329,17.7258888 C187.580554,17.4206148 186.794194,17.0705886 185.563508,17.0705886 C177.913278,17.0705886 170.20551,16.8124643 162.563272,16.3985064 C160.706055,16.297814 138.663996,15.1566327 136.58142,15 C136.566236,15.1374532 130.512701,105.110164 130.380842,108.05342 C130.287342,110.068868 130.149889,112.068332 129.963688,114.082981 C128.992725,118.137051 122.30227,116.395711 119.485279,116.117608 C117.135788,115.892249 76.6214564,112.561406 66,111.678349 C66.7783687,113.002535 66.8590825,114.494541 67.8644088,115.95618 C69.17421,117.849358 71.0386188,118.256923 72.7312112,119.733746 C77.6707358,124.040347 80.5308812,130.115458 86.0226161,133.949763 C87.9677388,135.303518 89.2112108,136.691635 90.3068407,138.365048 C93.8638418,143.804838 93.488243,148.885013 95.0066214,154.729171 C95.9560074,158.394057 97.7293136,160.793095 100.344121,163.200924 C105.193342,167.674546 110.221572,169.941725 115.529503,173.370862 C120.616071,176.660149 123.019904,178.996854 126.726345,173.093558 C129.489794,168.695855 131.136036,162.818932 136.237787,160.473437 C140.11125,158.692938 141.114179,159.433747 144.876561,160.213714 C151.960196,161.680148 156.431421,158.163104 160.152247,165.909231 C160.606162,165.870073 161.084851,165.747004 161.530775,165.653504 C162.941268,170.044015 168.928474,172.178536 171.234012,176.664944 C173.610673,181.288007 174.790214,186.335416 178.009176,190.652406 C178.955365,191.918254 178.751583,194.04718 179.46602,195.494435 C180.544868,197.679301 182.414072,199.176103 183.958822,201.014939 C185.342144,202.669172 186.168462,204.829265 187.36878,206.635336 C189.755031,210.242684 197.208671,212.634529 193.471063,218.246136 C195.47772,219.202715 195.138882,223.161686 196.026733,225.182728 C197.961467,229.58123 200.00009,236.627305 203.875151,239.423519 C207.392994,241.964805 212.258998,242.077485 216.097298,244.068958 C219.433735,245.798311 223.056266,245.425109 226.485404,246.63262 C229.252049,247.60598 232.038673,250.978379 235.054652,250.999956 C236.418795,251.010345 240.563968,249.195483 240.809306,247.473322 C239.460347,248.248494 238.444632,248.390742 237.807712,246.921911 C239.60739,244.819356 235.960085,239.860652 235.343943,236.998109 C234.996314,235.376641 235.452627,233.426724 234.810113,231.87558 C234.260301,230.544202 232.455029,229.745056 232.887367,228.103609 C233.171863,228.253848 233.487526,228.351344 233.80159,228.400891 C233.406812,227.694446 232.450234,226.684324 232.811448,225.639041 C232.975273,225.173138 234.010967,225.707767 234.274685,225.336963 C234.551989,224.951775 234.780545,223.965628 234.895622,223.490136 C235.209687,222.194719 234.98193,220.900102 235.523751,219.642245 C233.115124,220.247199 232.224874,220.188861 229.835426,219.504792 C229.912144,219.526369 229.339955,216.738147 229.315182,216.539159 C229.806657,216.946724 230.557056,217.795418 231.214753,218.025572 C232.303191,218.405166 233.417201,217.750665 234.535207,218.005593 C234.206758,218.295683 233.892693,218.836705 233.500312,219.080445 C234.069305,218.728821 234.898019,218.594564 235.54373,218.383589 C235.960085,218.243739 236.445966,217.309536 236.884698,216.112415 C236.457953,217.657964 236.923856,219.229086 236.492317,220.765046 C237.699028,216.478424 239.565035,212.781572 241.773077,208.952861 L241.773077,207.427291 C241.773077,208.919297 240.548785,210.196333 239.698493,211.304749 C238.760295,212.525845 237.608724,213.933942 237.125241,215.413162 C237.836481,213.240282 238.347136,210.576727 238.086614,209.95579 C237.719007,209.111891 235.55332,208.047428 236.173457,206.877478 C235.854598,207.468047 234.986725,207.086055 234.69184,206.767196 C236.051188,205.251215 238.797854,205.977639 239.967805,207.424094 C240.814101,206.244554 242.016018,205.307954 242.756826,204.049298 C243.321024,203.087925 243.130028,201.783718 243.566362,200.765605 C243.481652,200.962994 241.128965,202.827403 241.481389,203.07354 C240.989913,202.730706 240.539195,202.27839 240.107656,201.85644 C240.495242,201.336995 240.83408,200.542643 240.794922,199.884946 C240.828486,200.135079 243.649473,198.746961 243.865243,200.350848 C243.838871,200.151861 245.454745,198.187558 245.636151,197.779994 C245.803173,198.609508 245.582608,199.531723 245.258155,200.304498 C245.465134,199.811424 246.57355,199.554099 246.970726,199.188889 C248.358844,197.907857 248.27813,196.993634 247.846591,195.290652 C247.628424,194.425177 248.550639,193.618039 248.059963,192.766948 C248.815156,193.826616 249.486439,195.622298 250.912117,195.847657 C251.964593,196.015478 252.996291,195.444888 253.852177,194.902267 C254.006412,194.803972 256.182488,193.283995 255.930757,193.132158 C254.746422,192.41852 254.37322,192.340203 253.017069,192.711007 C253.293573,192.249101 253.56848,191.787993 253.845784,191.326886 C252.392136,190.304777 251.688887,189.161998 251.098318,187.498175 C251.073544,187.429448 252.380948,187.282405 252.455269,187.292794 C252.879615,188.928647 254.636139,190.303978 256.355104,189.507229 C255.903586,188.636958 255.423299,187.687572 255.155585,186.762161 C255.776522,187.299986 256.573271,188.75683 257.512268,188.77601 C258.042901,188.7856 258.620684,187.881765 259.053022,188.004034 C259.418232,188.106325 259.548493,188.935839 259.700331,189.259493 C260.154246,189.220335 260.608161,189.170788 261.062077,189.112451 C260.78717,189.436105 260.509866,189.757362 260.232563,190.078619 C260.667298,189.575956 262.452592,189.098066 263.107892,188.874305 C262.951259,188.929446 262.851366,189.588742 262.769853,189.732588 C262.113753,190.88256 260.420362,190.889752 259.843378,192.104455 C261.402513,191.717668 262.776246,190.650008 264.198727,189.941165 C264.902775,189.587943 265.649178,189.334613 266.357222,188.994177 C266.878265,188.743245 267.692595,187.850598 268.248002,187.814637 C267.981087,187.832218 267.281834,187.832218 267.037295,187.996043 L265.648379,188.959814 C265.554878,188.5043 265.435806,188.030406 265.406237,187.581286 C266.891851,186.980328 268.535695,186.619913 270.120402,186.424122 C272.576979,186.119647 274.934461,184.574897 276.74293,182.960621 C277.57644,182.220611 278.560189,181.42546 279.161147,180.478471 C279.828434,179.428393 279.967486,178.08263 280.705897,177.069312 C281.081496,176.553863 281.63051,176.240597 282.131575,175.865798 C283.120918,175.126587 284.180586,174.05653 284.961353,173.098353 C285.686978,172.208903 285.852401,171.589565 284.680053,171.229949 C283.767428,170.950247 284.105467,169.898571 283.828163,169.196121 C283.403816,168.106884 281.885438,166.301612 282.344947,165.010191 C282.728537,163.913762 284.572168,165.357021 285.101203,165.643915 C285.078827,165.631927 287.23013,161.877537 288.586281,163.113018 C288.991448,163.480625 288.689371,165.104491 288.689371,165.646312 L287.579357,168.563197 L290.632096,167.728888 C291.414461,167.728888 292.62277,167.501131 293.321224,167.796016 C292.749035,167.551477 291.678978,168.308269 291.219469,168.575983 C290.383562,169.061864 289.668326,169.654831 288.989051,170.346093 C288.901145,170.436396 287.543395,172.086634 287.716011,172.102617 C288.511161,172.173741 289.239184,170.795213 289.854527,170.373264 C291.301781,169.384719 293.087874,168.996334 294.644611,168.209974 C296.447486,167.294951 298.110509,166.102625 300.016474,165.404171 C300.987437,165.047751 302.018336,164.943063 303.042043,164.868742 C303.584663,164.829584 304.575605,164.858354 304.666708,164.127134 C304.75781,163.405505 303.640603,162.521649 303.531919,161.729695 C303.349714,160.478231 304.277523,159.610358 305.071875,158.76646 C305.947739,157.83945 306.416039,157.903381 306.609433,158.364489 C306.416039,157.692407 306.111564,156.939611 305.822273,156.146857 C305.341187,154.827466 305.810286,154.12182 306.221847,152.864763 C306.720514,151.343987 305.870222,149.843989 306.750083,148.356777 C307.480502,147.122895 308.27885,145.857846 308.631273,144.452147 C308.939744,143.216667 308.693607,141.85572 308.86862,140.57309 Z M306.457595,160.510197 C306.457595,160.510197 305.077469,161.194267 305.06708,161.199861 C304.922434,161.270985 304.826537,162.524846 304.789776,162.730226 C304.959195,162.852496 305.130213,162.977962 305.302828,163.103428 C306.042838,161.903909 306.695741,160.736356 306.790839,159.723038 C306.796433,159.642324 306.801228,159.548824 306.801228,159.451328 C306.80842,159.181217 306.744489,158.867152 306.661377,158.536305 C306.788442,159.050956 306.692544,159.860491 306.457595,160.510197 Z M237.882832,234.775683 L238.023482,236.166198 L238.854594,237.547123 L239.688104,240.880363 L239.967805,243.796449 L240.522413,245.185366 C240.522413,245.185366 239.974997,240.944295 239.967805,240.880363 C239.278941,235.523684 236.661736,230.608134 236.259765,225.14357 C236.175855,224.01038 236.21741,222.862806 236.21741,221.724821 C236.12391,222.838032 236.031209,223.951243 235.940107,225.062856 L236.21741,226.446179 L236.079957,229.362264 L236.911869,230.751181 L236.772018,232.273555 L237.882832,234.775683 Z M254.125485,195.766144 L251.34925,197.299707 L249.961132,198.67264 L248.572216,198.957936 L248.015211,199.240034 L248.432365,200.622558 L252.736568,197.577011 L255.651056,196.041051 L255.930757,194.518677 L255.513602,194.234181 L254.125485,195.766144 Z M245.379625,202.016269 L244.962471,203.404387 L244.128162,204.78771 L244.27041,205.214454 L246.490439,202.431026 L247.323949,200.900661 L246.490439,200.481109 L245.379625,202.016269 Z M284.107864,175.642037 L282.722144,176.608205 L282.165938,177.583963 L286.467744,174.385778 L287.579357,172.727549 L285.913136,173.836765 L284.107864,175.642037 Z" id="path-1"></path>
        <filter x="-11.3%" y="-8.7%" width="122.6%" height="123.3%" filterUnits="objectBoundingBox" id="filter-2">
            <feOffset dx="0" dy="7" in="SourceAlpha" result="shadowOffsetOuter1"></feOffset>
            <feGaussianBlur stdDeviation="8" in="shadowOffsetOuter1" result="shadowBlurOuter1"></feGaussianBlur>
            <feColorMatrix values="0 0 0 0 0   0 0 0 0 0   0 0 0 0 0  0 0 0 0.17 0" type="matrix" in="shadowBlurOuter1"></feColorMatrix>
        </filter>
    </defs>
    <g id="map/Texas" stroke="none" stroke-width="1" fill="none" fill-rule="evenodd" opacity="0.209999993">
        <g id="Fill-464">
            <use fill="black" fill-opacity="1" filter="url(#filter-2)" xlink:href="#path-1"></use>
            <use fill="#FFFFFF" fill-rule="evenodd" xlink:href="#path-1"></use>
        </g>
    </g>
</svg>