<?xml version="1.0" encoding="UTF-8"?>
<svg width="375px" height="266px" viewBox="0 0 375 266" version="1.1" xmlns="http://www.w3.org/2000/svg" xmlns:xlink="http://www.w3.org/1999/xlink">
    <!-- Generator: Sketch 52.6 (67491) - http://www.bohemiancoding.com/sketch -->
    <title>map/Vermont</title>
    <desc>Created with Sketch.</desc>
    <defs>
        <path d="M133.547646,58.5780198 C134.546469,60.1213165 135.583278,61.6191782 136.465162,63.2347238 C139.780419,71.5828265 140.038132,79.8452733 142.289021,86.355125 C146.40721,98.9957077 153.651468,112.413153 153.726696,128.186508 C153.75649,134.347778 151.450483,140.710152 152.940151,146.811835 C154.04772,151.349365 156.355961,155.539803 158.157716,159.821855 C160.620883,165.674763 162.482223,172.057248 163.910816,178.244587 C164.310792,178.380146 164.704064,178.572314 165.078716,178.81215 C176.085132,185.889566 176.735372,195.64615 178.603417,204.753239 C180.300149,212.7252 182.100414,220.687479 183.940154,228.643799 C185.576555,236.14279 186.573144,245.309466 189.188257,251 C197.782155,249.240701 215.319278,245.030898 226.585642,242.756919 C224.278145,239.519869 222.513633,235.794208 222.466708,231.056317 C222.429466,227.271069 224.313897,223.890266 224.313897,220.145984 C224.353373,216.643774 223.078217,212.223182 222.448832,207.308021 C221.441816,199.411287 221.259332,191.878778 219.584199,185.163352 C218.869158,182.29872 218.062503,179.438556 217.789149,176.488267 C217.524733,173.624379 218.157842,170.779857 219.170072,168.107392 C223.884873,155.457126 222.121105,140.821132 225.646406,125.347945 C226.226632,122.800612 225.285161,120.24732 224.557458,117.840015 C222.994051,112.667141 221.545348,106.636963 224.20962,101.576559 C227.092874,96.0290328 231.576031,95.5404215 232.169664,94.6160821 C237.820722,90.2945536 244.46092,81.3729284 244.171924,75.5155516 C243.981991,71.6543306 241.517335,69.4399383 239.565869,66.3734555 C236.570145,61.6675924 236.824134,56.3479859 238.648978,51.2823679 C239.091409,50.054881 240.005321,48.5346742 239.909982,47.1865242 C239.730477,44.6436599 239.689511,42.0873886 239.38264,39.5542072 C239.060126,36.8891901 238.61546,34.2427939 238.581198,31.5509628 C238.543956,28.6006741 238.702606,25.6518752 238.702606,22.7015866 C238.88509,21.0055989 237.688142,18.0545654 236.009285,15 C235.273389,15.1720567 234.544941,15.3396444 233.884273,15.5645844 C225.878049,18.2854641 217.658058,20.0283763 209.534895,22.4036528 C190.406061,28.0085309 131.493393,42.7979605 130,43.2336886 C130.735896,46.2078119 131.521696,49.6474567 131.589476,52.9470726 C131.396564,54.8851314 132.390918,56.7904175 133.547646,58.5780198" id="path-1"></path>
        <filter x="-24.1%" y="-8.7%" width="148.2%" height="123.3%" filterUnits="objectBoundingBox" id="filter-2">
            <feOffset dx="0" dy="7" in="SourceAlpha" result="shadowOffsetOuter1"></feOffset>
            <feGaussianBlur stdDeviation="8" in="shadowOffsetOuter1" result="shadowBlurOuter1"></feGaussianBlur>
            <feColorMatrix values="0 0 0 0 0   0 0 0 0 0   0 0 0 0 0  0 0 0 0.17 0" type="matrix" in="shadowBlurOuter1"></feColorMatrix>
        </filter>
    </defs>
    <g id="map/Vermont" stroke="none" stroke-width="1" fill="none" fill-rule="evenodd" opacity="0.209999993">
        <g id="Fill-466">
            <use fill="black" fill-opacity="1" filter="url(#filter-2)" xlink:href="#path-1"></use>
            <use fill="#FFFFFF" fill-rule="evenodd" xlink:href="#path-1"></use>
        </g>
    </g>
</svg>