<?xml version="1.0" encoding="UTF-8"?>
<svg width="375px" height="266px" viewBox="0 0 375 266" version="1.1" xmlns="http://www.w3.org/2000/svg" xmlns:xlink="http://www.w3.org/1999/xlink">
    <!-- Generator: Sketch 52.6 (67491) - http://www.bohemiancoding.com/sketch -->
    <title>map/Washington</title>
    <desc>Created with Sketch.</desc>
    <defs>
        <path d="M309.885704,213.012336 C313.502977,195.773834 333.497457,103.609341 341.155935,69.33381 C237.992715,46.7453705 158.313648,24.2752961 123.850916,15 L120.942994,17.5368762 C121.512994,23.2922776 124.216085,29.3322591 129.647451,32.0345107 C128.927187,35.6282787 129.276406,39.3085121 128.551944,42.903959 C127.344787,42.3020595 126.13763,41.7009995 124.930473,41.0949027 C126.284537,41.7748728 127.034183,46.2265785 126.131754,47.3346779 C124.488073,49.3494042 120.731448,46.4280511 119.014733,45.8513357 C119.027325,47.0903923 119.188504,48.4965034 119.133099,49.7976808 C120.344453,49.6751183 121.554967,49.5567531 122.762124,49.4383879 C123.136528,50.7001103 123.408516,52.0969872 123.991107,53.26301 C125.756511,56.7921389 127.27763,56.9843773 126.749603,61.3101626 C126.18548,65.9557856 128.021399,70.550201 127.578999,75.1949845 C127.104699,80.1587664 123.194451,81.7663501 121.093259,85.8495287 C119.786206,88.3864049 118.985352,90.7041796 116.830434,92.6777718 C119.309387,97.1462669 115.927165,99.6117881 115.741643,104.134009 C115.568712,108.348984 114.32294,110.545876 110.66873,112.76879 C106.620809,115.235151 101.642756,120.955295 96.4867357,118.751688 C92.8677836,117.207064 90.4853698,117.793853 89.262263,121.745235 C89.1212322,119.090833 86.6876107,116.890584 84.9280831,115.115946 C89.822189,112.858613 92.9895066,108.114773 97.8802547,105.921239 C96.1190481,108.342269 97.2716395,107.270266 104.007541,107.240046 C107.78935,107.240046 112.314929,101.449386 109.531249,97.9756625 C107.80614,95.8199054 104.740398,97.2033508 105.947555,93.2704372 C107.065728,93.3216448 108.163753,93.6549141 109.297876,93.7825134 C109.887184,91.5151069 113.878021,86.6377903 115.030612,85.7823711 C116.666738,84.5684986 117.085633,81.794892 116.186561,80.0303276 C114.610038,76.9385622 112.272956,79.3033472 110.748479,80.9906805 C107.354505,84.7389108 103.702814,88.7608082 98.7264397,90.2928396 C93.6468111,91.855092 93.5057802,91.2750187 94.4753673,90.4036496 L98.1077509,88.2227084 L104.993078,79.8901362 C104.993078,79.8901362 111.341145,72.4406858 109.973649,61.9028279 C108.628819,62.7171131 98.6299008,59.0494718 97.6695479,56.6637001 C97.8735389,57.1699 91.818447,57.9833458 91.3340732,57.9254224 C86.9738697,57.4083093 83.264255,54.8168676 79.4001779,52.9557642 C75.2783837,50.9695799 71.1196528,49.1328211 67.1825419,46.7806282 C61.9081564,43.6292605 57.3825775,39.2531071 51.886572,36.4870558 C48.6520969,34.8568065 46.9227902,31.6500338 44.1323943,29.5337317 C43.4566215,29.0250133 40.2548856,28.0411553 40.1004233,27.3242486 C40.4849002,29.117355 41.2756803,31.1958809 40.792146,32.8101803 C38.879835,39.1960232 35.8308825,43.8147832 35.8115747,50.8604489 C35.7964643,56.3270729 39.4212926,60.7124604 40.9172269,65.7593498 C42.6272258,71.5307011 40.8693772,77.5841141 40.1843702,83.3865258 C39.5782734,88.4888201 41.3050617,93.3728524 41.0129264,98.3979156 C40.7409384,103.099783 40.8240458,110.462768 41.1866965,109.261488 C40.6578309,111.010942 49.2598727,115.763177 50.6214918,116.608523 C46.5190054,116.172838 43.8637641,119.660833 40.1390389,120.627902 C39.8317931,119.513086 37.6088785,125.284438 39.1618966,128.442521 C42.6272258,126.818988 47.9889162,131.119589 48.6940704,134.189528 C46.8715825,134.342311 45.3152065,132.964742 43.7537936,132.170604 C41.6853413,134.189528 40.2473304,140.174105 39.9820581,142.975414 C39.7831039,145.095913 37.0229289,138.224017 36.4588055,134.89888 C34.4575108,140.964045 37.3587166,155.617821 37.7658592,155.829367 C40.0106001,157.000427 41.9321453,155.799986 44.3363853,155.697571 C46.3443958,155.611945 47.3819799,157.243033 48.7822146,158.362885 C50.616455,159.830278 53.0458791,159.38368 54.948956,160.6496 C59.4065379,163.617124 57.4178352,169.056045 64.3678014,168.335781 C61.4179063,169.281862 59.2302494,170.107061 56.6782627,167.936193 C54.8364671,166.366386 54.0037136,163.714502 51.6045104,162.80116 C48.7058229,161.700615 45.4814214,162.844812 42.5189343,161.571337 C40.7955039,160.828407 36.7442251,160.242457 35.0417814,159.080632 C36.6166258,160.15935 34.4046242,164.621968 34,165.827446 C36.1490414,166.373941 37.4040479,168.189713 39.1937965,169.281023 C40.7115569,170.206118 44.4690214,170.232142 48.3952193,170.653555 C52.1493259,170.93142 57.5168925,173.05024 58.6669655,178.933241 C59.5097926,181.498659 63.6777576,181.264447 65.8091701,182.026685 C72.4460143,184.400704 76.9128304,191.798947 76.9128304,198.752271 C76.8481912,204.173564 75.076911,208.983723 75.1415502,212.792395 C75.3128019,222.949134 88.1029559,224.724611 96.0325828,224.625554 C105.133269,224.512226 113.789037,222.995305 122.899797,224.335098 C131.191235,225.747085 138.41235,230.340661 146.444392,232.575328 C150.609839,233.733796 154.997745,233.669157 159.215239,234.573265 C165.172952,235.850937 171.42364,237.421584 177.516508,236.250525 C184.375812,234.932558 191.282126,233.619628 198.2833,233.424032 C203.528304,233.277124 208.701953,234.291203 213.896589,234.841056 C220.485583,235.539494 227.311308,233.72708 233.815516,235.070231 C254.209583,239.280169 293.798954,248.031637 307.191847,251 C307.23466,247.327322 308.081685,243.683186 308.019564,240.013865 C307.943172,235.510113 307.01388,230.971942 307.305176,226.468189 C307.599829,221.917426 308.956412,217.455647 309.885704,213.012336" id="path-1"></path>
        <filter x="-9.0%" y="-8.7%" width="117.9%" height="123.3%" filterUnits="objectBoundingBox" id="filter-2">
            <feOffset dx="0" dy="7" in="SourceAlpha" result="shadowOffsetOuter1"></feOffset>
            <feGaussianBlur stdDeviation="8" in="shadowOffsetOuter1" result="shadowBlurOuter1"></feGaussianBlur>
            <feColorMatrix values="0 0 0 0 0   0 0 0 0 0   0 0 0 0 0  0 0 0 0.17 0" type="matrix" in="shadowBlurOuter1"></feColorMatrix>
        </filter>
    </defs>
    <g id="map/Washington" stroke="none" stroke-width="1" fill="none" fill-rule="evenodd" opacity="0.209999993">
        <g id="Fill-471">
            <use fill="black" fill-opacity="1" filter="url(#filter-2)" xlink:href="#path-1"></use>
            <use fill="#FFFFFF" fill-rule="evenodd" xlink:href="#path-1"></use>
        </g>
    </g>
</svg>