<?xml version="1.0" encoding="UTF-8"?>
<svg width="375px" height="266px" viewBox="0 0 375 266" version="1.1" xmlns="http://www.w3.org/2000/svg" xmlns:xlink="http://www.w3.org/1999/xlink">
    <!-- Generator: Sketch 52.6 (67491) - http://www.bohemiancoding.com/sketch -->
    <title>map/West Virginia</title>
    <desc>Created with Sketch.</desc>
    <defs>
        <path d="M291.327828,49.88479 C297.183153,50.0841359 301.821806,53.4818426 306.445747,56.3874373 C308.573084,57.7240108 316.513081,64.6054888 318.59996,60.8517547 C320.65153,57.1612817 319.585655,51.394228 317.257502,48.1789485 C315.075731,45.1652216 311.823672,42.7112814 309.319711,40.0322496 C307.467487,38.0505605 305.58216,38.1873809 303.09659,37.3105533 C301.351762,36.6955971 299.737134,35.381827 297.826797,35.1758607 C293.34409,34.6969893 292.488595,41.8293047 287.724155,41.3291011 C287.724155,41.3291011 285.866781,41.4570943 284.839892,42.6325729 C284.007936,43.8588074 283.014149,47.1660361 279.597317,49.948051 C277.66197,51.4839704 275.2632,52.243103 273.147632,52.2055878 C270.005177,52.0739165 263.250221,46.996114 260.540294,49.4346067 C259.768656,50.1282715 259.695833,53.6319037 259.298612,54.6712974 C258.311446,57.2539665 256.665923,59.4291167 254.283335,60.8797073 C251.7551,62.418569 247.666671,61.0422734 245.342931,62.6135013 C243.849676,63.4962136 242.270356,66.8762661 239.597945,70.4696408 C238.623283,71.6267295 235.934689,74.3550461 233.007762,77.5188341 C230.6877,79.9220183 228.175648,82.8680706 227.44741,83.8361117 C225.35244,86.624747 220.473247,89.3133416 219.053552,83.9104067 C214.751065,71.9790788 214.700309,59.1775437 212.95401,47.9803382 C195.935317,51.0301092 161.528662,57.1929122 156.387599,58.2242144 C156.378036,58.2271568 156.378036,58.2271568 156.369209,58.2330416 C152.819234,60.5111749 151.4194,54.6337822 151.423813,52.4601031 C151.433376,48.1120095 148.472612,31.0021028 145.4096,15 C144.391539,20.3153992 143.114548,25.6175578 142.686433,31.0256418 C142.400287,34.6322571 144.625458,42.0271794 141.263059,44.5193704 C141.534493,46.6437647 141.677198,48.968976 141.677198,51.3905501 C141.585249,57.6592786 140.923951,64.2207733 137.554932,69.1919147 C134.128537,73.7901102 130.53884,76.0755995 128.707212,79.2151129 C125.505174,84.7011698 120.170649,94.1734083 112.908134,94.630212 C112.221089,94.673612 105.673571,93.3819097 106.005323,92.4741872 C105.454364,93.9762693 104.878394,96.1264093 103.477088,98.9650649 C100.266958,104.316508 92.8852762,108.413029 93.0022356,115.453395 C93.0566695,118.721637 96.8692511,121.051262 94.8757925,124.392328 C92.9632491,127.598045 91.9966792,131.8358 89.8171154,134.781852 C88.2782536,136.862846 85.0710656,137.267423 83.2556206,135.259252 C80.165392,131.840949 79.1399746,129.783494 77.893879,128.464574 C75.8224475,132.358071 74.2622535,136.577436 73.617138,140.806363 C72.7851816,146.26079 76.4580004,151.332708 74.8566131,157.010754 C73.6517108,161.282346 70.8608688,166.001179 69.0358611,169.19292 C66.4671683,172.406728 61.3834811,177.497036 55,179.558904 C56.0901497,179.311745 56.4042481,187.982922 56.4042481,188.864163 C56.4042481,198.629168 61.6997863,204.099778 69.8773802,213.392531 C75.6157457,219.913568 80.9590975,228.504566 89.4412271,231.719845 C92.6028083,232.918127 97.2216004,232.092056 100.005822,234.028138 C102.147135,235.516979 101.449792,238.287225 101.449792,240.496948 C101.468182,248.105928 107.991426,250.693011 117.855736,250.999753 C122.259735,251.015936 126.815266,250.234736 130.047464,249.193135 C135.935155,247.351945 144.426112,246.741402 151.398803,244.730289 C154.198472,243.922607 157.259277,242.887627 159.538882,241.003036 C162.395927,238.641781 161.362418,233.933982 164.6542,231.947144 C167.478879,230.242773 171.825501,231.685272 174.967222,231.058547 C179.588956,230.136848 185.26921,228.109552 189.209785,225.134812 C192.998091,222.275559 194.627431,217.599391 196.564249,213.452114 C194.934909,210.671571 194.264048,207.615915 194.289794,204.781673 C194.324367,199.113189 196.545859,193.979481 198.829142,189.82632 C203.520758,181.241943 207.37159,172.337582 210.534642,163.033059 C213.258545,155.355669 213.045959,145.401617 217.092459,135.861703 C218.594541,132.391908 220.56299,129.087622 224.991263,128.850025 C230.703147,128.544018 233.41381,136.481073 239.007999,137.05925 C242.059977,137.374084 243.552496,134.986347 244.764754,132.557417 C246.308029,129.265636 247.301081,124.571078 248.107291,120.723187 C250.312601,109.250134 256.854235,107.4597 262.69117,102.637148 C264.064523,101.754436 264.260191,99.5667805 267.136362,95.6644565 C274.760789,86.3797944 278.461561,85.1668005 280.758819,74.6904768 C281.418647,71.6811634 280.736751,68.3202363 280.844148,65.260167 C280.988324,61.1423142 280.723511,56.6971222 284.244797,52.7940626 C286.180144,50.7711803 288.945976,49.8516883 291.327828,49.88479" id="path-1"></path>
        <filter x="-10.2%" y="-8.7%" width="120.6%" height="123.3%" filterUnits="objectBoundingBox" id="filter-2">
            <feOffset dx="0" dy="7" in="SourceAlpha" result="shadowOffsetOuter1"></feOffset>
            <feGaussianBlur stdDeviation="8" in="shadowOffsetOuter1" result="shadowBlurOuter1"></feGaussianBlur>
            <feColorMatrix values="0 0 0 0 0   0 0 0 0 0   0 0 0 0 0  0 0 0 0.17 0" type="matrix" in="shadowBlurOuter1"></feColorMatrix>
        </filter>
    </defs>
    <g id="map/West-Virginia" stroke="none" stroke-width="1" fill="none" fill-rule="evenodd" opacity="0.209999993">
        <g id="Fill-472">
            <use fill="black" fill-opacity="1" filter="url(#filter-2)" xlink:href="#path-1"></use>
            <use fill="#FFFFFF" fill-rule="evenodd" xlink:href="#path-1"></use>
        </g>
    </g>
</svg>