<?xml version="1.0" encoding="UTF-8"?>
<svg width="375px" height="266px" viewBox="0 0 375 266" version="1.1" xmlns="http://www.w3.org/2000/svg" xmlns:xlink="http://www.w3.org/1999/xlink">
    <!-- Generator: Sketch 52.6 (67491) - http://www.bohemiancoding.com/sketch -->
    <title>map/Wyoming</title>
    <desc>Created with Sketch.</desc>
    <defs>
        <path d="M80.9800681,15.6298206 C78.4450311,15.4007656 76.4891295,14.9751459 75.4096472,15.0011379 C74.0036399,15.2431889 74.1498452,14.6616168 72.5334647,17.6588248 C70.0625956,22.9165288 71.0584159,30.3112665 69.6637801,37.8384012 C69.6613434,37.8473359 69.6662169,37.8562707 69.6637801,37.8676422 C67.6469596,49.6436645 50.8991459,166.991264 50.2233526,170.695943 C50.2233526,170.701629 50.2184791,170.70569 50.2184791,170.711376 C49.7546835,174.312899 44.9144768,210.016226 43,220.967813 C55.6345721,222.751517 97.5711173,229.423351 119.38007,231.405245 L119.38007,231.416616 C119.385756,231.416616 119.392254,231.422302 119.402813,231.425551 C119.426368,231.429612 119.449924,231.416616 119.472667,231.419865 C119.496222,231.422302 119.52059,231.439359 119.543333,231.440172 C119.554704,231.443421 119.566076,231.439359 119.57826,231.440172 C142.455323,235.157847 268.140684,248.118132 316.544376,251 C316.684895,247.491886 316.941567,244.072307 317.091021,240.748574 C318.064098,219.238529 319.863235,197.695995 321.702173,176.308601 C322.563971,166.332528 323.669446,156.494538 323.669446,146.742646 L323.68163,146.742646 C323.68163,146.703658 323.705997,146.675229 323.705997,146.637053 C323.705997,146.572885 323.68163,146.517652 323.68163,146.453484 C324.152735,141.788724 330.78883,68.7924937 331.231507,42.7517105 C323.616649,42.1051583 315.951432,41.6137462 308.231794,40.9290181 C194.881284,30.8091767 84.7781561,15.9823377 80.9800681,15.6298206" id="path-1"></path>
        <filter x="-9.5%" y="-8.7%" width="119.1%" height="123.3%" filterUnits="objectBoundingBox" id="filter-2">
            <feOffset dx="0" dy="7" in="SourceAlpha" result="shadowOffsetOuter1"></feOffset>
            <feGaussianBlur stdDeviation="8" in="shadowOffsetOuter1" result="shadowBlurOuter1"></feGaussianBlur>
            <feColorMatrix values="0 0 0 0 0   0 0 0 0 0   0 0 0 0 0  0 0 0 0.17 0" type="matrix" in="shadowBlurOuter1"></feColorMatrix>
        </filter>
    </defs>
    <g id="map/Wyoming" stroke="none" stroke-width="1" fill="none" fill-rule="evenodd" opacity="0.209999993">
        <g id="Fill-474">
            <use fill="black" fill-opacity="1" filter="url(#filter-2)" xlink:href="#path-1"></use>
            <use fill="#FFFFFF" fill-rule="evenodd" xlink:href="#path-1"></use>
        </g>
    </g>
</svg>